<?xml version="1.0" encoding="utf-8"?>
<!-- Generator: Adobe Illustrator 23.0.1, SVG Export Plug-In . SVG Version: 6.00 Build 0)  -->
<svg version="1.1" id="Layer_1" xmlns="http://www.w3.org/2000/svg" xmlns:xlink="http://www.w3.org/1999/xlink" x="0px" y="0px"
	 viewBox="0 0 800 800" style="enable-background:new 0 0 800 800;" xml:space="preserve">
<style type="text/css">
	.st0{clip-path:url(#SVGID_2_);}
	.st1{fill:#B9E7ED;}
	.st2{opacity:8.000000e-02;fill:#333333;enable-background:new    ;}
	.st3{fill:#D9AE8D;}
	.st4{fill:#F7C6A1;}
	.st5{fill:#F7DFCD;}
	.st6{fill:#A8BCBF;}
	.st7{fill:#4D4D4D;}
	.st8{fill:#333333;}
	.st9{opacity:5.000000e-02;fill:#333333;enable-background:new    ;}
	.st10{clip-path:url(#SVGID_4_);}
	.st11{fill:#F7D1B4;}
	.st12{fill:#F2A753;}
	.st13{fill:#EBC09F;}
	.st14{fill:#FFECDE;}
	.st15{fill:#C49E72;}
	.st16{clip-path:url(#SVGID_6_);}
	.st17{fill:#C7A482;}
	.st18{fill:#1D5A69;}
	.st19{opacity:0.15;fill:#333333;enable-background:new    ;}
	.st20{fill:#B39273;}
	.st21{fill:#43759C;}
	.st22{clip-path:url(#SVGID_8_);}
	.st23{fill:#43AB9B;}
	.st24{fill:#72A891;}
</style>
<g id="Background">
</g>
<g id="Objects">
	<g>
		<g>
			<defs>
				<rect id="SVGID_1_" x="84.6" y="85.2" width="629.6" height="629.6"/>
			</defs>
			<clipPath id="SVGID_2_">
				<use xlink:href="#SVGID_1_"  style="overflow:visible;"/>
			</clipPath>
			<g class="st0">
				<path class="st1" d="M594.5,444.4l-49.3-7.9c1.4,3.7,2,7.9,1.3,12.1c-2,12.8-14,21.5-26.8,19.4c-12.8-2-21.5-14-19.4-26.8
					c0.7-4.2,2.5-8,5-11.1l-49.1-7.8c-9.7-1.5-18.8,5.1-20.4,14.8l-8.1,50.9c-2.4-1.6-5.1-2.7-8.1-3.2c-11.1-1.8-21.6,5.8-23.4,16.9
					c-1.8,11.1,5.8,21.6,16.9,23.4c3,0.5,5.9,0.3,8.7-0.5l-8.1,50.9c-1.5,9.7,5.1,18.8,14.8,20.4L566.8,618
					c9.7,1.5,18.8-5.1,20.4-14.8l22.1-138.5C610.8,455.1,604.2,446,594.5,444.4z"/>
				<path class="st2" d="M587.2,603.2l7.7-48.1l-44.4-49.3c-3.2-3.5-8.6-3.8-12.2-0.6l-1.9,1.7c-3.5,3.2-3.8,8.6-0.6,12.2l30.3,33.7
					l-1,0.9l-0.4,0.4l-39.2-43.5c-3.2-3.5-8.6-3.8-12.2-0.6l-1.9,1.7c-0.3,0.3-0.6,0.5-0.8,0.8c-0.1,0.1-0.1,0.1-0.2,0.2
					c-0.2,0.3-0.4,0.6-0.6,0.9c0,0,0,0,0,0c-0.2,0.3-0.4,0.7-0.5,1c0,0.1-0.1,0.1-0.1,0.2c-0.1,0.3-0.3,0.7-0.3,1c0,0,0,0,0,0
					c-0.1,0.4-0.2,0.7-0.2,1.1c0,0.1,0,0.1,0,0.2c0,0.4-0.1,0.7,0,1.1l0,0c0,0.4,0.1,0.8,0.1,1.2c0,0,0,0.1,0,0.1
					c0.1,0.4,0.2,0.8,0.3,1.1v0l0,0c0.4,1.1,1,2.2,1.8,3.1l39.2,43.5l-1.1,1l-45.8-50.9c-3.2-3.5-8.6-3.8-12.2-0.6l-1.9,1.7
					c-3.5,3.2-3.8,8.6-0.6,12.2l45.8,50.9l-1.4,1.3l-41.8-46.4c-3.2-3.5-8.6-3.8-12.2-0.6l-1.9,1.7c-3.5,3.2-3.8,8.6-0.6,12.2
					l51.3,57c0,0,0,0,0,0l5.2,5.8l-25.9-4.9c-1.6-0.3-3.2-0.3-4.7,0l64.8,10.3C576.5,619.5,585.6,612.9,587.2,603.2z"/>
				<g>
					<g>
						<g>
							
								<rect x="586.1" y="600.6" transform="matrix(0.7431 -0.6692 0.6692 0.7431 -266.9547 575.9589)" class="st3" width="61.2" height="70"/>
							<path class="st4" d="M612.1,567.1c15.7,17.5,2.8,33.8-1.2,37.5l-36,32.5c-4.1,3.7-10.3,3.3-14-0.7l-30.6-34
								c-3.7-4.1-3.3-10.3,0.7-14l48-43.2c4.1-3.7,10.3-3.3,14,0.7L612.1,567.1z"/>
							<g>
								<path class="st4" d="M547.8,592.2c3.2,3.5,2.9,9-0.6,12.2l-1.9,1.7c-3.5,3.2-9,2.9-12.2-0.6l-51.3-57
									c-3.2-3.5-2.9-9,0.6-12.2l1.9-1.7c3.5-3.2,9-2.9,12.2,0.6L547.8,592.2z"/>
								<path class="st5" d="M495.8,538.3c2.7,3,0.4,5.4-2.7,8.1c-3,2.7-5.6,4.8-8.3,1.8c-2.7-3-2.5-7.7,0.6-10.4
									C488.4,535,493.1,535.2,495.8,538.3z"/>
							</g>
							<g>
								<path class="st4" d="M559.9,573.2c3.2,3.5,2.9,9-0.6,12.2l-1.9,1.7c-3.5,3.2-9,2.9-12.2-0.6l-51.3-57
									c-3.2-3.5-2.9-9,0.6-12.2l1.9-1.7c3.5-3.2,9-2.9,12.2,0.6L559.9,573.2z"/>
								<path class="st5" d="M507.9,519.2c2.7,3,0.4,5.4-2.7,8.1c-3,2.7-5.6,4.8-8.3,1.8c-2.7-3-2.5-7.7,0.6-10.4
									C500.5,515.9,505.2,516.2,507.9,519.2z"/>
							</g>
							<g>
								<path class="st4" d="M582.4,566.3c3.2,3.5,2.9,9-0.6,12.2l-1.9,1.7c-3.5,3.2-9,2.9-12.2-0.6l-51.3-57
									c-3.2-3.5-2.9-9,0.6-12.2l1.9-1.7c3.5-3.2,9-2.9,12.2,0.6L582.4,566.3z"/>
								<path class="st5" d="M530.4,512.3c2.7,3,0.4,5.4-2.7,8.1c-3,2.7-5.6,4.8-8.3,1.8c-2.7-3-2.5-7.7,0.5-10.4
									C523,509,527.7,509.3,530.4,512.3z"/>
							</g>
							<g>
								<path class="st4" d="M607.4,561.6c3.2,3.5,2.9,9-0.6,12.2l-1.9,1.7c-3.5,3.2-9,2.9-12.2-0.6l-51.3-57
									c-3.2-3.5-2.9-9,0.6-12.2l1.9-1.7c3.5-3.2,9-2.9,12.2,0.6L607.4,561.6z"/>
								<path class="st5" d="M555.4,507.7c2.7,3,0.4,5.4-2.7,8.1c-3,2.7-5.6,4.8-8.3,1.8c-2.7-3-2.5-7.7,0.5-10.4
									C548,504.4,552.6,504.6,555.4,507.7z"/>
							</g>
							<g>
								<path class="st4" d="M570.4,617.4c5.9,1.2,9.7,7.1,8.5,13l-0.1,0.5c-1.2,5.9-7.1,9.7-13,8.5l-58-10.9c-5.9-1.2-9.7-7-8.5-13
									l0.1-0.5c1.2-5.9,7.1-9.7,13-8.5L570.4,617.4z"/>
								<path class="st5" d="M503,622.3c-0.2,1.3-0.2,2.6,0.1,3.9c1.3,1.1,2.9,1.8,4.6,2.2l8.5,1.7c0.6-1.4,0.9-3.2,1.3-5.2
									c0.9-5.1,1.4-9.3-3.7-10.2C508.8,613.8,503.9,617.2,503,622.3z"/>
							</g>
						</g>
						<polygon class="st6" points="748.6,726.8 693.4,776.5 580.4,650.9 618.1,616.9 633.3,629.1 623.5,612 635.5,601.2 						"/>
						<g>
							<path class="st7" d="M640.1,612.6c1.9,2.1,1.7,5.2-0.4,7.1c-2.1,1.9-5.2,1.7-7.1-0.4c-1.9-2.1-1.7-5.2,0.4-7.1
								C635.1,610.4,638.2,610.5,640.1,612.6z"/>
							<path class="st8" d="M638.8,613.8c1.2,1.3,1.1,3.4-0.2,4.6c-1.3,1.2-3.4,1.1-4.6-0.2c-1.2-1.3-1.1-3.4,0.2-4.6
								C635.5,612.3,637.6,612.4,638.8,613.8z"/>
						</g>
					</g>
					<path class="st9" d="M543.9,504l-1.9,1.7c-3.5,3.2-3.8,8.6-0.6,12.2l30.3,33.7l-1.4,1.2L531,509.3c-3.2-3.5-8.6-3.8-12.2-0.6
						l-1.9,1.7c-2.6,2.4-3.4,5.9-2.4,9.1l207.9,230.9l26.2-23.5L635.5,601.2l-4.9,4.4l-12.1-13.4c2.2-6.9,1.8-15.8-6.5-25.1
						l-3.9-4.3c-0.2-0.4-0.5-0.7-0.8-1.1l-51.3-57C552.8,501.1,547.4,500.8,543.9,504z"/>
				</g>
			</g>
		</g>
		<g>
			<defs>
				<rect id="SVGID_3_" x="84.6" y="85.2" width="629.6" height="629.6"/>
			</defs>
			<clipPath id="SVGID_4_">
				<use xlink:href="#SVGID_3_"  style="overflow:visible;"/>
			</clipPath>
			<g class="st10">
				<g>
					<path class="st11" d="M600.1,253.8c3.3-5.1,10-6.6,15.1-3.3l0.5,0.3c5.1,3.3,6.6,10,3.3,15.1l-30.7,50.4
						c-3.3,5.1-10,6.6-15.1,3.3l-0.4-0.3c-5.1-3.3-6.6-10-3.3-15.1L600.1,253.8z"/>
					<path class="st5" d="M580.9,318.5c1.2,0.7,2.4,1.1,3.7,1.2c1.4-0.9,2.7-2,3.7-3.5l4.6-7.4c-1.1-1.1-2.7-2-4.4-3
						c-4.5-2.6-8.2-4.6-10.8-0.1C574.9,310.1,576.4,315.9,580.9,318.5z"/>
				</g>
				<path class="st12" d="M571.1,204H430.9c-9.8,0-17.8,8-17.8,17.8v50.3c3.5-2.1,7.5-3.3,11.9-3.3c12.7,0,23.1,10.3,23.1,23.1
					c0,12.7-10.3,23.1-23.1,23.1c-4.4,0-8.4-1.2-11.9-3.3v50.3c0,9.8,8,17.8,17.8,17.8h53.3c-2.4,3.3-3.7,7.4-3.7,11.8
					c0,11.3,9.1,20.4,20.4,20.4c11.3,0,20.4-9.1,20.4-20.4c0-4.4-1.4-8.4-3.7-11.8h53.5c9.8,0,17.8-8,17.8-17.8V221.8
					C588.9,211.9,580.9,204,571.1,204z"/>
				<path class="st2" d="M588.9,221.8c0-9.8-8-17.8-17.8-17.8h-3l-0.4,0.1c-0.2,0-0.4,0-0.6,0.1c-0.2,0-0.5,0.1-0.7,0.1l-74.3,19.2
					c-4.6,1.2-7.4,5.9-6.2,10.5l0.6,2.5c1.2,4.6,5.9,7.4,10.5,6.2l43.8-11.3l0.3,1l0.2,0.7l-56.7,14.6c-4.6,1.2-7.4,5.9-6.2,10.5
					l0.6,2.5c0.1,0.3,0.1,0.5,0.2,0.8c0,0.1,0.1,0.1,0.1,0.2c0.1,0.2,0.1,0.4,0.2,0.5c0,0.1,0.1,0.1,0.1,0.2
					c0.1,0.2,0.2,0.4,0.4,0.7c0,0,0.1,0.1,0.1,0.1c0.1,0.2,0.2,0.3,0.3,0.5c0.1,0.1,0.1,0.1,0.2,0.2c0.1,0.1,0.2,0.3,0.3,0.4
					c0.1,0.1,0.1,0.1,0.2,0.2c0.2,0.2,0.3,0.3,0.5,0.5c0.1,0.1,0.2,0.1,0.2,0.2c0.1,0.1,0.2,0.2,0.3,0.3c0.1,0.1,0.2,0.1,0.3,0.2
					c0.1,0.1,0.2,0.1,0.3,0.2c0.2,0.1,0.4,0.3,0.7,0.4c0.1,0,0.1,0.1,0.2,0.1c0.1,0.1,0.3,0.1,0.4,0.2c0.1,0,0.2,0.1,0.3,0.1
					c0.1,0.1,0.3,0.1,0.4,0.1c0.1,0,0.1,0,0.2,0.1c0.3,0.1,0.6,0.2,0.9,0.2c0,0,0.1,0,0.1,0l0,0c1.2,0.2,2.4,0.2,3.6-0.1l56.7-14.6
					l0.4,1.5l-66.3,17.1c-4.6,1.2-7.4,5.9-6.2,10.5l0.6,2.5c1.2,4.6,5.9,7.4,10.5,6.2l66.3-17.1l0.5,1.8l-60.4,15.6
					c-4.6,1.2-7.4,5.9-6.2,10.5l0.6,2.5c1.2,4.6,5.9,7.4,10.5,6.2l74.3-19.2h0l17.9-4.6L588.9,221.8L588.9,221.8z"/>
				<g>
					<g>
						<g>
							
								<rect x="603.6" y="189.3" transform="matrix(0.9682 -0.2501 0.2501 0.9682 -34.7081 166.7137)" class="st13" width="70" height="61.2"/>
							<path class="st11" d="M575.7,192.3c22.8-5.9,31.3,13.1,32.7,18.4l12.1,46.9c1.4,5.3-1.8,10.7-7.1,12.1L569,281.2
								c-5.3,1.4-10.7-1.8-12.1-7.1l-16.2-62.5c-1.4-5.3,1.8-10.7,7.1-12.1L575.7,192.3z"/>
							<g>
								<path class="st11" d="M568.3,260.9c4.6-1.2,9.3,1.6,10.5,6.2l0.6,2.5c1.2,4.6-1.6,9.3-6.2,10.5L499,299.3
									c-4.6,1.2-9.3-1.6-10.5-6.2l-0.6-2.5c-1.2-4.6,1.6-9.3,6.2-10.5L568.3,260.9z"/>
								<path class="st14" d="M496.4,282.1c4-1,4.9,2.1,6,6.1c1,4,1.7,7.2-2.3,8.2c-4,1-8-1.4-9-5.3
									C490.1,287.1,492.5,283.1,496.4,282.1z"/>
							</g>
							<g>
								<path class="st11" d="M557,241.4c4.6-1.2,9.3,1.6,10.5,6.2l0.6,2.5c1.2,4.6-1.6,9.3-6.2,10.5l-74.3,19.2
									c-4.6,1.2-9.3-1.6-10.5-6.2l-0.6-2.5c-1.2-4.6,1.6-9.3,6.2-10.5L557,241.4z"/>
								<path class="st14" d="M485.1,262.6c4-1,4.9,2.1,6,6.1c1,4,1.7,7.2-2.3,8.2c-4,1-8-1.4-9-5.3
									C478.8,267.6,481.1,263.6,485.1,262.6z"/>
							</g>
							<g>
								<path class="st11" d="M561.2,218.3c4.6-1.2,9.3,1.6,10.5,6.2l0.6,2.5c1.2,4.6-1.6,9.3-6.2,10.5l-74.3,19.2
									c-4.6,1.2-9.3-1.6-10.5-6.2l-0.6-2.5c-1.2-4.6,1.6-9.3,6.2-10.5L561.2,218.3z"/>
								<path class="st14" d="M489.4,239.4c4-1,4.9,2.1,6,6.1s1.7,7.2-2.3,8.2c-4,1-8-1.4-9-5.3S485.4,240.4,489.4,239.4z"/>
							</g>
							<g>
								<path class="st11" d="M568.7,194c4.6-1.2,9.3,1.6,10.5,6.2l0.6,2.5c1.2,4.6-1.6,9.3-6.2,10.5l-74.3,19.2
									c-4.6,1.2-9.3-1.6-10.5-6.2l-0.6-2.5c-1.2-4.6,1.6-9.3,6.2-10.5L568.7,194z"/>
								<path class="st14" d="M496.8,215.1c4-1,4.9,2.1,6,6.1c1,4,1.7,7.2-2.3,8.2c-4,1-8-1.4-9-5.3
									C490.5,220.2,492.9,216.2,496.8,215.1z"/>
							</g>
						</g>
						<polygon class="st15" points="780.4,145 799,216.9 635.3,259.1 622.6,209.9 640.5,202.1 620.8,202.9 616.8,187.3 						"/>
						<g>
							<path class="st7" d="M629,188.5c2.7-0.7,5.4,0.9,6.1,3.6c0.7,2.7-0.9,5.4-3.6,6.1c-2.7,0.7-5.4-0.9-6.1-3.6
								C624.7,191.9,626.3,189.2,629,188.5z"/>
							<path class="st8" d="M629.4,190.2c1.7-0.4,3.5,0.6,4,2.3c0.4,1.7-0.6,3.5-2.3,4c-1.7,0.4-3.5-0.6-4-2.3
								C626.6,192.4,627.7,190.6,629.4,190.2z"/>
						</g>
					</g>
					<path class="st9" d="M488.2,223.6l0.6,2.5c1.2,4.6,5.9,7.4,10.5,6.2l43.8-11.3l0.5,1.8L487,237.4c-4.6,1.2-7.4,5.9-6.2,10.5
						l0.6,2.5c0.9,3.4,3.7,5.8,6.9,6.3l300.9-77.7l-8.8-34.1l-163.6,42.3l1.6,6.3l-17.5,4.5c-5.1-5.1-13.2-8.9-25.2-5.8l-5.7,1.5
						c-0.4,0-0.9,0.1-1.3,0.2l-74.3,19.2C489.8,214.3,487,219,488.2,223.6z"/>
				</g>
			</g>
		</g>
		<g>
			<defs>
				<rect id="SVGID_5_" x="84.6" y="85.2" width="629.6" height="629.6"/>
			</defs>
			<clipPath id="SVGID_6_">
				<use xlink:href="#SVGID_5_"  style="overflow:visible;"/>
			</clipPath>
			<g class="st16">
				<g>
					<path class="st17" d="M205.5,565.6c-2.7,5.4-9.3,7.6-14.7,4.8l-0.5-0.2c-5.4-2.7-7.6-9.3-4.8-14.7l25.5-53.2
						c2.7-5.4,9.3-7.6,14.7-4.8l0.5,0.2c5.4,2.7,7.6,9.3,4.8,14.7L205.5,565.6z"/>
				</g>
				<path class="st18" d="M373,479.2c2.8-0.3,5.6,0,8.2,0.7l-4.7-48.4c-1-9.8-9.7-16.9-19.4-16l-53.4,5.2c2.1-3.6,3.2-7.9,2.8-12.4
					c-1.1-11.2-11.1-19.4-22.3-18.3c-11.2,1.1-19.4,11.1-18.3,22.3c0.4,4.5,2.3,8.5,5.1,11.6l-53.4,5.2c-9.8,1-16.9,9.7-16,19.4
					l13.7,139.5c1,9.8,9.7,16.9,19.4,16l139.5-13.7c9.8-1,16.9-9.7,16-19.4l-4.7-48.4c-2.4,1.2-5.1,2-7.9,2.2
					c-12.6,1.2-23.8-8-25.1-20.6C351.2,491.7,360.4,480.5,373,479.2z"/>
				<path class="st19" d="M231.1,614.4l73.8-18.8c4.6-1.2,7.4-5.9,6.2-10.5l-0.6-2.5c-1.2-4.6-5.9-7.4-10.5-6.2l-43.9,11.2l-0.3-1.2
					l-0.1-0.6l56.8-14.5c4.6-1.2,7.4-5.9,6.2-10.5l-0.6-2.5c-0.1-0.3-0.1-0.5-0.2-0.8c0-0.1-0.1-0.1-0.1-0.2
					c-0.1-0.2-0.1-0.4-0.2-0.5c0-0.1-0.1-0.1-0.1-0.2c-0.1-0.2-0.2-0.4-0.4-0.7c0,0-0.1-0.1-0.1-0.1c-0.1-0.2-0.2-0.3-0.3-0.5
					c-0.1-0.1-0.1-0.1-0.2-0.2c-0.1-0.1-0.2-0.3-0.3-0.4c-0.1-0.1-0.1-0.1-0.2-0.2c-0.2-0.2-0.3-0.3-0.5-0.5
					c-0.1-0.1-0.2-0.1-0.2-0.2c-0.1-0.1-0.2-0.2-0.3-0.3c-0.1-0.1-0.2-0.1-0.3-0.2c-0.1-0.1-0.2-0.1-0.3-0.2
					c-0.4-0.3-0.8-0.5-1.3-0.7c-0.1,0-0.2-0.1-0.2-0.1c-0.1-0.1-0.3-0.1-0.4-0.2c-0.1,0-0.1,0-0.2-0.1c-0.3-0.1-0.6-0.2-1-0.2
					c0,0,0,0-0.1,0l0,0c-1.2-0.2-2.4-0.2-3.6,0.1l-56.8,14.5l-0.4-1.5l66.4-16.9c4.6-1.2,7.4-5.9,6.2-10.5l-0.6-2.5
					c-1.2-4.6-5.9-7.4-10.5-6.2l-66.4,16.9l-0.5-1.8l60.5-15.4c4.6-1.2,7.4-5.9,6.2-10.5l-0.6-2.5c-1.2-4.6-5.9-7.4-10.5-6.2
					l-74.3,18.9h0l-16,4.1l6.5,66.2C217.6,606.7,223.6,613,231.1,614.4z"/>
				<g>
					<g>
						<g>
							
								<rect x="135.5" y="572.6" transform="matrix(0.9383 -0.3458 0.3458 0.9383 -198.0509 96.1589)" class="st20" width="70" height="61.2"/>
							<path class="st17" d="M235.9,624.4c-22.1,8.1-32.5-9.9-34.4-15.1l-16.8-45.5c-1.9-5.1,0.7-10.8,5.9-12.7l43-15.8
								c5.1-1.9,10.8,0.7,12.7,5.9l22.3,60.6c1.9,5.1-0.7,10.8-5.9,12.7L235.9,624.4z"/>
							<g>
								<path class="st17" d="M236.4,555.4c-4.5,1.6-9.4-0.6-11.1-5.1l-0.9-2.4c-1.6-4.5,0.6-9.4,5.1-11.1l72-26.5
									c4.5-1.6,9.4,0.6,11.1,5.1l0.9,2.4c1.6,4.5-0.6,9.4-5.1,11.1L236.4,555.4z"/>
								<path class="st5" d="M305.8,527.1c-3.8,1.4-5.1-1.6-6.5-5.5s-2.4-7,1.4-8.4c3.8-1.4,8.1,0.6,9.5,4.4
									C311.5,521.5,309.6,525.7,305.8,527.1z"/>
							</g>
							<g>
								<path class="st17" d="M249.6,573.6c-4.5,1.6-9.4-0.6-11.1-5.1l-0.9-2.4c-1.6-4.5,0.6-9.4,5.1-11.1l72-26.5
									c4.5-1.6,9.4,0.6,11.1,5.1l0.9,2.4c1.6,4.5-0.6,9.4-5.1,11.1L249.6,573.6z"/>
								<path class="st5" d="M319,545.4c-3.8,1.4-5.1-1.6-6.5-5.5s-2.4-7,1.4-8.4c3.8-1.4,8.1,0.6,9.5,4.4
									C324.8,539.7,322.8,544,319,545.4z"/>
							</g>
							<g>
								<path class="st17" d="M247.7,597.1c-4.5,1.6-9.4-0.6-11.1-5.1l-0.9-2.4c-1.6-4.5,0.6-9.4,5.1-11.1l72-26.5
									c4.5-1.6,9.4,0.6,11.1,5.1l0.9,2.4c1.6,4.5-0.6,9.4-5.1,11.1L247.7,597.1z"/>
								<path class="st5" d="M317.1,568.8c-3.8,1.4-5.1-1.6-6.5-5.5c-1.4-3.8-2.4-7,1.4-8.4c3.8-1.4,8.1,0.6,9.5,4.4
									C322.8,563.2,320.9,567.4,317.1,568.8z"/>
							</g>
							<g>
								<path class="st17" d="M242.7,622c-4.5,1.6-9.4-0.6-11.1-5.1l-0.9-2.4c-1.6-4.5,0.6-9.4,5.1-11.1l72-26.5
									c4.5-1.6,9.4,0.6,11.1,5.1l0.9,2.4c1.6,4.5-0.6,9.4-5.1,11.1L242.7,622z"/>
								<path class="st5" d="M312.1,593.7c-3.8,1.4-5.1-1.6-6.5-5.5c-1.4-3.8-2.4-7,1.4-8.4c3.8-1.4,8.1,0.6,9.5,4.4
									C317.9,588.1,315.9,592.3,312.1,593.7z"/>
							</g>
						</g>
						<polygon class="st21" points="36.9,691.9 11.3,622.3 169.8,563.8 187.4,611.5 170.4,621.1 189.9,618.4 195.5,633.5 						"/>
						<g>
							<path class="st7" d="M183.2,633.5c-2.6,1-5.5-0.4-6.5-3c-1-2.6,0.4-5.5,3-6.5c2.6-1,5.5,0.4,6.5,3
								C187.2,629.6,185.8,632.5,183.2,633.5z"/>
							<path class="st8" d="M182.6,631.8c-1.7,0.6-3.6-0.2-4.2-1.9s0.2-3.6,1.9-4.2s3.6,0.2,4.2,1.9S184.3,631.2,182.6,631.8z"/>
						</g>
					</g>
					<path class="st9" d="M319.8,584.4l-0.9-2.4c-1.6-4.5-6.6-6.8-11.1-5.1l-42.5,15.7l-0.6-1.7l55-20.3c4.5-1.6,6.8-6.6,5.1-11.1
						l-0.9-2.4c-1.2-3.3-4.2-5.4-7.5-5.6L24.8,658.9l12.2,33l158.6-58.4l-2.3-6.1l17-6.2c5.6,4.6,14,7.6,25.7,3.3l5.5-2
						c0.4-0.1,0.9-0.2,1.3-0.4l72-26.5C319.1,593.8,321.4,588.9,319.8,584.4z"/>
				</g>
			</g>
		</g>
		<g>
			<defs>
				<rect id="SVGID_7_" x="84.6" y="85.2" width="629.6" height="629.6"/>
			</defs>
			<clipPath id="SVGID_8_">
				<use xlink:href="#SVGID_7_"  style="overflow:visible;"/>
			</clipPath>
			<g class="st22">
				<g>
					<path class="st4" d="M194.4,209.7c-6,0.7-11.4-3.7-12.1-9.7l-0.1-0.5c-0.7-6,3.7-11.4,9.7-12.1l58.5-7.6
						c6-0.7,11.4,3.7,12.1,9.7l0.1,0.5c0.7,6-3.7,11.4-9.7,12.1L194.4,209.7z"/>
				</g>
				<path class="st23" d="M394.6,273c-4.6-0.8-9,0-12.9,1.9l9.4-53c1.7-9.7-4.7-18.9-14.4-20.6l-138-24.6
					c-9.7-1.7-18.9,4.7-20.6,14.4l-24.6,138c-1.7,9.7,4.7,18.9,14.4,20.6l50.9,9.1c-1.6-3.8-2.2-8.1-1.4-12.5
					c2.1-11.9,13.5-19.9,25.5-17.8c11.9,2.1,19.9,13.5,17.8,25.5c-0.8,4.4-2.8,8.2-5.7,11.2l50.9,9.1c9.7,1.7,18.9-4.7,20.6-14.4
					l9.4-53c2.9,3.2,6.9,5.4,11.4,6.3c11.1,2,21.7-5.4,23.7-16.5C413.1,285.6,405.7,275,394.6,273z"/>
				<path class="st2" d="M285.1,271c3.8,2.8,9.2,2.1,12.1-1.8l1.6-2.1c2.8-3.8,2.1-9.2-1.8-12.1l-61.5-45.8l0,0l-18.1-13.5
					l-16.6,93.1l32,23.9c3.8,2.8,9.2,2.1,12.1-1.8l1.6-2.1c2.8-3.8,2.1-9.2-1.8-12.1l-36.3-27.1l0.6-0.8l0.5-0.7l47,35
					c3.8,2.8,9.2,2.1,12.1-1.8l1.6-2.1c0.2-0.2,0.3-0.4,0.4-0.7c0-0.1,0.1-0.1,0.1-0.2c0.1-0.2,0.2-0.3,0.3-0.5
					c0-0.1,0.1-0.1,0.1-0.2c0.1-0.2,0.2-0.5,0.3-0.7c0,0,0-0.1,0-0.1c0.1-0.2,0.1-0.4,0.2-0.6c0-0.1,0-0.2,0.1-0.3
					c0-0.2,0.1-0.3,0.1-0.5c0-0.1,0-0.2,0-0.3c0-0.2,0.1-0.4,0.1-0.7c0-0.1,0-0.2,0-0.3c0-0.1,0-0.3,0-0.4c0-0.1,0-0.2,0-0.4
					c0-0.1,0-0.2,0-0.4c0-0.2,0-0.4-0.1-0.6c0-0.1,0-0.3-0.1-0.4c0-0.1-0.1-0.3-0.1-0.4c0-0.1,0-0.2-0.1-0.3c0-0.1-0.1-0.3-0.1-0.4
					c0-0.1-0.1-0.1-0.1-0.2c-0.1-0.3-0.2-0.6-0.4-0.8c0,0,0-0.1-0.1-0.1l0,0c-0.6-1-1.4-2-2.4-2.7l-47-35l0.9-1.2l54.9,40.9
					c3.8,2.8,9.2,2.1,12.1-1.8l1.6-2.1c2.8-3.8,2.1-9.2-1.8-12.1L234,235.2l1.1-1.5L285.1,271z"/>
				<g>
					<g>
						<g>
							
								<rect x="113.3" y="165.8" transform="matrix(0.5976 -0.8018 0.8018 0.5976 -103.1193 196.201)" class="st3" width="61.2" height="70"/>
							<path class="st4" d="M161.8,267.2c-18.9-14.1-9.4-32.6-6.1-37l29-38.9c3.3-4.4,9.5-5.3,13.9-2l36.7,27.4
								c4.4,3.3,5.3,9.5,2,13.9l-38.6,51.8c-3.3,4.4-9.5,5.3-13.9,2L161.8,267.2z"/>
							<g>
								<path class="st4" d="M219.9,230c-3.8-2.8-4.6-8.2-1.8-12.1l1.5-2.1c2.8-3.8,8.2-4.6,12.1-1.8l61.5,45.8
									c3.8,2.8,4.6,8.2,1.8,12.1l-1.6,2.1c-2.8,3.8-8.2,4.6-12.1,1.8L219.9,230z"/>
								<path class="st5" d="M281.4,272.7c-3.3-2.4-1.4-5.2,1-8.5c2.4-3.3,4.5-5.8,7.8-3.4c3.3,2.4,3.9,7.1,1.5,10.3
									C289.3,274.5,284.7,275.1,281.4,272.7z"/>
							</g>
							<g>
								<path class="st4" d="M211.8,251c-3.8-2.8-4.6-8.2-1.8-12.1l1.5-2.1c2.8-3.8,8.2-4.6,12.1-1.8l61.5,45.8
									c3.8,2.8,4.6,8.2,1.8,12.1l-1.6,2.1c-2.8,3.8-8.2,4.6-12.1,1.8L211.8,251z"/>
								<path class="st5" d="M273.3,293.8c-3.3-2.4-1.4-5.2,1-8.5c2.4-3.3,4.5-5.8,7.8-3.4c3.3,2.4,3.9,7.1,1.5,10.3
									C281.3,295.5,276.6,296.2,273.3,293.8z"/>
							</g>
							<g>
								<path class="st4" d="M191.1,262.2c-3.8-2.8-4.6-8.2-1.8-12.1l1.6-2.1c2.8-3.8,8.2-4.6,12.1-1.8l61.5,45.8
									c3.8,2.8,4.6,8.2,1.8,12.1l-1.6,2.1c-2.8,3.8-8.2,4.6-12.1,1.8L191.1,262.2z"/>
								<path class="st5" d="M252.7,304.9c-3.3-2.4-1.4-5.2,1-8.5c2.4-3.3,4.5-5.8,7.8-3.4c3.3,2.4,4,7.1,1.5,10.3
									C260.6,306.7,255.9,307.4,252.7,304.9z"/>
							</g>
							<g>
								<path class="st4" d="M167.5,271.6c-3.8-2.8-4.6-8.2-1.8-12.1l1.5-2.1c2.8-3.8,8.2-4.6,12.1-1.8l61.5,45.8
									c3.8,2.8,4.6,8.2,1.8,12.1l-1.6,2.1c-2.8,3.8-8.2,4.6-12.1,1.8L167.5,271.6z"/>
								<path class="st5" d="M229.1,314.4c-3.3-2.4-1.4-5.2,1-8.5c2.4-3.3,4.5-5.8,7.8-3.4c3.3,2.4,4,7.1,1.5,10.3
									C237,316.1,232.3,316.8,229.1,314.4z"/>
							</g>
						</g>
						<polygon class="st24" points="-3.4,137.4 41,77.8 176.5,178.8 146.1,219.6 128.8,210.6 141.8,225.4 132.2,238.4 						"/>
						<g>
							<path class="st7" d="M125.4,228.1c-2.2-1.7-2.7-4.8-1-7c1.7-2.2,4.8-2.7,7-1c2.2,1.7,2.7,4.8,1,7
								C130.8,229.3,127.7,229.7,125.4,228.1z"/>
							<path class="st8" d="M126.5,226.7c-1.4-1.1-1.7-3.1-0.7-4.6c1.1-1.4,3.1-1.7,4.6-0.7c1.4,1.1,1.7,3.1,0.7,4.6
								C130,227.5,127.9,227.7,126.5,226.7z"/>
						</g>
					</g>
					<path class="st9" d="M241.1,315.7l1.6-2.1c2.8-3.8,2.1-9.2-1.8-12.1l-36.3-27.1l1.1-1.5l47,35c3.8,2.8,9.2,2.1,12.1-1.8
						l1.6-2.1c2.1-2.8,2.2-6.5,0.6-9.4L17.7,109.1l-21,28.2l135.5,101l3.9-5.2l14.5,10.8c-0.8,7.2,1.3,15.9,11.3,23.3l4.7,3.5
						c0.3,0.3,0.6,0.6,1,0.9l61.5,45.8C232.8,320.3,238.2,319.5,241.1,315.7z"/>
				</g>
			</g>
		</g>
	</g>
</g>
<g id="Firma__x28_unir_a_object_x29_">
</g>
</svg>
