<?xml version="1.0" encoding="utf-8"?>
<!-- Generator: Adobe Illustrator 23.0.1, SVG Export Plug-In . SVG Version: 6.00 Build 0)  -->
<svg version="1.1" xmlns="http://www.w3.org/2000/svg" xmlns:xlink="http://www.w3.org/1999/xlink" x="0px" y="0px"
	 viewBox="0 0 2458.25 1316.56" style="enable-background:new 0 0 2458.25 1316.56;" xml:space="preserve">
<style type="text/css">
	.st0{fill:#EBF2F9;}
	.st1{fill:#F1A34F;}
	.st2{fill:#699DEE;}
	.st3{fill:#E69D43;}
	.st4{fill:#35488B;}
	.st5{fill:#80BDCC;}
	.st6{fill:#C65447;}
	.st7{fill:#D3782F;}
	.st8{fill:#2C3A64;}
	.st9{fill:#A16D3C;}
	.st10{fill:#935C2F;}
	.st11{fill:#4B76CB;}
	.st12{fill:#FFB07B;}
	.st13{fill:#CD928D;}
	.st14{fill:#8189DC;}
	.st15{fill:#C3E0F4;}
	.st16{fill:#82B378;}
	.st17{fill:#FFFFFF;}
	.st18{fill:#2B478B;}
	.st19{fill:#D86713;}
	.st20{fill:#ACD29A;}
	.st21{fill:#4A75CB;}
	.st22{fill:#D86714;}
	.st23{fill:#D86814;}
	.st24{fill:#D86815;}
	.st25{fill:#FEB07B;}
	.st26{fill:#375EA4;}
	.st27{fill:#E17B2C;}
	.st28{fill:#557ACE;}
	.st29{fill:#5884D2;}
	.st30{fill:#DB7224;}
	.st31{fill:#DB7223;}
	.st32{fill:#E47925;}
	.st33{fill:#2A4E96;}
	.st34{fill:#233862;}
	.st35{fill:#EA8F51;}
	.st36{fill:#CED6EB;}
	.st37{fill:#7A7E9B;}
	.st38{fill:#5F9AA8;}
	.st39{fill:#2C478B;}
	.st40{fill:#E17A2C;}
	.st41{fill:#777E9F;}
	.st42{fill:#FEB07C;}
	.st43{fill:#385EA4;}
	.st44{fill:#EBF2F8;}
	.st45{fill:#A16D3D;}
	.st46{fill:#FEFAF6;}
	.st47{fill:#609AA8;}
	.st48{fill:#EB8F51;}
	.st49{fill:#C4594D;}
	.st50{fill:#E3EFF6;}
	.st51{fill:#BADDEC;}
	.st52{fill:#E5D8CE;}
	.st53{fill:#1E3D70;}
</style>
<g id="Background">
</g>
<g id="Objects">
	<g>
		<path class="st0" d="M1152.41,188.28c3.43-0.07,5.31-2.39,7.09-4.88c26.11-36.67,56.23-69.87,89.21-100.35
			c18-16.63,37.89-31.06,59.07-43.69c30.32-18.08,62.85-29.9,97.42-36.3c8.43-1.56,17.08-2.45,25.65-2.6
			c20.98-0.36,42.02-0.9,62.95,0.18c12.82,0.66,25.71,1.51,38.54,3.11c11.8,1.48,23.62,2.82,35.44,4.29
			c22.73,2.82,45.03,7.57,67.21,12.95c41.47,10.06,81.38,24.54,119.17,44.47c24.99,13.18,48.72,28.36,70.57,46.4
			c11.26,9.3,22.7,18.46,32.72,29.04c23.1,24.4,43.39,50.92,60.21,80.18c19.71,34.28,33.64,70.74,43.15,108.92
			c5.27,21.16,8.64,42.71,11.65,64.37c5.58,40.11,3.3,80.31,3.21,120.47c-0.02,9.79-1.58,19.78-1.58,29.73
			c-1.71,5.95-7.24,4.97-11.4,5.9c-15.22,3.4-30.42,0.6-45.46-1.44c-16.99-2.3-34.46-1.69-50.89-7.71
			c-4.3-5.62-1.27-11.57-0.38-17.22c7.33-46.52,14.76-93.02,22.09-139.54c2.51-15.92-4.67-26.4-20.07-30.12
			c-82.6-12.91-165.16-26.14-247.73-39.2c-31.26-4.95-62.5-9.97-93.76-14.88c-20.94-3.29-30.77,3.39-34.44,24.41
			c-4.87,27.89-9.04,55.9-13.31,83.89c-1.89,12.4,1.11,16.67,13.14,20.67c13.74,5.05,26.36-2.7,39.58-3.51
			c33.54,4.45,61.37,36.28,61.08,69.81c-0.31,35.3-28.24,67.14-62.36,71.03c-8.42,0.96-16.62,0.16-24.36-3.62
			c-7.28-3.72-14.7-7.15-20.81-12.88c-3.98-3.73-9.24-4.72-14.59-4.98c-12.07,0.61-13.92,2.15-15.68,13.47
			c-4.82,30.91-10.09,61.75-14.69,92.69c-2.68,17.99,4.76,28.79,22.94,31.89c25.59,4.36,51.29,8.05,76.9,12.27
			c0.99,0.16,1.98,0.28,2.96,0.45c25.31,4.27,28.02,9.98,16.74,32.93c-18.93,38.52,0.69,88.7,48.36,96.62
			c4.59,0.76,9.15,1.79,13.83,1.94c29.01,3.27,51.65-7.39,67.34-31.81c9.79-15.24,12.29-32.09,7.93-49.89
			c-2.08-8.51-2.43-16.74,7.05-21.63c11.13-2.75,21.83,0.99,32.58,2.56c23.06,3.35,45.99,7.59,69.1,10.68
			c19.53,0.68,26.61-5.02,29.9-23.99c3.3-19,6.33-38.04,9.3-57.1c0.66-4.23,0.97-8.74,5.45-11.16c4-1.45,7.92-0.25,11.81,0.49
			c27.47,5.26,54.99,10.2,82.96,12c3.37,0.22,6.64,0.79,9.05,3.51c2.97,5.64,0.37,11.1-0.81,16.49
			c-4.85,22.11-11.45,43.79-16.8,65.78c-6.03,24.82-8.19,49.93-4.21,75.23c5.38,34.16,23.36,60.27,51.96,79.46
			c5.99,4.02,13.29,6.45,17.35,13.08c4.87,14.18,2.45,29.21,5.2,43.65c1.35,21.91,3.29,43.78,5,65.66
			c2.45,31.51,4.67,63.03,7.2,94.53c4,49.75,5.61,99.67,10.52,149.35c0.52,5.31,1.67,10.53,3.08,15.67
			c1.16,10.38-6.36,15.33-13.33,20.1c-7.93,5.43-17.05,8.57-26.46,10.48c-4.29,0.87-8.15,2.43-11.84,4.66
			c-18.13,3.86-36.4,2.07-54.63,1.31c-11.06-6.08-19.54-15.63-30.46-22.13c-16.97-10.1-34.92-17.62-53.38-24.25
			c-4.58-1.65-9.89-2.28-12.38-7.49c-1.82-10.12-1.68-20.24-0.15-30.36c2.2-5.2,7.31-6.62,11.8-8.52
			c25.16-10.6,49.87-22.39,76.44-29.4c7.86-2.07,14.7-6.33,20.6-11.88c9.01-8.47,11.15-20.75,5.68-31.05
			c-5.24-9.86-16.09-14.68-28.03-12.43c-8.34,1.57-15.77,5.28-22.79,9.87c-17.62,11.53-33.52,25.19-49.2,39.19
			c-3.72,3.32-7.01,9.92-13.99,4.99c-2.21-6.87-1.6-13.81-0.63-20.76c6.54-12.15,18.63-18.7,28.34-27.61
			c24.53-22.5,49.26-44.72,68.14-72.5c3.58-5.27,6.67-10.78,8.13-17.03c1.33-5.7,1.82-11.57-3.08-15.79
			c-4.88-4.21-10.67-2.82-16.1-0.81c-4.71,1.74-8.86,4.49-12.84,7.59c-23.17,18.01-40.14,41.55-57.76,64.51
			c-2.63,3.43-4.96,7.13-8.14,10.09c-2.69,2.5-5.26,2.96-6.75-1.37c-1.36-5.25-0.93-10.59-0.94-15.89
			c-0.05-49.51-0.03-99.02-0.02-148.53c0-13.77-4.12-24.86-18.18-30c-3.72-1.74-7.67-1.99-11.71-1.96
			c-32.66,0.29-65.32,0.05-97.98,0.14c-3.33,0.01-6.68-0.01-9.96,0.67c-10.99,2.29-15.7,10.3-11.57,20.79
			c3.68,9.35,6.95,18.73,8.17,28.75c4.62,37.98-32.95,79.33-66.72,75.55c-40.91-4.99-74.22-58.95-48.41-103.73
			c7.22-12.52,6.28-15.69-3.27-21.13c-6.91-2.03-13.91-0.6-20.85-0.63c-29.58-0.12-59.16-0.05-88.74-0.05
			c-3.32,0-6.65-0.09-9.97,0.15c-18.3,1.33-26.49,9.74-26.63,27.92c-0.22,28.58,0.08,57.16-0.16,85.74
			c-0.05,6.54,0.43,13.68-7.52,16.87c-10.77-0.65-21.24-4.58-32.21-3c-17.93-1.26-34.76,1.02-50.28,11.6
			c-35.55,24.23-38.47,78.51-5.38,105.99c15.06,12.5,32.15,18.18,51.63,16.88c12.29,1.72,24.02-3.02,36.17-3.03
			c4.82,1.49,7.01,5.38,7.11,9.8c0.54,23.45,2.12,46.93-0.84,70.33c-1.66,3.13-4.5,2.77-6.87,1.61
			c-24.39-12-50.65-14.86-77.26-16.09c-5.29-2.1-6.68-7.09-8.51-11.69c-10.46-26.29-21.13-52.46-36.73-76.31
			c-6.6-10.08-13.82-19.52-22.65-27.75c-3.62-3.38-7.5-6.65-9.6-11.37c-11.02-45.55-20.63-91.42-30.74-137.17
			c-6.89-31.15-13.76-62.31-20.66-93.46c-0.79-3.57-1.66-7.13-2.13-10.76c-1.15-8.97,0.82-11.39,9.88-12.05
			c4.31-0.31,8.64,0.02,12.96-0.19c9.43-0.47,11.35-2.5,11.8-12.17c0.76-16.4-1.56-19.02-17.92-20.16c-2.99-0.21-6-0.22-8.58-2.04
			c3.04-12.62-6.89-12.14-14.36-14.14c-16.97-6.35-32.77-14.05-38.86-33.16c-2.75-43.47-7.17-86.8-9.89-130.24
			c-0.82-13.15-3.19-26.4-1.22-39.68c3.96-5.81,9.39-3.73,14.41-2.36c37.57,10.2,59.87,48.75,50.14,86.5
			c-0.58,2.26-1.38,4.45-2.02,6.69c-2.95,10.41,0.82,15.75,11.76,16.76c3.36,0.31,6.64,0.03,9.82-1.16
			c30.51-6.25,60.87-13.17,91.3-19.79c24.29-3.8,31.43-13.77,26.47-37.88c-5.63-27.37-11.63-54.65-17.51-81.97
			c-1.54-7.14-1.7-13.94,4.65-19.17c6.46-3.4,13.05-0.07,19.58-0.34c4.28-0.18,8.62,0.96,12.84-0.55c3.91-1,8.07-0.55,11.9-2.02
			c30.99-7.58,50.9-34.03,51.43-65.39c0.53-31.44-24.43-60.31-55.83-66.18c-1.96-0.37-3.95-0.51-5.9-0.99
			c-16.81-2.49-32.75,0.14-48.01,7.6c-4.94,2.41-9.25,6.57-15.34,6.25c-6.25-1.85-7.27-7.35-8.33-12.52
			c-5.65-27.38-12.38-54.53-17.47-82.01c-2.48-13.39-8.3-22.89-21.43-27.29c-4.62-4.02-8.26-8.95-12.43-13.4
			c-6.03-8.3-15.59-11.04-24.23-15.07c-12.64-5.89-25.64-10.98-38.04-17.42c-5.19-2.7-9.38-6.22-11.6-11.79
			c-8.84-22.23-16.07-45.05-24.42-67.46C1151.34,192.77,1150.69,190.41,1152.41,188.28z"/>
		<path class="st0" d="M288.1,1314.07c-7.75-8.65-15.35-17.45-23.29-25.92c-12.48-13.32-23.87-27.57-35.78-41.37
			c-12.58-14.57-24.52-29.64-36.25-44.87c-21.27-27.6-41.89-55.7-60.83-84.95c-16.79-25.92-32.61-52.44-47.53-79.53
			c-23.82-43.23-43.7-88.14-59.13-134.97c-8.71-26.44-15.23-53.49-19.51-81.09c-3.31-21.33-5.51-42.66-5.75-64.24
			c-0.43-39.2,5.39-77.36,18.9-114.16c11.63-31.68,27.49-61.03,48.72-87.57c12.93-16.17,26.91-31.25,41.93-45.34
			c14.99-14.05,30.8-27.27,47.59-39.17c18.99-13.46,38.58-26.01,59.69-35.91c27.77-13.02,56.6-22.66,87.15-26.81
			c14.12-1.92,28.27-4.04,42.49-3.68c22.84,0.57,45.56,2.96,67.94,7.89c23.04,5.07,45.61,11.66,67.39,20.8
			c2.24,0.94,4.48,1.16,6.82,1.07c8.66,6.02,13.96,14.9,18.46,23.9c3.86,7.72-0.26,14.7-10.37,18.15
			c-17.3,5.9-34.76,11.39-52.27,16.65c-12.11,3.64-24.13,7.55-36.02,11.8c-15.97,5.71-21.54,15.59-16.92,31.84
			c10.2,35.82,22.04,71.14,33.29,106.64c1.49,4.71,3.88,9.27,2.99,14.49c-0.45,1.55-1.3,2.78-2.84,3.42
			c-4.92,0.54-6.6-3.65-9.21-6.42c-11.2-11.87-23.39-22.29-39.39-27.22c-7.24-4.67-3.6-12.81-6.11-18.99
			c-0.67-3.11-0.86-6.25-0.73-9.41c-0.09-6.27,4.11-9.45,8.9-12.08c6.22-3.41,7.64-8.34,5.98-15.07
			c-3.88-15.71-11.69-29.48-20.23-42.97c-2.29-3.62-5.52-6.66-6.86-10.88c1.1-7.46,7.35-13.38,5.88-21.75
			c-1.57-8.96-2.53-9.84-10.73-6.77c-5.35,2.01-10.77,2.69-16.6,2.06c-13.78-1.47-27.11,1.07-39.96,6.08
			c-7.03,2.74-12.17,7.82-16.57,13.88c-2.86,3.93-6.23,5.88-9.11-1.69c3.74,11.64,3.53,21.5-4.49,30.03
			c-0.35,0.73-1.02,1.19-1.61,1.73c1.52,1.09,0.85-0.66,1.07-0.97c0.78-1.07,0.01,0.57,0.71-0.6c3.34-1.66,4.95,0.26,6.01,2.98
			c1.08,2.77,1.7,5.72,2.17,8.63c2.62,16.04,12.5,24.82,27.84,28.4c5.46,1.27,10.97,2.46,16.14,4.71c4,1.74,7.64,3.94,9.59,8.14
			c2.54,11.55-1.21,21.85-6.3,31.89c-20.17,21.32-27.13,47.65-28.51,75.97c-2.29,47.16,9.48,91.85,24.42,135.93
			c8.34,24.62,17.88,48.76,30.57,71.55c5.56,30.35,21.88,55.45,39.2,80.01c15.16,21.5,32.22,41.55,48.36,62.3
			c15.81,20.32,22.32,41.85,17.69,67.93c-6.27,35.35-8.48,71.26-8.39,107.25c0.03,10.94-2.23,21.78-2.04,32.83
			c0.14,8.43,0.53,16.54,5.09,23.92c-1.17,10.07-0.24,20.17-0.44,30.27c-4.73,6.21-11.15,4.19-17.28,3.57
			c-11.17-9.01-24.13-13.62-38.24-15.37c-5.54-0.69-8.9-3.81-10.78-9.04c-8.14-22.55-17.22-44.73-27.53-66.37
			c-12.77-26.78-26.08-53.28-48.49-73.76c-4.45-4.07-8.92-7.98-15.29-8.79c-12.32-1.57-17.09,3.35-14.23,15.43
			c2.33,9.82,7.32,18.58,12.58,27.06c16.92,27.22,37.3,51.82,57.96,76.22c7.74,9.14,16.18,17.67,23.36,27.28
			c2.1,2.81,5.87,5.95,2.28,9.47c-3.41,3.35-8.08,2.59-12.07,0.2c-3.58-2.14-5.07-6.08-7.24-9.4
			c-9.69-14.82-20.79-27.81-39.52-31.14c-0.65-0.12-1.29-0.33-1.95-0.42c-5.28-0.77-11.9-2.47-14.71,2.7
			c-3.2,5.89,3.51,9.11,7.1,12.63c9.34,9.17,20.94,15.27,31.59,22.67c8.21,5.71,8.23,8-0.56,13.2c-4.27,2.53-7.82,6.3-12.82,7.64
			C310.25,1316.7,298.79,1320.36,288.1,1314.07z"/>
		<path class="st1" d="M1309.84,440.84c1.77-0.85,3.69-1.47,5.27-2.57c17.1-11.94,36.48-14.21,56.58-13.43
			c0.87,0.03,1.7,0.84,2.55,1.29c19.08,6.36,35.07,16.58,44.99,34.88c20.96,38.66,3.46,85.72-37.73,101.07
			c-3.09,0.79-6.66-0.25-9.27,2.41c-6.58,3.2-13.39,0.47-20.05,0.47c-3.87,0-7.84-0.52-11.79-0.37
			c-12.33,3.05-14.46,5.88-11.95,18.11c5.97,29,12.53,57.88,18.73,86.83c3.79,17.72-4.8,30.83-22.44,34.38
			c-29.27,6.13-58.41,12.84-87.73,18.77c-1.05,0.21-2.8-0.2-2.83,1.81c-5.04,2.77-10.34,1.85-15.44,0.63
			c-9.2-2.2-12.53-8.26-8.97-17.19c4.03-10.11,4.77-20.48,4.62-31.16c-0.42-28.75-28.42-61.77-62.07-62.51
			c-2.12,2.02-4.74,2.68-7.56,2.77c-24.36-0.53-42.03,11-54.31,31.14c-13.24,21.71-13.34,44.09-1.4,66.51
			c1.88,3.53,4.37,6.69,6.47,10.09c10.1,16.32,5.21,28.1-13.45,32.44c-29.28,6.71-58.73,12.6-88.05,19.11
			c-8.71,1.68-16.92,0.62-24.44-4.37c-7.31-5.49-10.73-13.13-12.56-21.87c-4.85-23.03-9.53-46.09-15-68.99
			c-0.55-3.2-0.84-6.45-1.94-9.54c-8.91-41.87-17.98-83.71-27-125.55c-0.98-4.56-2.17-9.06-0.72-13.72
			c-2.27-18.83-7.47-37.07-11.2-55.61c-3.72-18.55-7.63-37.06-11.84-55.5c-2.98-13.04,5.35-27.67,19.98-30.7
			c16.26-3.37,32.49-6.87,48.73-10.31c4.47,1.04,5.67,5.18,7.98,8.3c3.1,4.18,6.09,10.08,12.34,7.38c5.32-2.3,4.62-8.08,3.84-13.19
			c-0.47-3.11-2.36-6.41,0.57-9.36c1.82-1.08,3.83-1.44,5.91-1.61c18.09-2.66,35.81-7.12,53.59-11.25
			c29.81-6.72,60.02-11.71,89.43-20.18c34.61-8.51,69.32-16.59,104.56-22.08c4.85,0.64,7.05,4.13,8.82,8.17
			c1.99,4.53,4.13,9.62,9.91,9.5c5.44-0.11,5.03-6.04,7.16-9.43c0.71-1.14,1.47-2.12,2.8-2.54c7.83,3.72,10.03,10.99,11.69,18.58
			c6.21,28.25,12.25,56.53,18.19,84.83C1296.54,435.45,1299.82,441.84,1309.84,440.84z"/>
		<path class="st0" d="M912.33,532.25c3.97,10.58,5.37,21.78,7.78,32.73c7.06,32.1,13.72,64.29,20.73,96.4
			c0.79,3.6,1.26,7.19,1.72,10.81c0.86,2.94,0.27,5.97,0.58,8.94c1.24,5.55,1.05,11.09,0.6,16.75c-1.95,24.05-2.58,48.19-4.51,72.26
			c-0.55,6.9-0.41,13.9,0.78,20.79c1.83,8.74-2.1,16.59-3.84,24.78c-2.16,5.14,0.03,10.66-1.35,15.88
			c-3.74,4.64-9.05,3.28-13.88,3.54c-3.98,0.22-7.98,0.01-11.96,0.06c-15.81,0.21-22.02,8.99-17.24,24.17
			c1.77,5.61,5.76,7.8,11.26,8.01c6.65,0.25,13.3-0.04,19.94,0.17c11.69,0.36,13.63,2.48,11.1,13.93
			c-6.68,30.18-12.84,60.48-19.96,90.56c-3.9,16.44-5.82,33.38-12.13,49.22c-5.81,4.29-8.42-1.37-11.44-4.14
			c-11.55-10.61-23.49-20.69-36.98-28.73c-22.58-13.46-46.47-17.56-71.81-8.92c-17.06,5.82-21.66,16.03-14.51,32.57
			c4.01,9.27,10.49,16.95,17.37,24.22c24.74,26.15,51.83,49.73,79.61,72.56c5.14,4.23,10.26,8.49,14.01,14.12
			c1.8,4.27,0.73,8.55-0.15,12.74c-7.83,37.01-16.2,73.91-24.55,110.81c-1.04,4.59-2,9.29-7.81,10.29
			c-12.87,1.67-25.03-2.08-37.13-5.34c-32.85-8.87-66.09-13.77-100.21-12.26c-6.61,0.29-13.15,1.68-19.79,1.15
			c-5.12-1.18-7.26-5.54-9.64-9.46c-27.91-46.01-54.69-92.66-80.34-139.97c-7.28-13.42-14.55-26.86-22.14-40.12
			c-25.04-47.89-50.74-95.44-74.82-143.84c-2.06-4.13-4.65-8.08-5.24-12.83c2.7-6.46,1.13-13.69,3.65-20.19
			c20.74,5.72,38.55-5.49,57.52-9.97c3.85-0.91,7.51-2.54,11.41-3.32c4.09-0.18,8.14-0.01,12.06,1.38
			c12.87,10.53,25.6,2.75,38.27-0.48c3.17-0.81,3.77-4.24,4.05-7.3c0.33-3.56-0.09-7.29,2.25-10.43
			c9.33-5.39,19.81-7.73,29.92-10.93c67.31-21.29,134.81-42.01,201.82-64.23c12.32-5.08,18.05-15.58,14.82-28.76
			c-4.26-17.42-10.81-34.16-15.84-51.37c-3.45-11.78-7.7-23.32-11.04-35.15c-2.66-9.42-8.44-14.86-18.73-14.31
			c-1.43,0.1-2.78,0.53-4.12,1.01c-0.87,0.42-1.76,0.77-2.65,1.14c-8.16,2.61-13.43,9.41-20.22,14c-8.15,5.51-16.77,9.03-26.57,9.74
			c-54.48,3.68-86.95-57.98-65.05-105.04c1.63-3.51,3.12-7.5,7.98-7.91c0.21,4.22,3.7,5.25,6.67,6.54
			c21.03,9.14,42.42,16.68,65.36,20.11c30.44,4.55,57.45-3.57,83.77-17.86C886.47,552.78,899.01,542.05,912.33,532.25z"/>
		<path class="st2" d="M773.91,662.74c13.54-1.94,24.74-8.42,34.26-17.95c3.42-3.43,7.49-5.18,12.05-6.17
			c11.67,0.11,15.01,2.23,18.89,13.51c10.06,29.25,19.26,58.78,28.02,88.44c3.43,11.62,1.68,22.41-8.95,30.21
			c-14.27,6.23-29.33,10.21-44.09,14.99c-35.3,11.42-70.79,22.26-106.17,33.45c-27.16,8.6-54.27,17.37-81.4,26.07
			c-2.41,0.98-4.76,0.45-6.56-1.1c-7.95-6.88-17.27-7.74-27.13-6.56c-18.16-12.37-34.52-27.03-51.53-40.87
			c-27.88-22.68-56.71-44.14-84.86-66.48c-8.63-6.85-15.02-14.71-17.95-25.56c-3.54-13.15-7.19-26.33-13.18-38.67
			c-1.01-2.75,2.45-4.98,0.9-7.8c-5.01-16.48-9.92-33-15.04-49.45c-7.4-23.75-15.19-47.37-22.35-71.18
			c-5.31-17.66,1.09-29.73,18.64-35.49c28.66-9.41,57.45-18.44,86.18-27.62c0.95-0.3,1.94-0.48,2.87-0.83
			c10.69-3.95,13.04-11.38,5.62-19.82c-5.31-6.05-9.39-12.8-13.5-19.6c-3.05-9.81-5.16-19.64-4.93-30.12
			c0.58-26.51,18.96-53.74,43.75-63.25c6.13-2.35,12.51-4.06,18.78-6.07c8.73,1.65,17.45-0.98,26.47,1.45
			c29.2,7.87,51.53,35.16,52.01,65.27c0.06,3.64-0.05,7.29,0.04,10.93c0.29,11.41,1.94,13.17,13.87,14.91
			c2.46-0.21,5.01,0.55,7.36-0.73c30.04-9.38,60.07-18.76,90.11-28.15c15.8-0.31,24.31,4.5,29.35,19.66
			c10.57,31.81,20.67,63.79,30.18,95.94c1.47,4.96,1,9.85-1.15,14.57c-5.69,3.29-11.35,4.16-18.02,2.29
			c-10.28-2.88-20.81-3.59-31.53-1.06c-6.45,1.52-10.92,6.27-16.84,8.45c-23.6,14.07-36.63,34.49-35.28,62.31
			c1.27,26.23,14.68,45.29,38.54,56.05C744.7,662.73,758.88,666.76,773.91,662.74z"/>
		<path class="st0" d="M2178.39,962.33c4.67,3.56,10.41,4.47,15.84,5.61c40.01,8.44,79.16,19.68,117.04,35.12
			c26.6,10.84,51.66,24.75,73.46,43.37c32.65,27.89,55.17,62.6,65.25,104.85c5.41,22.66,8.41,45.5,8.25,68.87
			c-0.12,17.95-0.43,35.87-2.34,53.7c-1.12,10.49-3.44,20.85-5.1,31.28c-0.47,2.94-0.5,5.94-0.74,8.91
			c-2.63,3.22-6.4,3.37-10.03,3.38c-62.14,0.15-124.28,0.38-186.43-0.1c-1.33-0.01-2.64-0.3-3.91-0.6
			c-4.22-1.03-4.65-3.82-3.72-7.55c2.39-9.71,5.82-18.73,12.87-26.28c11.26-12.08,11.21-16.34,0.98-29.85
			c-2.18-2.87-4.87-5.44-5.3-9.31c-7.9-71.22-18-142-42.43-209.87c-3.63-10.08-8.8-19.35-15.17-28
			c-7.95-10.79-13.79-22.75-18.58-35.22C2177.29,967.93,2175.7,965.08,2178.39,962.33z"/>
		<path class="st3" d="M1954.07,662.05c-8.23-3.31-17.07-1.99-25.59-3.06c-25.72-3.24-51.21-7.62-76.62-12.66
			c-0.64-0.13-1.33-0.06-1.99-0.08c-3.63,0.24-4.47-2.59-5.62-5.09c-1.23-6.8-1.75-13.53,1.95-19.85c2.26-3.01,5.37-4.6,8.98-5.35
			c35.28-1.95,70.5-4.65,105.66-7.88c5.02-0.27,9.21-2.73,13.42-5.34c-3.4-0.08-6.8,0.33-10.23,0.38
			c-7.43-0.85-15.48,2.61-22.16-3.21c1.04-5.3,5.55-3.85,8.73-4.05c7.64-0.49,15.31-0.08,22.97-0.2
			c13.86-0.21,22.44-6.36,26.81-19.48c5-15.02,12.02-28.82,23.37-40.13c6.49-3.79,11.38-9.49,17.03-14.28
			c3.2-2.72,5.92-6.18,10.78-5.67c17.08-1.2,32.79-6.69,47.68-14.96c3.44-1.91,7.28-3.14,11.38-3
			c20.35,17.06,27.65,40.83,33.19,65.33c3.87,17.15,5.48,34.62,6.88,52.18c1.21,15.29,1.94,30.62,0.79,45.73
			c-1.85,24.25-1.7,48.46-1.58,72.69c0.11,21.54,1.31,43.05,3.77,64.47c0.6,5.23-0.3,9.91-4.35,13.63
			c-3.57,5.86-9.87,7.61-15.57,10.1c-35.21,15.42-71.9,20.36-109.97,15.28c-2.63-0.35-5.29-0.42-7.95-0.47
			c-7.68-0.73-15.37-1.43-22.9-3.27c-4.03-2.08-5.2-5.77-5.67-9.92c-3.53-31.58-1.49-63.13,0.59-94.65
			c1.23-4.62,5.38-5.49,9.08-6.84c49.44-18.05,79.34-55.28,99.84-101.73c0.28-0.63,0.25-1.31-0.39-3.83
			c-34.75,17.07-71.19,29.47-105.12,47.69c-4.14-2.1-8.31-0.51-12.52-0.29C1970.46,664.69,1961.86,667.47,1954.07,662.05z"/>
		<path class="st4" d="M2015.98,834.45c10.91,0.69,21.81,1.63,32.74,2.02c32.58,1.15,63.08-7.25,92.46-20.58
			c2.72-1.23,5.44-2.46,8.15-3.7c1.72,21.76,3.97,43.47,5.38,65.28c1.22,18.85,6.97,37.06,12.76,55.04
			c3.25,10.07,6.04,20.33,10.93,29.81c4.59,13.93,10.2,27.57,19.02,39.23c13.34,17.64,20.56,37.82,26.67,58.53
			c12.31,41.75,20.06,84.48,26.29,127.5c2.28,15.74,4.08,31.55,6.63,47.24c0.58,3.59,0.11,6.46-1.23,9.51
			c-3.73,5.95-9.79,9.12-15.77,11.72c-8.5,3.69-12.25,9.2-11.49,18.56c0.34,4.18,1.8,9.59-3.96,12.15
			c-3.61-2.56-3.21-6.55-2.88-10.02c0.88-9.17-2.7-16.55-7.23-24.23c-38.2-64.78-75.9-129.85-107.85-198.04
			c-12.65-31.4-27.61-61.79-40.86-92.94c-16.63-39.1-33.3-78.19-48.96-117.69C2015.6,840.87,2013.58,837.8,2015.98,834.45z"/>
		<path class="st5" d="M1132.3,342.45c-7.19,4.7-15.73,4.7-23.7,6.44c-22.04,4.82-43.95,10.32-66.27,13.81
			c-7.07-1.54-4.43-7.1-4.05-11.06c1.2-12.48,4.05-24.85,3.08-37.47c-1.84-24.09-14.31-41.82-33.81-55.12
			c-5.26,2.22-8.83,6.71-13.34,9.93c-5.86,5.91-12.57,10.83-18.71,16.42c-6.63,6.03-8.75,12.29-6.65,21.19
			c3.88,16.47,6.95,33.14,10.5,49.7c1.11,5.16,2.47,10.48-1.28,15.31c-7.02,4.69-14.13,8.4-22.08,1.83
			c-12.63-14.27-19.44-31.66-26.06-49.1c-3.54-9.31-6.4-18.82-8.62-28.6c-1.83-8.04-0.9-14.99,2.88-22.07
			c10.52-19.74,23.67-37.79,35.86-56.45c5.44-8.33,10.98-16.61,16.47-24.91c0.95-2.29,2.1-4.48,3.24-6.69
			c9.49-18.8,23.42-31.78,45.2-34.31c11.41-1.32,22.7-4.24,34.34-2.74c7.48,2.73,14.13,7.36,21.79,9.71
			c7.4,2.28,14.42,2.66,19.97-4.11c0.8-0.57,1.69-0.93,2.64-1.14c7.54,0.92,15.07,1.92,21.72,6.08c0.92,1.97,2.6,2.82,4.61,3.41
			c10.83,3.18,17.34,10.51,20.31,21.26c0.43,1.57,1.37,3,2.08,4.5c8.46,23.38,17.17,46.67,25.22,70.18
			c2.37,6.93,6.35,11.23,12.8,14.14c17.54,7.91,34.99,16.03,52.42,24.18c4.18,1.95,8.67,3.84,9.33,9.39
			c-0.24,8.39-6.51,10.31-12.93,12.08c-8.59-0.19-17.23-0.04-25.27-3.83c-11.26-10.29-24.91-16.47-38.93-21.68
			c-10.5-3.9-17.06-10.45-20.59-21.12c-2.7-8.17-5.24-16.47-8.88-24.32c-0.84-1.81-1.97-4.01-4.22-3.56
			c-2.26,0.45-2.26,2.97-2.53,4.93c-0.91,6.64,0.98,13.24,0.3,19.89c-3.53,20.37-4.73,40.88-4.09,61.51
			C1135.18,334.39,1135.22,338.78,1132.3,342.45z"/>
		<path class="st6" d="M1125.4,159.11c-7.42-0.06-14.29-2.53-21.19-4.88c-4.52-3.73-5.51-8.28-3.17-13.6
			c10.88-4.83,16.07-14.05,19.5-24.84c1.76-5.54,2.73-10.81,0.45-16.47c-2.67-6.62-0.61-13.9-2.44-20.66
			c-0.76-2.82-1.26-6.39-4.57-7.17c-3.1-0.73-4.25,2.61-5.87,4.56c-9.6,11.59-20.48,20.85-36.64,21.03
			c-5.97,0.07-6.67,4.27-6.73,8.96c-0.13,9.64,2.99,19.07,1.88,28.75c-0.67,5.79-0.03,12.23-6.72,15.42
			c-12.57,0.45-25.06,1.69-37.41,4.14c-13.78,2.73-25.77,8.24-33.34,21c-2.69,4.54-6.13,8.64-9.23,12.93
			c-1.85,0.38-2.79-0.15-2.2-2.21c1.84-13.28,9.47-23.17,20.76-28.92c22.48-11.44,30.35-29.51,30-53.82
			c-0.28-19.12,4.57-37.65,15.54-53.83c10.11-14.92,21.43-19,38.78-14.54c3.28,0.84,6.31,1.48,9.75,0.8
			c11.29-2.22,25.66,4.82,30.66,15c1.46,2.97,2.45,6.1,4.82,8.63c5.37,5.71,7.5,12.8,6.24,20.33c-1.84,10.92-0.32,21.77-0.37,32.64
			C1133.8,128.52,1131.65,144.15,1125.4,159.11z"/>
		<path class="st7" d="M2023.76,536.07c1.34,1.03,1.24,2.13,0.18,3.3c-10.86,12.01-17.98,25.95-22.02,41.62
			c-2.11,8.21-14.58,17.1-23.33,17.22c-12.27,0.17-24.55,0.29-36.82,0.43c-3.12,2.79-6.88,2.45-10.41,1.6
			c-23.38-5.66-45.77-14.02-67.12-25.12c-1.48-0.77-2.68-1.96-3.52-3.46c-1.59-11.16-0.78-21.87,5.86-31.5
			c20.46,2.31,40.95,4.36,61.36,7.02c15.62,2.04,31,2.47,46.15-2.62c13.87-1.01,27.24-4.89,40.89-7.13
			C2017.9,536.96,2020.83,536.53,2023.76,536.07z"/>
		<path class="st8" d="M2036.19,408.24c-1.76-1.98-3.67-3.85-5.27-5.95c-7.43-9.76-8.96-20.38-4.59-31.9
			c1.24-3.27,2.97-4.84,6.7-4.04c13.9,2.97,27.56,1.34,41.33-1.62c9.78-2.1,19.73-1.37,29.61,1.14c9.67,2.45,16.2,9.03,21.77,16.27
			c5.1,6.63,5.39,14.79,2.2,22.79c-6.9,17.32-15.53,33.72-26.1,49.09c-11.97-4.63-5.95-13.97-5.65-22.69
			c-10.31,2.51-13.16-3.04-13.14-12.07c0.01-5.12-3.44-7.69-8.42-7.99c-6.96-0.41-13.9-0.4-20.83,0.8
			C2047.48,413.17,2041.19,413.52,2036.19,408.24z"/>
		<path class="st9" d="M2036.19,408.24c9.16,3.47,18.36,0.35,27.54,0.17c1.33-0.03,2.66-0.19,3.99-0.23
			c16.95-0.54,16.96-0.54,18.21,16.31c0.47,6.31,1.88,7.01,7.17,3.48c0.82-0.55,1.51-1.3,2.26-1.95c1.11-0.96,2.64-1.41,3.59-0.49
			c0.81,0.78,1.23,2.43,1.11,3.62c-0.24,2.28-0.7,4.63-1.6,6.73c-2.95,6.88-1.84,12.87,3.39,18.15c1.02,5.48-4.35,9.12-4.15,14.36
			c-9.92,11.07-31.06,16.87-43.73,11.99c-1.74-1.88-4-2.2-6.36-1.98c-6.62,0.62-9.67-3.36-11.15-8.92
			c-3.39-12.79-5.3-25.95-3.62-39.01C2033.79,423.08,2032.22,415.18,2036.19,408.24z"/>
		<path class="st10" d="M2053.97,480.37c15.57-0.36,30.33-3.69,43.73-11.99c3.2,10.4,7.06,20.52,12.92,29.77
			c-15.25,6.86-29.16,16.75-46.52,18.85c-4.55,0.55-8.38-0.34-12.53-0.88c4.58-2.9,5.3-7.13,4.12-12.01
			C2053.79,496.29,2053.46,488.36,2053.97,480.37z"/>
		<path class="st11" d="M773.91,662.74c-18.2,8.29-35.01,1.67-50.23-7c-35.2-20.05-44.2-64.58-21.4-97.61
			c5.49-7.95,12.55-14.62,20.82-19.86c1.78-1.13,3.36-2.33,4.99,0.08c-4.36,4.28-9.31,8.03-12.17,13.64
			c-19.05,23.77-15.03,65.66,5.71,88.47C735.79,656.03,753.14,663.16,773.91,662.74z"/>
		<path class="st11" d="M794.47,528.67c0.18-14.44-5.66-27.48-9.7-40.91c-6.31-20.97-12.95-41.85-19.46-62.76
			c-1.58-5.09-3.17-10.29-6.42-14.53c-4.55-5.94-9.95-10.86-18.32-10.23c-1.73,0.13-3.28-0.37-4.47-1.74
			c13.21-6.96,31.86,0,37.05,17.18c9.67,31.96,20.14,63.67,30.14,95.53C806.21,520.46,803.58,525.29,794.47,528.67z"/>
		<path class="st11" d="M640.13,428.34c-11.73,3.75-17.79-0.67-18.1-12.77c-0.23-9.26,0.95-18.51-1.61-27.78
			c-8.39-30.5-33.88-50.37-64.58-51.51c-3.23-0.12-6.72,1.06-9.61-1.45c20.87-5.1,40.15-1.35,57.48,11.13
			c18.69,13.46,28.32,31.94,28.64,55.09c0.05,3.32,0.43,6.72-0.17,9.93c-1.36,7.33,1.56,12.18,7.8,15.53
			c0.7,0.36,0.96,0.75,0.77,1.18C640.56,428.12,640.35,428.34,640.13,428.34z"/>
		<path class="st12" d="M955.99,373.45c7.89,2.1,15.04-0.29,22.03-3.64c3.07,0.1,5.07,1.12,4.06,4.73
			c2.22,6.17,5.05,12.19,2.01,19.02c-3.03,6.81-7.02,8.23-13.25,4.04c-3.05-2.06-5.47-4.75-7.21-8.11
			c-1.67-3.23-3.74-6.25-5.63-9.37C957.33,377.9,956.66,375.67,955.99,373.45z"/>
		<path class="st13" d="M977.71,186.09c0.74,0.74,1.47,1.47,2.21,2.21c-0.46,1.91-1.81,3.07-3.41,4
			C975.91,190.04,975.73,187.86,977.71,186.09z"/>
		<path class="st14" d="M640.13,428.34c-0.03-0.62-0.08-1.23-0.14-1.84c2,0.05,4.01,0.09,6.01,0.14
			C644.47,428.7,642.23,428.27,640.13,428.34z"/>
		<path class="st1" d="M1796.06,1314.2c-3.33,0.1-6.65,0.29-9.98,0.29c-108.94,0.02-217.88,0.02-326.82-0.01
			c-3.65,0-7.31-0.32-10.96-0.49c-8.48-6.71-15.77-14.91-25.52-20.04c-3.04-1.6-4.63-4.58-5.17-8.04
			c-0.15-7.39-2.09-14.93,1.82-21.97c0.13-23.71,0.3-47.42,0.35-71.13c0.01-4-0.29-8.15-5.71-8.78c-2.95-2.42-6.41-2.24-9.48-0.95
			c-8.44,3.56-17.4,3.93-26.28,4.93c-32.17,1.94-56.06-12.52-69.78-40.37c-21.79-44.25,8.87-97.26,59.82-99.25
			c4.64-0.18,9.31,0.19,13.96,0.31c7.47,1.12,15.01,1.55,22.24,4.34c2.78,1.08,6.42,2.21,9.48-0.35c6.45-1.86,5.79-7.16,5.8-12.09
			c0.02-22.25,0.01-44.51,0.01-66.76c0-8.3-0.06-16.61,0.01-24.91c0.14-16.33,9.86-26.7,26.11-27.94c0.99-0.08,1.99-0.04,2.99-0.04
			c38.19-0.1,76.39-0.22,114.58-0.28c2.91,0,6.04-0.74,8.55,1.6c-2.37,3.12-6.14,1.85-9.75,3.06c3.2,6.62,1.81,12.71-1.67,18.93
			c-23.9,42.74-4.14,88.07,43.7,100.42c5.07,1.31,10.17,3.03,15.57,2.01c25.44,0.83,42.88-12.71,55.49-32.78
			c13.16-20.93,13-43.26,2.65-65.58c-1.81-3.9-4.26-7.61-3.55-12.23c1.21-7.85,6.33-13.23,14.26-14.71
			c2.27-0.42,4.63-0.42,6.95-0.42c34.93-0.12,69.85-0.24,104.78-0.28c3.23,0,6.71-0.95,9.56,1.58c-2.22,1.88-4.64,3.05-1.44,6.8
			c6.78,7.95,8.55,17.75,8.55,28.03c-0.01,108.19,0.01,216.37-0.03,324.56c0,2-0.03,4-0.19,5.99
			C1815.77,1302.9,1810.4,1309.72,1796.06,1314.2z"/>
		<path class="st2" d="M1505.92,560.86c33.16,14.17,76.78-15.13,82.41-53.39c4.59-31.16-7.81-54.03-33.14-71.04
			c-7.04-4.73-15.01-6.87-23.25-8.23c-6.55-1.52-12.99,0.01-19.3,1.21c-6.75,1.28-13.51,2.03-20.32,2.57
			c-13.41-1.76-18.71-8.55-16.69-21.33c4.76-30.12,9.46-60.24,14.26-90.35c2.71-17.03,14.56-26.06,31.93-23.72
			c17.73,2.39,35.39,5.38,53.06,8.2c27.81,4.44,55.61,8.96,83.41,13.45c31.73,5.12,63.45,10.35,95.2,15.36
			c32.08,5.06,64.23,9.7,96.26,15.06c6.1,1.02,12.57,0.49,18.35,3.35c11.91,6.49,15.16,17,13.32,29.57
			c-5.91,40.52-12.92,80.87-19.09,121.34c-5.12,33.57-10.94,67.02-15.89,100.61c-0.67,4.54-0.93,9.35-4.34,13.03
			c-3.53,1.91-6.41-0.17-9.18-1.79c-8.25-4.84-17.12-4.33-26-3.13c-3.94,0.53-8.14,1.8-9.08,6.41c-0.9,4.41,3.13,6.01,5.84,8.32
			c9.91,8.44,21.9,13.05,33.51,18.41c1.97,3.78,1.37,7.72,0.72,11.65c-3.07,18.6-5.96,37.23-8.89,55.84
			c-2.21,14.02-8.23,24.29-22.83,27.84c-15.39-2.32-30.78-4.64-46.17-6.97c-15.42-2.34-30.84-4.65-46.24-7.12
			c-3.34-0.54-6.55-0.29-9.82,0.16c-14.7,0.7-16.76,2.85-13.84,17.66c7.02,35.55-9.64,65.73-40.98,81.05
			c-8.76,4.28-17.96,3.5-26.91,5.27c-22.02-1.3-41.51-7.96-56.42-25.33c-18.7-21.79-21.74-56.53-6.68-81.09
			c9-14.68,6.45-20.94-10.27-23.75c-28.44-4.79-56.94-9.25-85.42-13.8c-6.97-1.11-13.45-2.83-18.89-7.97
			c-6.96-6.57-9.46-14.5-8.05-23.5c4.84-30.78,10.01-61.51,15.02-92.27c0.37-2.29,0.43-4.64,0.71-6.95
			c1.23-10.31,5.27-13.67,15.83-13.15c1.33,0.06,2.65,0.27,3.97,0.42C1482.61,550.17,1492.68,558.47,1505.92,560.86z"/>
		<path class="st15" d="M857.79,1313.95c-5.21,0.65-10.41,0.57-15.63,0.08c-6.86-2.62-6.93-8.13-5.77-13.98
			c3.02-15.21,6.61-30.29,9.71-45.49c2.12-0.43,3.39-1.5,3.9-3.81c3.88-17.68,7.93-35.33,11.81-53.01
			c4.52-20.57,9.01-41.15,13.32-61.76c0.92-4.39,2.63-8.86,0.92-13.49c3.79-25.93,10.82-51.16,16.35-76.72
			c1.72-7.94,1.5-16.64,7.6-23.2c8.05-36.82,16.09-73.63,24.16-110.45c2.05-9.37,3.91-18.8,6.41-28.05
			c1.15-4.24,1.61-8.42,1.97-13.16c-9.98-1.17-19.93-0.33-29.83-0.54c-9.9-0.21-14.01-3.88-14.57-13.51
			c-0.21-3.65-0.21-7.33,0-10.98c0.51-8.9,4.8-13.18,13.89-13.47c7.98-0.26,15.97,0,23.95-0.09c2.89-0.03,6.11,0.82,8.19-2.26
			c4.73-2.69,9.75-0.74,14.61-0.79c20.52-0.18,41.04,0.4,61.55-0.77c32.51,1.41,65.02,0.26,97.53,0.62
			c11.28,0.12,22.57-0.17,33.84,0.22c21.96-0.6,43.94,0.38,65.9-0.55c2.34-0.1,4.69-0.09,6.54,1.73c3.75,3.35,8.28,1.41,12.45,1.77
			c3.62,0.31,7.26-0.19,10.72,1.64c4.14,2.19,6.92,4.99,6.79,10.06c-0.15,5.66,0.18,11.34-0.1,16.99c-0.31,6.22-3.08,9.01-9.32,9.28
			c-6.65,0.29-13.33-0.06-19.98,0.14c-6.38,0.19-7.19,1.18-5.92,7.09c3.77,17.47,7.69,34.92,11.51,52.38
			c8,36.54,15.91,73.1,23.99,109.62c5.58,25.21,11.39,50.37,17.04,75.57c0.5,2.25,0.52,4.6,0.77,6.9
			c-9.52,0.7-17.23-4.62-25.65-7.65c-2.95-3.1-3.33-7.18-4.18-11.06c-15.91-72.24-31.8-144.49-47.8-216.72
			c-2.81-12.69-3.5-13.27-16.69-13.28c-64.98-0.03-129.97-0.03-194.95,0c-13.29,0.01-13.57,0.25-16.42,13.37
			c-11.49,53.08-23.74,106-34.74,159.19c-7.8,31.99-14.77,64.18-21.6,96.4c-8.55,37.48-16.36,75.13-25.16,112.55
			c-3,16.72-7.14,33.2-10.73,49.79C863.34,1308.47,862.4,1312.53,857.79,1313.95z"/>
		<path class="st4" d="M2031.98,1282.39c-3.1-1.91-3.99-4.65-4.33-8.31c-2.33-25.7-4.73-51.39-6.01-77.19
			c-1.51-30.41-3.8-60.78-5.93-91.16c-1.86-26.41-3.72-52.83-6.04-79.21c-2.12-24.05-4.22-48.1-5.46-72.21
			c5.07-0.08,6.36,4.37,8.35,7.49c29.83,46.8,59.35,93.79,89.06,140.66c1.96,3.08,3.67,6.33,4.58,9.94
			c2.05,14.42-1.56,28.43-3.4,42.5c-5.48,41.84-14.15,83.06-25.34,123.75c-1.42,5.15-2.81,10.44-9.08,11.97
			c-8.83,1.04-17.61,1.04-26.26-1.36C2037.98,1288.13,2033.91,1286.83,2031.98,1282.39z"/>
		<path class="st16" d="M1237.98,1114.05c8.89,0.06,16.34,4.5,24.13,7.93c22.64,17.65,36.83,41.57,49.27,66.73
			c8.24,16.66,15.24,33.88,21.58,51.35c0.78,2.15,2.12,4.1,3.2,6.15c6.79,9.07,8.43,20.2,11.82,30.56
			c2.65,8.08,6.36,11.32,15.19,9.68c13.75-2.54,27.73-3.62,41.78-2.88c5.34,0.28,10.77,0.24,14.62,4.92
			c3.52,4.6,9.42,5.66,13.69,9.27c5.7,4.83,11.89,9.09,15.05,16.23c-2.65,0.12-5.31,0.33-7.96,0.33
			c-96.44,0.02-192.87,0.02-289.31,0c-2.32,0-4.65-0.18-6.97-0.28c-0.6-3.51,1.64-5.63,3.96-7.48
			c19.08-15.21,40.93-23.87,64.82-17.64c20.61,5.37,41.04,6.88,61.92,6.73c1.45-0.07,2.9,0.45,4.39,0.26
			c-0.32-0.52-0.77-0.89-1.43-1.12c-23.86-11.91-47.41-24.21-68.17-41.15c-3.84-3.11-6.67-6.82-4.8-11.98
			c1.97-5.44,7.04-7.11,12.02-7.26c10-0.3,19.76,1.56,28.91,5.84c7.19,3.36,14.23,7.04,21.45,10.33
			c8.45,9.24,19.86,15.1,28.19,24.49c3.24,3.34,6.86,6.37,9.74,9.99c6.63,8.32,14.76,8.8,25.11,5.43
			c-11.07-14.87-23.14-28.06-33.4-42.62c-2.95-3.52-5.84-7.1-8.59-10.78c-12.89-15.77-24.3-32.64-36.24-49.12
			c-8.62-13.75-17.41-27.39-24.08-42.25c-3.33-7.42-5.3-15.03-3.98-23.14C1225.21,1114.38,1229.15,1112.13,1237.98,1114.05z"/>
		<path class="st17" d="M1990.19,726.32c-0.05,0.33-0.15,0.66-0.16,0.98c-0.56,21.23-1.51,42.46-1.51,63.69
			c0,11.57,1.87,23.14,1.25,34.77c-0.2,3.71,1.84,5.39,4.8,6.6c3.51,5.22,3.87,11.33,4.18,17.21c0.86,16.24,2.29,32.43,3.91,48.61
			c0.43,4.26,0.89,8.7-2.71,12.14c-26.69-13.69-48.44-32.44-60.99-60.33c-6.71-14.91-10.32-30.56-11.02-47.05
			c-1.25-29.55,4.75-57.84,12.72-86.01c5.12-18.11,8.97-36.58,13.4-54.89c11.47-1.07,23.16,0.77,34.48-2.5
			c4.96-1.44,3.06,2.74,3.86,4.71c2.97,3.26,3.08,7.39,2.6,11.26c-1.7,13.82-1.91,27.68-1.92,41.56
			C1993.09,720.42,1992.55,723.68,1990.19,726.32z"/>
		<path class="st8" d="M1999.96,910.33c-1.07-22.73-3.18-45.38-5.23-68.04c-0.3-3.29-0.12-6.61-0.16-9.92
			c7.23-0.24,14.31,1.01,21.41,2.08c8.96,24.28,19.1,48.09,29.14,71.93c10.94,26,21.95,51.97,33.24,77.82
			c7.84,17.96,16.16,35.71,24.4,53.49c2.52,5.45,5.06,10.83,5.49,16.94c2.68,5.84,3.3,12.06,2.7,18.3
			c-0.89,9.16-1.97,18.28-2.02,27.5c-0.02,3.92-0.44,8.04-4.98,9.86c-22.01-34.77-43.8-69.67-66.11-104.24
			c-11.15-17.27-21.25-35.24-33.61-51.72C2002.8,939.66,2001.38,924.99,1999.96,910.33z"/>
		<path class="st18" d="M1144.16,614.38c2.72-0.04,5.43-0.08,8.15-0.13c1.57,25.43,2.91,50.88,5.28,76.26
			c2.04,21.75,3.24,43.58,4.81,65.37c0.78,10.86,3.24,21.65,1.42,32.63c-5.68,9.22-14.75,8.59-23.75,8.19
			c-6.28-1.01-8.31-5.92-10.05-11.06c-13.44-39.86-26.22-79.93-37.53-120.45c-0.43-1.52-0.65-3.08-0.72-4.65
			c2.95-20.61,27.8-43.33,47.67-45.14C1141.07,615.24,1142.78,615.62,1144.16,614.38z"/>
		<path class="st19" d="M1796.06,1314.2c14.23-6.73,18.15-18.42,18.1-33.47c-0.32-108.26-0.17-216.51-0.17-324.77
			c0-4.64,0.01-9.21-1.54-13.78c-2.64-7.81-5.89-14.89-14.28-19.25c3.97-0.22,7.94-0.45,11.91-0.67
			c14.49,3.5,21.64,12.48,21.66,27.72c0.06,51.82,0.01,103.63,0.04,155.45c0,5.64,0.27,11.27,0.42,16.91
			c4.94,15.98,4.92,31.95-0.13,47.9c-0.43,8.06-0.61,16.11,0.11,24.16c4.8,12.02,4.72,24.03-0.02,36.04
			c-0.59,11.31-0.69,22.62,0.05,33.93c4.74,12.92,4,25.78-0.92,38.41c-2.63,6.75-8.61,9.63-15.21,11.38
			C1809.4,1314.17,1802.73,1314.19,1796.06,1314.2z"/>
		<path class="st20" d="M1832.15,1230.45c0.01-12.01,0.02-24.03,0.02-36.04c10.62-5.87,17.88-15.72,27.36-23
			c13.44-10.31,26.26-21.42,41.32-29.43c5.01-2.67,10.21-4.81,15.84-5.8c12.16-2.14,24.08,3.01,29.86,12.88
			c6.23,10.64,4.87,23.42-3.67,33.27c-5.59,6.45-12.66,11.28-20.65,13.48c-30.57,8.43-59.17,21.78-88.13,34.25
			C1833.5,1230.31,1832.8,1230.33,1832.15,1230.45z"/>
		<path class="st20" d="M1832.07,1170.25c0.04-15.97,0.09-31.94,0.13-47.9c9.83-12.47,19.6-24.99,29.49-37.41
			c12.22-15.34,25.07-30.1,40.87-41.93c6.12-4.58,12.59-8.73,20.68-8.91c9.68-0.22,14.75,4.71,14.85,14.5
			c0.07,6.88-2.54,12.98-5.79,18.83c-5.01,9.03-11.25,17.25-17.92,25.04c-17.07,19.93-36,38.01-55.98,55
			C1849.56,1154.99,1840.84,1162.65,1832.07,1170.25z"/>
		<path class="st21" d="M1840.26,616.34c4.22-9.51,3.93-19.9,5.71-29.87c4.11-23.05,7.78-46.19,11.46-69.31
			c3.01-18.9,5.66-37.85,8.67-56.74c3.69-23.13,7.85-46.18,11.23-69.35c1.12-7.66,3.05-15.31,0.91-23.43
			c-1.75-6.62-7.47-10.01-10.15-15.65c15.73,1.8,25.89,14.27,23.48,29.61c-6.06,38.52-12.48,76.98-18.64,115.48
			c-2.29,14.33-4.25,28.72-6.36,43.08c-1.71,10.57-4.8,20.93-4.5,31.78c0.68,15.99-1.18,31.55-7.94,46.27
			c-2.05,1.2-4.1,2.39-6.15,3.59C1841.96,624.86,1840.43,621.57,1840.26,616.34z"/>
		<path class="st20" d="M1816.07,1314.16c10.41-6.5,16.86-15.14,15.83-28.16c-0.36-4.56-0.1-9.18-0.04-13.77
			c0.03-2.62,0.22-5.23,0.34-7.85c28.71,8.37,55.88,19.98,80,38.01c4.51,3.37,8.87,6.88,12.14,11.55
			c-25.49,0.14-50.98,0.31-76.48,0.4C1837.26,1314.38,1826.67,1314.23,1816.07,1314.16z"/>
		<path class="st20" d="M1419.57,1288.48c-14.74-3.07-29.42-2.84-44.34-0.68c-6.81,0.99-13.67,2.43-20.63,2.51
			c-2.63,0.03-5.52,0.3-6.33-3.27c-3.14-13.88-10.04-26.64-12.11-40.84c29.19-0.83,57.29,3.47,83.28,17.73
			C1420.32,1272.11,1420.12,1280.29,1419.57,1288.48z"/>
		<path class="st22" d="M1619.93,1046.68c-3.86,3.09-8.45,2.09-12.43,1.28c-31.66-6.36-51.99-24.19-58.76-56.01
			c-3.44-16.16-0.83-32.73,8.43-47.05c4.59-7.1,7.09-13.53,1.39-21.36c5.07-1.8,9.41-0.57,13.53-1.28
			c8.98,4.42,11.17,10.73,5.72,19.12c-6.1,9.4-9.94,19.49-11.36,30.51C1562.48,1002.48,1582.97,1038.68,1619.93,1046.68z"/>
		<path class="st23" d="M1324.27,702.55c15.64-3.58,23.66-16.45,20.27-31.77c-6.8-30.69-13.35-61.43-19.98-92.16
			c-1.13-5.26-0.18-10.16,4.28-13.43c3.46-2.54,7.48-4.82,11.55-0.6c-4.58,4.81-4.89,10.21-3.44,16.57
			c6.47,28.39,12.68,56.84,18.61,85.35c0.91,4.35,1.88,8.78,1.15,13.64c-1.78,11.92-7.94,19.39-19.53,22.36
			c-3.52,0.9-7.14,1.4-10.72,2.09C1324.22,705.53,1323.86,704.46,1324.27,702.55z"/>
		<path class="st24" d="M1380.23,560.49c24.86-9.76,39.72-27.54,44.04-54.13c6.87-42.23-21.24-68.65-49.57-77.93
			c-0.62-0.2-1.32-0.15-1.97-0.27c-0.75-0.14-0.95-0.72-0.32-1.3c0.46-0.41,1.21-0.5,1.83-0.74c32.12,2.95,57.19,27.34,62.26,60.18
			c6.15,39.9-24.66,71.98-51.99,76.25C1382.46,563.16,1380.09,564.43,1380.23,560.49z"/>
		<path class="st8" d="M2031.98,1282.39c11.4,6.68,24.04,5.97,36.53,6.14c3.93,8.59,4.02,17.15-0.17,25.68
			c-26,0.04-52,0.11-77.99,0.1c-2.89,0-6.1,0.84-8.31-2.09c2.56-3.08,6.25-3.09,9.78-3.93
			C2008.23,1304.42,2023.96,1299.33,2031.98,1282.39z"/>
		<path class="st23" d="M1309.84,440.84c-6.08,4.25-12.63,2.54-15.37-4.66c-1.87-4.9-2.76-10.2-3.85-15.37
			c-5.62-26.52-11.18-53.06-16.71-79.6c-1.4-6.73-4.92-12.17-9.87-16.78c-2.63-1.36-3.84-3.17-1.89-5.98
			c13.63,2.03,20.89,10.32,23.63,23.47c6.1,29.23,12.35,58.42,18.65,87.61C1305.31,433.65,1305.78,438.15,1309.84,440.84z"/>
		<path class="st11" d="M1622.26,830.15c0.92-1.03,2.03-1.58,3.43-1.75c25.99-3.1,45.29-16.21,56.98-39.57
			c7.16-14.31,8.41-29.69,4.84-45.36c-0.44-1.93-1.14-3.84-1.34-5.79c-0.5-4.76-0.31-9.27,4.3-12.43c4.87-3.34,9.23-2.5,13.52,0.92
			c-5.85,4.31-6.59,9.53-4.75,16.58c11.34,43.48-16.71,76.87-52.25,86.78C1638.94,831.78,1630.52,830.44,1622.26,830.15z"/>
		<path class="st11" d="M1806.2,740.11c0.92-2.41,3.03-3.42,5.19-4.34c8.09-3.45,12.58-10.05,13.85-18.25
			c3.79-24.45,8.75-48.73,11.07-73.39c2.73-3.45,5.97-4.41,9.88-1.98c1.23,1.37,2.45,2.74,3.68,4.1
			c-2.51,14.69-5.08,29.36-7.52,44.06c-1.57,9.48-2.83,19.01-4.46,28.48C1835.3,733.87,1824.26,741.22,1806.2,740.11z"/>
		<path class="st25" d="M1140.11,794.98c8.58,0.33,16.41-2.1,23.71-6.47c9.08,14.3,21.78,23.7,38.13,28.15
			c-0.24,4.74-4.19,5.68-7.48,6.57c-18.9,5.15-36.95,1.89-54.43-6.11C1139.26,809.75,1137.23,802.36,1140.11,794.98z"/>
		<path class="st26" d="M1140.73,816.65c11.45,1.48,22.37,5.67,34.03,6.22c9.74,0.46,18.95-0.53,27.19-6.21
			c4.16,1.01,8.37,1.83,12.46,3.07c7.03,2.13,7.39,3.83,2.17,9.08c-0.69,0.69-1.6,1.16-2.41,1.73c-5.77,1.66-11.65,2.06-17.65,1.98
			c-17.9-0.26-35.8-0.27-53.71-0.38C1135.48,827.86,1135.89,822.56,1140.73,816.65z"/>
		<path class="st25" d="M1262.14,318.45c0.63,1.99,1.26,3.99,1.89,5.98c0.05,2.35-0.5,4.54-1.24,6.78c-1.17,3.55-2.18,7.91-6.17,8.2
			c-4.22,0.31-8.4-1.94-10.79-5.92c-1.52-2.53-2.73-5.32-3.65-8.13c-0.78-2.39-1.99-4.13-4.25-5.17c-0.96-2,0.79-2.69,1.81-3.74
			c5.16-2.2,9.87-4.95,12.43-10.3C1257,309.05,1261.06,312.54,1262.14,318.45z"/>
		<path class="st27" d="M1324.27,702.55c0.73,0.68,1.46,1.36,2.19,2.04c-20.1,5.73-40.75,9.02-61.09,13.71
			c-10.32,2.38-20.61,5.08-31.2,6.19c-1.27-0.18-2.54-0.37-3.82-0.56c-0.07-0.44-0.15-0.87-0.22-1.31
			C1261.52,715.93,1292.89,709.24,1324.27,702.55z"/>
		<path class="st28" d="M1505.92,560.86c-0.25,0.22-0.51,0.64-0.74,0.62c-13.8-1.37-25.02-7.3-33.13-18.73
			c6.7,0.51,12.52,2.51,17.34,7.73C1493.87,555.32,1500.26,557.63,1505.92,560.86z"/>
		<path class="st29" d="M1492.32,431.98c10.99-4.61,22.44-6.36,34.3-5.66c1.98,0.12,3.95,0.12,5.32,1.87
			c-5.49,1.06-11.15,1.58-16.43,3.3C1507.72,434.05,1500.11,434.53,1492.32,431.98z"/>
		<path class="st30" d="M1378.31,1188c9.44-2.27,18.87-4.44,27.83-8.43c3.67-1.63,7.03-0.15,7.93,4.46
			C1402.4,1187.59,1390.5,1189.05,1378.31,1188z"/>
		<path class="st31" d="M1414.03,1052.68c-1.99,6.26-7.36,4.37-10.52,2.92c-6.86-3.16-14.27-4.23-21.19-6.92
			C1393.2,1047.53,1403.81,1048.57,1414.03,1052.68z"/>
		<path class="st32" d="M1380.23,560.49c0.96,1.65,2.7,1.71,4.29,2.07c-3.81,2.48-8.12,1.69-12.28,1.93
			c-0.57-0.61-3.41-0.66-1.45-1.75C1373.5,561.23,1377.04,561.17,1380.23,560.49z"/>
		<path class="st33" d="M426.48,664.42c6.1,8.23,7.65,18.3,11.12,27.59c1.62,4.35,3.23,8.82,3.91,13.37
			c1.52,10.15,8.18,16.47,15.63,22.2c43.72,33.65,86.86,68.04,129.73,102.77c2.05,1.66,3.8,3.71,5.7,5.57
			c-0.85,10.63-2.13,21.04-13.34,26.44c-3.02,2.3-5.96,0.19-8.93-0.18c-9.56-0.61-17.62-5.59-26.04-9.29
			c-23.12-10.14-45.83-21.17-68.2-32.87c-36-21.56-71.58-43.8-106.48-67.11c-7.75-5.18-15.14-10.86-22.85-16.16
			c34.79,53.86,80.77,95.52,137.19,125.82c3.52,1.89,7.05,3.8,11.02,4.64c3.12,1.44,6.32,2.83,5.36,7.27
			c2.86,7.05,0.85,13.43-2.71,19.59c-9.37,2.54-18.71,5.22-28.22,7.25c-33.55,11.52-67.77,14.56-102.79,8.39
			c-6.76-1.19-13.57-3.59-20.58-1.16c-14.85-22.57-23.24-48.01-31.98-73.21c-14.51-41.85-25.18-84.54-24.22-129.31
			c0.54-25.26,5.26-49.45,19.61-70.9c2.92-4.36,5.53-9.12,10.57-11.6c3.72-2.19,7.68-1.77,11.52-0.72
			c15.4,4.21,30.98,5.7,46.86,3.72c12.06,2.36,21.4,9.53,30.11,17.54c5.53,5.08,10.46,10.82,15.66,16.27
			C425.57,661.31,427.19,662.19,426.48,664.42z"/>
		<path class="st18" d="M345.99,908.56c0.34-2.43-0.61-5.57,4.1-4.57c6.13,1.3,12.41,1.84,18.61,2.86
			c10.43,1.72,20.89,3.23,31.46,3.44c14.61,0.29,28.91-2.6,43.31-4.56c9.31-1.27,17.68-5.26,26.65-7.37
			c27.44,38.78,48.92,80.58,65.94,124.96c10.25,26.71,12.01,53.41,7.89,81.26c-2.28,15.44-6.81,30.53-7.16,46.26
			c-6.92,18.74-10.2,38.47-15.72,57.6c-6.35,22.01-12.72,44.03-18.17,66.29c-2.02,8.24-5.99,13.14-15.02,12.43
			c-13.96-0.24-27.77-1.81-41.38-4.96c-5.76-3.62-6.41-9.07-6.19-15.32c0.88-24.89,0.64-49.84,2.31-74.66
			c1.91-28.39,3.77-56.85,9.13-84.9c2.91-15.26-1.51-28.84-9.48-41.69c-11.43-18.42-25.62-34.74-38.99-51.67
			c-15.26-19.32-30-38.95-41.66-60.76c-5.97-11.18-10.77-22.78-14.61-34.83C346,915.17,345.48,911.92,345.99,908.56z"/>
		<path class="st20" d="M428.14,1314.06c-34.77,0.41-69.55,0.64-104.32-0.12c3.55-5.82,10.67-6.51,15.38-10.6
			c0.18-3.22-2.63-3.56-4.43-4.74c-11.95-7.85-24.36-15.03-34.85-24.95c-1.69-1.59-3.43-3.04-4.86-4.93
			c-6.39-8.49-4.58-13.24,6.24-14.12c10.9-0.89,21,2.33,30.25,8.21c11.31,7.19,18.64,17.84,25.37,28.99
			c4.4,7.28,4.3,7.34,15.03,4.65c-3.97-5.89-8.39-11.04-12.93-16.14c-22.99-25.84-45.2-52.31-64.86-80.82
			c-6.82-9.89-13.04-20.11-18.07-31.03c-2.66-5.8-4.62-11.75-4.18-18.28c0.47-6.97,2.89-9.27,9.67-10.14
			c9.73-1.24,17.38,2.34,24.4,8.78c13.91,12.77,24.41,28.02,33.65,44.33c17.43,30.79,30.91,63.33,43.09,96.44
			c2.05,5.57,4.32,8.97,10.97,9.2c5.54,0.19,11.06,2.08,16.5,3.55C417.41,1304.29,423.95,1307.42,428.14,1314.06z"/>
		<path class="st34" d="M264.21,542.36c4.66-10.85,7.29-22.08,5.33-34.25c4.11,0.9,1.84,4.4,4.59,6.02
			c7.08-12.48,18.18-19.74,32.01-22.62c10.69-2.23,21.39-4.03,32.53-2.34c8.2,1.25,15.65-1.65,21.3-8.23
			c7.7,12.77,7.82,21.28,0.75,33.28c-0.82,1.4-1.56,2.85-2.33,4.27c-0.71,8.1-7.48,11.34-12.92,15.23
			c-8.33,5.95-14.93,12.04-11.52,23.7c1.07,3.66-0.34,7.5-4.66,8.7c-8.44,2.35-6.52,5.97-2.11,11.05
			c6.81,7.86,6.47,10.44-0.52,15.67c-6.9-4.75-14.33-8.26-22.63-9.77c-18.13-3.29-29.71-9.35-33.49-36.83
			c-0.67-4.91-1.75-6.77-6.48-4.04L264.21,542.36z"/>
		<path class="st12" d="M326.65,592.84c5.17-7.16,5.11-8.7-0.68-14c-1.22-1.12-2.65-2.01-3.82-3.17c-1.83-1.83-4.46-3.55-3.32-6.62
			c1.1-2.96,3.49-4.75,6.84-4.94c2.16-0.13,4.92,1.43,6.22-1.37c0.98-2.11,0.75-4.64-0.11-6.82c-3.73-9.5,0.29-15.95,8.06-20.97
			c7.02-4.53,12.72-10.56,18.54-16.44c5.58,3.09,7.96,8.83,11.08,13.82c7.25,11.58,13.63,23.61,16.89,37.04
			c3.15,12.99,2.74,14.41-8.57,20.87c-3.39,1.94-6.23,3.73-6.04,8.08c-3.83-1.46-7.01,0.74-10.33,1.91
			c-7.28,2.56-14.61,3.57-22.23,1.81c10.84,3.27,20.26,14.18,33.29,5.92c2.92,3.17,1.27,7.01,1.35,10.52
			c0.08,3.67,0.94,6.54,4.54,8.06c-9.78,5.32-20.11,4.75-30.52,2.72c-9.3-1.81-18.57-3.81-27.86-5.72
			C323.71,613.63,326.4,603.5,326.65,592.84z"/>
		<path class="st34" d="M446.5,1282.21c2.32-1.28,4.68-2.16,7.45-1.57c11.43,2.42,23.01,3.64,34.68,3.96
			c8.31,6.91,17.78,11.18,28.34,13.58c4.73,1.07,11.05,2.05,9.22,9.87c-0.03,3.74-0.99,6.34-5.61,6.32
			c-22.89-0.12-45.79-0.02-68.69-0.16c-1.87-0.01-3.74-1.17-5.61-1.8C443.07,1302.33,442.59,1292.25,446.5,1282.21z"/>
		<path class="st35" d="M372.47,607.95c-1.92,6.29-3.42,7.66-9.56,6.05c-10.53-2.78-21.17-5.67-29.24-14.8
			c2.41-1.3,4.25,0.39,6.19,0.7c8.06,1.29,15.79,0.19,23.33-2.96c2.94-1.23,6.29-2.67,8.55,1.37
			C371.98,601.52,372.22,604.74,372.47,607.95z"/>
		<path class="st36" d="M426.48,664.42c-0.79-1.36-1.58-2.73-2.36-4.09c0.7-0.69,1.4-1.38,2.1-2.08
			C428.15,660.23,429.07,662.25,426.48,664.42z"/>
		<path class="st37" d="M264.06,542.2c-0.16,0.5-0.32,1-0.48,1.51c-0.26-0.26-0.51-0.52-0.77-0.78c0.47-0.19,0.93-0.38,1.4-0.57
			C264.21,542.36,264.06,542.2,264.06,542.2z"/>
		<path class="st0" d="M1140.73,816.65c-1.57,5.46-1.71,10.74,2.08,15.48c-41.87,0.07-83.74,0.16-125.61,0.21
			c-2.6,0-5.42,0.49-7.2-2.24c0.12-4.25-1.9-6.5-6.11-7.39c-4.17-0.88-8.35-1.83-12.44-3.13c-9.9-4.23-18.78-9.94-26.53-17.47
			c-3-2.91-5.39-5.88-5.01-10.33c2.46-7.76,2.33-16.66,9.72-22.27c7.67,4.54,15.93,5.85,24.68,4.46
			c30.21-4.1,59.64-11.99,89.41-18.22c2.61-0.38,5.24-0.78,7.72-1.68c16.99-6.16,20.02-15.3,9.48-30.03
			c-10.91-15.24-15.16-32.04-13.43-50.55c0.34-3.66,0.6-7.31,4.01-9.68c1.05-0.47,2.08-0.44,3.1,0.1
			c12.18,41.07,24.8,82,38.79,122.5c1.23,3.56,1.2,8.29,6.71,8.57C1142.54,802.14,1142.68,809.37,1140.73,816.65z"/>
		<path class="st38" d="M1006.08,256.06c1.31-1.59,2.88-1.63,4.28-0.33c14.73,13.62,28.22,28.07,32.74,48.59
			c1.81,8.22,1.63,16.66,0.58,24.73c-0.97,7.48-0.9,15.13-2.93,22.53c-1,3.64-2.12,7.87,1.57,11.12
			c-16.81,5.23-34.18,7.95-51.36,11.54c-0.89,0.18-1.93-0.38-2.9-0.6c-1.06-5.05,1.96-8.93,4.01-12.96
			c6.17-12.13,11.26-24.69,15.28-37.67c3.37-10.86,5.48-21.85,2.12-33.16C1008.49,278.57,1003.46,267.7,1006.08,256.06z"/>
		<path class="st0" d="M1239.75,316.47c-0.6,1.25-1.21,2.49-1.81,3.74c-14.88,2.98-29.8,5.84-44.65,8.98
			c-20.36,4.31-40.66,8.83-60.99,13.27c-0.84-24.01-1.21-47.99,3.7-71.71c0.34-1.63,0.48-3.26,2.03-4.26
			c5.27,1.76,6.24,6.76,7.61,11c4.2,12.96,13.16,20.11,25.97,23.66c10.59,2.93,21.15,5.81,32.03,7.47c3.62,0.55,7.13,1.65,10.3,3.59
			C1222.31,315.03,1231.07,315.52,1239.75,316.47z"/>
		<path class="st39" d="M969.63,769.52c-3.86,7.31-4.83,15.63-8.14,23.14c-7.22,5.97-14.55,6.11-22.79,0.44
			c-3.84-2.9-3.04-7.1-2.88-10.98c0.57-13.52,1.15-27.04,2.03-40.53c1.33-20.4,2.92-40.79,4.39-61.18c0.56-0.96,1.21-0.99,1.96-0.22
			c5.11,16.71,7.59,34.01,11.6,50.97c1.44,6.08,3.05,12.16,3.93,18.33C960.86,757.35,964.19,763.9,969.63,769.52z"/>
		<path class="st23" d="M1092.19,664.37c-5.81,20.12-2.29,38.73,9.15,56.02c1.83,2.77,4.14,5.22,5.94,8
			c6.53,10.07,2.26,22.22-9.16,25.57c-4.43,1.3-8.9,2.89-13.66,2.64c-2.24,0.94-2.6-0.13-2.19-2.04
			c16.12-3.39,20.83-14.22,11.61-27.56c-6.46-9.34-12.16-18.84-14.65-30.14c-5.84-26.47,5.77-54.48,25.39-69
			c11.86-8.77,24.44-14.61,39.54-13.48c-13.84,4.68-27.08,10.45-36.78,21.97c-5.94,7.06-11.88,14.2-13.7,23.67
			C1092.94,661.39,1093.41,663.17,1092.19,664.37z"/>
		<path class="st40" d="M1082.27,754.56c0.73,0.68,1.46,1.36,2.19,2.04c-16.72,5.31-34.16,7.46-51.13,11.71
			c-7.37,1.85-14.92,2.94-22.28,4.82c-5.59,1.43-11.12,1.5-16.75,0.84c13.14-3.08,26.25-6.3,39.42-9.2
			C1049.88,761.23,1066.09,757.95,1082.27,754.56z"/>
		<path class="st41" d="M944.21,680.18c-0.65,0.09-1.31,0.16-1.96,0.22c0.11-2.73,0.21-5.47,0.32-8.2
			C944.55,674.56,944.41,677.37,944.21,680.18z"/>
		<path class="st18" d="M578.61,1049.73c20.88,37.4,41.6,74.91,62.71,112.18c14.58,25.74,29.47,51.31,45.37,76.27
			c10.3,8.87,10.78,11.58,4.13,22.86c-8.84,8.03-17.51,16.41-30.67,16.34c-12.36,0.56-18.44-9.78-27.13-15.62
			c-17.82-15.92-34.98-32.54-51.56-49.73c-9.2-9.55-17.92-19.56-26.16-29.97c-2.21-2.8-5.2-5.45-3.2-9.7
			c8.33-37.47,14.71-75.32,22.63-112.85C575.45,1056.04,575.02,1052.06,578.61,1049.73z"/>
		<path class="st20" d="M900.01,1022.58c-4.87,22.31-9.74,44.61-14.62,66.91c-1.77,8.08-3.63,16.14-5.3,24.24
			c-0.68,3.28-1.11,6.56-4.02,8.77c-30.21-26.5-61.86-51.39-89.61-80.63c-6.66-7.02-12.65-14.49-18.19-22.4
			c-4.15-5.91-6.67-12.65-7.02-19.46c-0.54-10.55,3.73-16.81,16.64-21.87c27.1-10.61,52.81-6.24,77.23,8.27
			c14.06,8.35,26.7,18.59,38.22,30.21C895.44,1018.73,897.78,1020.6,900.01,1022.58z"/>
		<path class="st20" d="M689.94,1260.29c0.02-0.33-0.08-0.75,0.09-0.98c4.95-6.81,2.92-12.79-2.05-18.51
			c-0.62-0.71-0.87-1.74-1.29-2.62c13.15-2.67,26.47-1.9,39.75-2.13c26.49-0.46,52.13,4.81,77.63,11.16
			c13.84,3.45,27.55,7.66,42.05,7.36c2.07,2.94,1.94,5.97,1.12,9.4c-2.81,11.81-5,23.77-8.08,35.51
			c-1.49,5.69-1.01,10.33,3.01,14.57c-38.5,0.11-77,0.22-115.5,0.32c-7.63,0.02-15.27,0.04-22.9-0.03
			c-2.22-0.02-4.76,0.58-6.18-2.02c3.88-8.4,11.59-12.54,19-16.95c12.61-7.5,25.7-14.09,38.83-20.62c1.95-0.97,4.96-1.7,4.39-4.63
			c-0.53-2.71-3.49-2.73-5.71-3.17c-7.35-1.43-14.58,0.08-21.84,0.99c-11.28,1.42-22.58,2.24-33.59-1.74
			C695.29,1264.98,691.42,1264.37,689.94,1260.29z"/>
		<path class="st34" d="M578.61,1049.73c-1.68,20.14-7.39,39.56-10.78,59.4c-3.45,20.15-7.86,40.14-11.69,60.23
			c-0.48,2.5-0.79,4.58-3.76,4.91c-10.15-4.52-15.09-12.75-16.62-23.4c-1.69-4.48-1.45-8.77-0.49-13.58
			c3.09-15.54,4.74-31.39,7.33-46.96c4.72-28.49-4.21-53.69-14.12-79.05c-12.48-31.96-28.29-62.25-46.6-91.23
			c-3.54-5.6-7.48-10.95-11.48-16.23c-1.51-1.99-1.18-3.6-0.27-5.47c6.69-0.24,12.6-3.56,19.03-4.91c3.12-0.65,5.71-0.99,8.43,0.62
			c10.75,20.64,21.51,41.28,32.26,61.93C546.1,987.24,562.35,1018.49,578.61,1049.73z"/>
		<path class="st2" d="M476.37,818.52c9.62,2.06,17.51,7.94,26.14,12.11c20.98,10.14,42.08,19.95,63.56,28.97
			c1.5,0.63,2.82,1.71,4.22,2.58c-15.69,5.08-31.35,10.24-47.07,15.21c-8.01,2.53-15.66,1-22.94-2.91
			c-2.02-2.09-4.04-4.19-6.07-6.28c-1.58-0.59-3.27-1.39-3.89-2.88C483.98,850.24,478.23,834.95,476.37,818.52z"/>
		<path class="st11" d="M858.17,770.78c1.69-4.28,4.91-7.71,6.27-12.29c1.76-5.93,2.08-11.49,0.17-17.46
			c-8.9-27.68-17.98-55.32-26.14-83.22c-2.96-10.11-7.47-17.23-18.24-19.19c0.56-0.32,1.16-0.47,1.8-0.44
			c0.56-0.48,1.19-0.83,1.89-1.05c13.98-2.07,19.07,0.74,23.28,13.76c8.98,27.79,17.85,55.62,26.52,83.51
			c4.69,15.09,0.94,27.21-9.94,34.53C862.03,770.09,860.16,770.52,858.17,770.78z"/>
		<path class="st25" d="M579.23,862.36c7.47-7.29,8.8-17.67,13.34-26.44c10.93-3.34,20.78-2.13,28.76,6.85
			c1.4,1.58,3.18,2.24,5.19,2.51c-0.06,2.3-0.14,4.6-0.2,6.9c-0.27,10.95-0.77,11.52-10.98,13.73c-4.79,1.04-9.48,2.7-14.31,3.43
			C592.73,870.6,584.5,870.9,579.23,862.36z"/>
		<path class="st42" d="M938.7,793.09c7.65,2.22,15.25,2.29,22.8-0.44c0.53,2.65,1.77,4.65,3.86,6.61
			c8.27,7.74,17.5,13.98,27.59,19.02c-1.84,6.7-7.78,6.59-12.8,7.15c-16.47,1.84-31.92-1.71-46.34-9.83
			C934.28,807.85,938.39,800.88,938.7,793.09z"/>
		<path class="st43" d="M933.8,815.61c11.44,1.56,22.18,6.26,33.72,7.39c8.96,0.88,17.58,0.32,25.41-4.71
			c5.32-0.09,10.32,1.56,15.27,3.09c5.9,1.83,5.91,2.54,1.8,8.73c-4.67,1.91-9.51,2.46-14.56,2.41c-15.56-0.16-31.13-0.15-46.7,0
			c-5.05,0.05-9.9-0.44-14.55-2.45C931.93,825.31,931.34,820.5,933.8,815.61z"/>
		<path class="st2" d="M823.91,637.13c-0.63,0.35-1.26,0.7-1.89,1.05C822.39,637.36,822.97,636.92,823.91,637.13z"/>
		<path class="st8" d="M2246.43,1314.21c-11.99,0.04-23.97,0.13-35.96,0.09c-2.89-0.01-6.08,0.85-8.38-1.93
			c-0.77-1.81-0.09-3.77,1.35-4.22c11.03-3.5,15.7-12.98,21.04-21.86c3.38-5.53,1.49-11.62,1.47-17.39
			c-0.03-5.99,1.36-10.25,7.42-12.28c8.2-2.73,14.3-9.35,22.41-12.3c4.61,3.92,7.98,8.86,11.22,13.88
			c4.41,6.85,4.72,13.65-0.77,20.17c-1.7,2.03-3.24,4.23-5.14,6.06c-5.67,5.45-9.64,11.81-10.73,19.66
			C2249.84,1307.86,2247.42,1310.73,2246.43,1314.21z"/>
		<path class="st7" d="M1990.19,726.32c-0.23-14.8-0.53-29.58,1.43-44.32c0.78-5.87-0.51-11.87,0.79-17.74
			c1.77-4.93,5.15-7.5,10.22-9.45c32.17-12.42,63.45-26.92,94.86-41.11c0.87-0.39,1.87-0.5,3.39-0.89c0.83,3.97-0.88,7.19-2.3,10.29
			c-12.51,27.41-28.28,52.64-51.14,72.68C2030.81,710.35,2011.89,721.05,1990.19,726.32z"/>
		<path class="st44" d="M1854.14,618.22c2.23-15.5,3.84-31.1,7.94-46.27c22.14,9.7,44.34,19.2,67.92,25
			c3.9,0.96,7.81,1.45,11.78,1.7c7.98,2.78,16.3,0.15,24.37,1.51c2.94,4.05,1.02,7.09-2.05,9.89c-11.31,3.11-23.04,2.4-34.56,3.51
			c-20.11,1.94-40.3,3.03-60.47,4.37C1864.1,618.25,1859.11,618.13,1854.14,618.22z"/>
		<path class="st45" d="M1846.19,642.15c-3.29,0.66-6.59,1.32-9.88,1.98c-9.97-0.41-18.62-4.02-26.33-10.38
			c-4.08-3.37-8.83-5.91-12.99-9.19c-4.36-3.44-4.4-8.21-0.2-11.71c3.94-3.29,8.76-4.49,13.81-5.08
			c11.12-1.31,20.99,1.51,29.66,8.57c1.62,3.18,3.67,5.73,7.73,5.47C1844.91,628.37,1846.36,635.33,1846.19,642.15z"/>
		<path class="st46" d="M1964.09,610.04c0.37-3.36,2.54-6.35,2.05-9.89c4.24-0.49,8.47-0.78,13.65,0.42
			C1975.12,605.53,1970.47,609.1,1964.09,610.04z"/>
		<path class="st0" d="M2224.48,1286.29c-0.94,3.18-1.58,6.48-2.87,9.51c-2.41,5.68-6.07,10.28-12.47,11.89
			c-2.9,0.73-5.92,1.28-7.05,4.68c-2.48,2.07-5.41,2.04-8.43,2.03c-41.77-0.09-83.55-0.14-125.32-0.2
			c0.06-8.56,0.12-17.12,0.17-25.68c4.27-0.74,4.52-4.5,5.37-7.55c10.24-37.05,18.12-74.61,24.09-112.58
			c2.52-16.01,4.46-32.09,6.04-48.22c0.32-3.32,0.66-6.61-0.08-9.91c0.56-1.54,1.61-3.08,1.61-4.62c0-17.06,3.14-33.96,2.69-51.04
			c2.07,0.68,3.06,2.31,3.9,4.19c20.91,46.83,46.27,91.31,71.72,135.74c12.72,22.2,24.72,44.83,38.98,66.11
			c1.45,2.17,1.38,4.36,1.42,6.65C2224.36,1273.64,2224.41,1279.97,2224.48,1286.29z"/>
		<path class="st12" d="M1059.89,150.23c5.5-10.19,5.34-21.12,3.17-31.92c-1.27-6.33-0.97-12.52-0.93-18.79
			c0.02-3.03,1.2-5.38,4.67-5.04c20.06,1.99,31.82-10.32,42.54-24.49c1.19-1.57,2.51-3.06,4.05-4.93c5.36,4.73,8.23,10.32,8.58,17.3
			c0.36,7.22-0.73,14.7,3.69,21.25c0.48,0.71,0.49,2,0.25,2.9c-2.88,10.58-6.06,21.03-12.96,29.9c-2.78,3.58-6.55,4.2-10.66,4.13
			c-10.26,2.22-17.99-4.38-26.29-7.47c5.82,7.33,12.6,13.98,22.4,16.7c1.99,0.55,4.69,1.38,3.97,4.66
			c-1.84,6.63-6.71,8.47-12.9,8.01C1078.29,161.61,1068.82,156.56,1059.89,150.23z"/>
		<path class="st47" d="M1213.94,312.2c-19.31-1.55-37.96-5.68-55.69-13.72c-4.8-2.18-8.16-5.45-10.28-10.28
			c-3.2-7.3-6.62-14.49-9.95-21.73c-3.17-6.62-1.76-13.67-1.73-20.54c0.01-2.96,0.91-6.32,4.26-7.14c3.79-0.93,5.15,2.42,6.23,5.13
			c3.81,9.5,7.88,18.94,10.94,28.68c2.58,8.2,7.02,13.31,15.28,16.45c11.71,4.44,23.37,9.27,33.8,16.51
			C1209.56,307.46,1212.53,308.95,1213.94,312.2z"/>
		<path class="st48" d="M1102.38,154.44c-1.98-2.66-5.24-2.79-7.96-3.64c-11.17-3.48-17.43-11.82-24.24-23.15
			c11.71,5.82,21.58,10.24,32.12,12.89c-0.76,4.76,0.45,9.24,1.92,13.69C1103.61,154.38,1103,154.45,1102.38,154.44z"/>
		<path class="st49" d="M1011.93,290.5c-8.38-6.13-12.58-15.4-17.94-23.8c4.03-3.55,8.06-7.09,12.09-10.64
			c3.61,6.19,1.81,13.37,3.64,19.97C1010.98,280.63,1012.88,285.44,1011.93,290.5z"/>
		<path class="st20" d="M1278.23,1298.23c-9.61,0.04-19.23-0.09-28.84,0.18c-9.74,0.27-19.13-1.55-28.19-4.69
			c-24-8.33-45.65-2.52-65.91,10.77c-4.01,2.63-8.79,4.86-11.22,9.56c-2.99,0.11-5.97,0.3-8.96,0.3c-89.45,0.02-178.9,0.02-268.35,0
			c-2.98,0-5.97-0.25-8.95-0.39c4.05-5.63,4.08-12.52,5.62-18.87c3.25-13.46,5.85-27.08,8.72-40.64c2.19-2.55,5.34-2.46,8.25-2.92
			c28.74-4.53,54.39-17.24,80.09-29.95c6.76-3.34,4.23-6.94,1.2-10.98c-15.64-20.87-34.02-39.14-53.37-56.49
			c-3.91-3.51-8.84-6.12-10.12-11.86c-1.03-8.49,2.59-16.24,4.18-24.26c4.23-21.33,9.18-42.51,14.1-63.69
			c0.63-2.72,0.76-6,3.48-7.96c4.48,0.83,6.32,4.68,8.64,7.81c27.2,36.83,50,76.27,69.31,117.74c3.52,7.55,7.26,14.99,11.03,22.42
			c3,5.92,9.4,6.67,18.23,2.92c6.56-2.79,2.99-7.3,1.73-10.9c-9.96-28.42-14.96-57.34-9.2-87.38c3.52-18.33,11.54-34.56,22.8-49.44
			c12.84-16.96,38.13-16.37,47.24,6.04c4.21,10.35,5.98,20.06,2.16,30.91c-11.16,31.74-21.06,63.9-30.7,96.13
			c-1,3.35-5.07,8.27,0.52,10.26c5.41,1.92,12.3,2.89,16.07-3.71c3.96-6.93,7.37-14.19,10.74-21.44
			c4.87-10.47,11.99-19.14,20.47-26.82c8.33-7.55,17.92-9.81,28.74-6.98c11.04,2.88,15.08,10.72,10.59,21.32
			c-6.67,15.74-19.67,25.67-33.04,35.21c-2.91,2.08-6.72,3.01-8.42,6.34c-0.12,0.99,0.1,1.71,0.79,1.94
			c23.14,7.69,42.41,21.93,61.98,35.87c12.69,9.05,26.16,17.11,42.52,17.8c17.67,15.05,38.21,25.49,58.51,36.29
			c3.18,1.69,6.35,3.43,9.52,5.15C1280.42,1295.67,1279.45,1297,1278.23,1298.23z"/>
		<path class="st0" d="M535.76,1150.88c4.55,8.51,10.33,16.14,16.62,23.4c6.43,9.66,14.5,17.97,22.22,26.52
			c15.29,16.92,31.44,33.03,48.56,48.15c3.95,3.49,7.6,7.32,11.39,11c0.19,5.66-5.22,7.2-8.01,10.6
			c-9.09,11.09-17.25,22.65-21.57,36.52c-0.89,2.87-1.65,5.8-4.87,7.04c-21.73,0.09-43.48-0.12-65.2,0.49
			c-5.6,0.16-7-2.79-8.71-6.54c-1.07-6.1-6.16-7.02-10.86-8.24c-3.78-0.98-7.82-1.13-11.46-2.43c-6.55-2.34-12.49-5.75-15.24-12.78
			c8.75,0.15,8.76,0.77,11.18-8.89c10.28-41.02,23.32-81.31,32.36-122.65C532.67,1150.77,534.03,1150.72,535.76,1150.88z"/>
		<path class="st34" d="M689.94,1260.29c14.07,6.64,28.62,7.84,43.78,4.47c7.1-1.58,14.4-2.07,21.71-0.8
			c2.67,0.46,5.17,1.16,7.4,2.74c3.97,2.8,4.03,4.63-0.09,7.33c-2.49,1.64-5.22,2.92-7.88,4.29c-11.51,5.97-22.99,12.01-34.58,17.85
			c-8.41,4.24-15.28,10.56-22.71,16.14c-4.55,1.61-9.09,3.14-13.69,0.15c-3.54,0.62-5.56-1.69-7.22-4.14
			c-6.08-8.97-12.53-17.73-16.48-27.97c-0.21-0.94-0.26-1.88-0.19-2.84c0.05-0.47,0.1-0.95,0.15-1.42
			c10.01-2.48,19.31-6.21,26.13-14.51C686.99,1260.72,688.7,1260.7,689.94,1260.29z"/>
		<path class="st20" d="M661.97,1278.34c5.58,12.48,12.28,24.24,21.92,34.11c-1.51,2.51-4.03,1.88-6.25,1.88
			c-25.85-0.04-51.7-0.14-77.54-0.22c3.48-8.86,5.63-18.15,10.82-26.45c6.55-10.48,13.96-20,23.63-27.72
			c2.88,2.25,6.19,4.11,8.54,6.82c4.61,5.32,10.33,8.15,17.07,9.33c0,0,0.19,0.18,0.19,0.18
			C660.82,1277.02,661.36,1277.71,661.97,1278.34z"/>
		<path class="st0" d="M1212.15,1252.36c-3.78,3.72-8.02,2.06-12.04,0.81c-12.51-3.89-23.67-10.36-34.29-17.97
			c-13.76-9.86-27.14-20.32-42.7-27.48c-7.24-3.33-14.95-5.34-22.77-8.65c1.54-5.04,6.09-6.4,9.47-8.33
			c10.56-6.02,19.3-14.07,27.64-22.72c4.26-4.41,7.04-9.72,9.29-15.26c3.31-8.14-0.35-14.6-8.74-16.55
			c-11.58-2.69-21.12,0.07-29.91,8.5c-12.68,12.15-19.54,27.63-26.46,43.07c-2.67,5.96-5.44,8.71-12.38,8.48
			c-17.07-0.57-15.62,0.69-10.59-15.12c10.48-32.91,21.13-65.78,31.63-98.68c3.85-12.07-1.58-29.99-11.36-38.12
			c-8.04-6.68-21.03-6.18-29.24,1.51c-9.89,9.26-16.58,20.74-21.53,33.21c-10.15,25.56-10.27,51.75-4.78,78.33
			c2.76,13.38,7.63,26.1,11.83,39.72c-7.29,3.54-15.23,4-22.75,5.87c-3.09,0.77-3.52-2-4.5-4.14c-5.22-11.5-10.21-23.13-15.97-34.36
			c-12.29-23.95-25.03-47.67-39.25-70.57c-10.18-16.4-21.68-31.86-32.82-47.58c-2.1-6.84,1.36-13.09,2.6-19.4
			c4.8-24.37,10.56-48.55,15.88-72.81c5.32-24.26,10.54-48.53,15.84-72.8c0.42-1.94,1.42-3.8,1.58-5.75
			c0.37-4.46,3.06-5.43,6.86-5.21c1.66,0.1,3.33,0.01,5,0.01c68.33,0,136.65,0,204.98,0c10.88,0,11.06-0.02,13.5,10.99
			c9.43,42.68,18.67,85.41,28.11,128.1c6.08,27.49,12.28,54.96,18.66,82.39c1.72,7.39,1.96,15.13,5.02,22.21
			c-10.75,1.65-12.44,3.68-12.14,14.03c0.16,5.45,2.01,10.38,4.06,15.3c5.78,13.87,13.92,26.42,21.82,39.09
			c1.05,1.68,2.46,3.16,2.67,5.27c8.68,18.58,10.31,38.97,14.95,58.59c0.53,2.25,0.5,4.64-1.34,6.53
			c-3.88,0.13-6.93-1.92-10.16-3.67c-10.86-5.88-21.95-11.05-34.55-12.21c-3.39-0.31-6.53-0.37-9.81,0.49
			c-8.89,2.32-9.95,5.9-3.64,13.01C1210.49,1251.21,1211.37,1251.74,1212.15,1252.36z"/>
		<path class="st0" d="M898.18,1142.24c24.65,20.26,47.08,42.69,66.65,67.93c1.42,1.83,2.59,3.84,3.93,5.74
			c1.79,2.54,0.97,4.4-1.59,5.58c-27.63,12.76-54.57,27.33-85.13,32.34c-3.25,0.53-6.61,0.43-9.92,0.62
			c8.03-36.31,16.07-72.61,24.07-108.93C896.5,1144.14,897.12,1143.09,898.18,1142.24z"/>
		<path class="st15" d="M1268,1252.86c-4.54-21.7-9.08-43.41-13.61-65.12c9.81,13.24,19.61,26.49,29.41,39.74
			c2.15,2.91,4.27,5.84,6.41,8.76c-0.37,5.1,3.23,9.08,3.95,13.89c0.91,5.75,2.28,11.4,3.31,17.11c0.63,3.48,2.27,7.86-3.39,9.27
			c-7.04-6.04-13.93-12.26-21.64-17.48C1270.29,1257.57,1267.94,1256.01,1268,1252.86z"/>
		<path class="st20" d="M1294.08,1276.5c3.29-2.69,1.51-5.74,0.8-8.85c-1.43-6.27-3.67-12.45-2.7-19.07
			c1.47-2.51,3.95-2.29,6.33-2.35c9.44,12.71,19.3,25.08,29.58,37.12c1.29,1.51,2.73,2.92,3.76,4.59c2.65,4.3,1.88,5.87-2.96,6.29
			c-2.96,0.26-6.2-0.38-8.87,0.6c-4.95,1.82-8.44-0.11-11.55-3.31C1303.63,1286.56,1298.14,1282.22,1294.08,1276.5z"/>
		<path class="st50" d="M1298.51,1246.23c-1.44,2.58-4.05,2.03-6.33,2.35c-1.73-3.94-6.35-7.43-1.97-12.35
			C1292.97,1239.57,1295.74,1242.9,1298.51,1246.23z"/>
		<path class="st51" d="M1278.23,1298.23c-0.22-1.86,0.2-3.43,1.94-4.43c1.7,0.76,3.73,1.04,4.89,3.6
			C1282.97,1299.01,1280.52,1298.24,1278.23,1298.23z"/>
		<path class="st52" d="M1092.19,664.37c-0.32-1.73-0.08-3.26,1.5-4.34c0.3,1.3,0.61,2.59,0.92,3.89
			C1093.8,664.07,1093,664.22,1092.19,664.37z"/>
		<path class="st53" d="M476.37,818.52c5.96,12.45,8.68,26,13.16,38.96c1.3,3.74,2.78,7.3,4.69,10.72
			c-5.83,1.5-9.82-2.76-14.16-5.07c-21.72-11.55-42.08-25.28-60.96-41.04c-15.03-12.54-29.02-26.12-41.82-41.11
			c-11.89-13.92-22.71-28.48-33.05-43.5c-1.27-1.84-3.06-3.46-2.37-6.93c10.5,7.3,20.62,14.45,30.85,21.44
			c29.6,20.22,60.31,38.7,90.56,57.9C467.68,812.7,473.44,813.47,476.37,818.52z"/>
		<path class="st18" d="M661.97,1278.34c-0.54-0.69-1.08-1.38-1.62-2.07C660.89,1276.96,661.43,1277.65,661.97,1278.34z"/>
	</g>
</g>
<g id="Firma__x28_unir_a_object_x29_">
</g>
</svg>
