<?xml version="1.0" encoding="utf-8"?>
<!-- Generator: Adobe Illustrator 23.0.1, SVG Export Plug-In . SVG Version: 6.00 Build 0)  -->
<svg version="1.1" id="_x3C_Layer_x3E_" xmlns="http://www.w3.org/2000/svg" xmlns:xlink="http://www.w3.org/1999/xlink" x="0px"
	 y="0px" viewBox="0 0 2558.84 1975.97" style="enable-background:new 0 0 2558.84 1975.97;" xml:space="preserve">
<style type="text/css">
	.st0{fill:#D1C6BA;}
	.st1{fill:#9B958F;}
	.st2{fill:#FBECDB;}
	.st3{fill:#A8D29F;}
	.st4{fill:#4A75CB;}
	.st5{fill:#699DEE;}
	.st6{fill:#D86713;}
	.st7{fill:#F1A34F;}
	.st8{fill:#C95C12;}
	.st9{fill:#82B378;}
	.st10{fill:#FFB973;}
	.st11{fill:#ED975D;}
	.st12{fill:#2B478B;}
	.st13{fill:#233862;}
	.st14{fill:#1E3D70;}
	.st15{fill:#FFB27D;}
	.st16{fill:#4A82D3;}
	.st17{fill:#A9453D;}
	.st18{fill:#2C3A64;}
	.st19{fill:#EE9849;}
	.st20{fill:#E58638;}
	.st21{fill:#2A4E96;}
	.st22{fill:#35488B;}
	.st23{fill:#4271BC;}
</style>
<path class="st0" d="M2188.42,951.89c0.12-0.23-35.32,22.53-35.2,22.3c12.31-22.37-99.46,157.38-91.09,181.5
	c62.28,179.65,422.89,257.07-88.83,257.07c-389.98,0-229.33,167.18-494.47,360.66c-265.14,193.48-1192.38,348.06-1389.74-25.56
	c-101.67-192.48-21.52-361.08,15.66-472.67c1.63-4.89,4.49-9.25,8.32-12.69c24.79-22.24,121.13-118.69,132.31-283.32
	c1.05-15.5,13.87-27.57,29.4-27.57l1735.69,9.75C2021.2,961.37,2183.24,961.29,2188.42,951.89z"/>
<path class="st1" d="M347,1669.05h999.71c103.06,0,186.61-83.55,186.61-186.61v0c0-103.06-83.55-186.61-186.61-186.61H347
	c-103.06,0-186.61,83.55-186.61,186.61v0C160.4,1585.5,243.94,1669.05,347,1669.05z"/>
<path class="st2" d="M161.82,1482.44c-56.98,0-107.35-36.89-124.66-91.17C-16.5,1222.95-74.08,880.44,346.17,880.44
	c294.38,0,173.11-165.17,373.25-356.32c200.14-191.15,900.06-343.87,1049.04,25.25c148.97,369.12-219.19,649.37,136.56,601.29
	c173.62-23.46,304.58,26.85,398.9,94.89c102.94,74.26,50.38,236.88-76.55,236.88H161.82z"/>
<path class="st3" d="M2541.82,1272.98c-26.38-19.28-80.28-6.26-120.07,7.66c-5.94-8.35-13.15-16.96-21.87-25.37
	c85.71-55.21,204.08-172.95,141.34-182.92c-54.54-8.66-128.14,97.32-167.48,161.83c-40.85-27.48-103.44-47.68-199-40.67
	c-248.01,18.18-441.76-141.79-584.58-88.44c-113.55,42.42-217.62,66.19-317.98,58.07c4.32-73.32,5.26-217.27-52.32-232.2
	c-58.45-15.16-1.12,148.32,30.75,229.95c-7.48-0.96-14.94-2.1-22.38-3.42c-20.63-40.68-54.63-93.92-91.97-95.75
	c-35.16-1.71,8.23,46.15,50.94,86.7c-122.73-25.77-268.32,74-270.74,191.96h1532.26c0,0-2.71-17.22-14.74-39.92
	C2493.21,1299.3,2570.47,1293.92,2541.82,1272.98z"/>
<g>
	<g>
		<rect x="846.86" y="1249.21" class="st4" width="403.85" height="91.19"/>
		<rect x="722.34" y="1249.2" class="st5" width="403.84" height="91.2"/>
	</g>
</g>
<g>
	<g>
		<g>
			
				<rect x="1409.57" y="920.06" transform="matrix(-1 -1.224647e-16 1.224647e-16 -1 3119.855 2260.4429)" class="st6" width="300.71" height="420.31"/>
			
				<rect x="1316.85" y="920.06" transform="matrix(-1 -1.224647e-16 1.224647e-16 -1 2934.4165 2260.4429)" class="st7" width="300.71" height="420.31"/>
		</g>
	</g>
	<polygon class="st8" points="1617.56,920.06 1710.28,983.18 1710.28,920.06 	"/>
</g>
<g>
	<path class="st9" d="M689.3,1013.17c0,0-56.24,41.82-67.2,39.28c-10.97-2.54,41.1-45.14,41.1-45.14
		c-19.59-9.42-80.49-3.51-80.49-3.51s-20.29,65.42-30.29,60.26c-10-5.16,20.92-57.01,20.92-57.01
		c-21.82-1.32-48.58,14.89-48.58,14.89c-36.64,28.93,2.41,74.49,2.41,74.49s-7.52,22.52-30.66,43.03c0,0-33.04,24.44-35.34,68.1
		l6,0.54c0,0,9.51-40.67,26.79-59.9c0.67-0.7,1.65-1.7,2.85-2.91c2.82-2.61,4.79-4.56,6.11-6.02c8.6-8.26,20.48-18.79,26.21-19.81
		c0,0-0.29-1.05-0.24-2.88c0.08,0.92,0.16,1.87,0.24,2.88c1.96,23.02,46.63,43.13,74.11,47.26c27.48,4.13,18.98-7.16,9.52-23.91
		c-9.47-16.75-39.43-24.24-46.27-31.96c-6.84-7.71,7.3-7.73,23.85-0.17c16.55,7.56,18.82,27.72,45.38,40.44
		c26.56,12.72,66.52-31.35,66.52-31.35c-21.17-1.07-51.39-24.06-50.3-31.09c1.09-7.03,51.31,12.13,59.89,13.05
		c8.58,0.92,28.12-9.76,31.14-44.34C745.98,1022.81,689.3,1013.17,689.3,1013.17z"/>
	<g>
		<path class="st3" d="M390.64,1039.13c0,0,62.11-34.78,33.13-81.99c0,0-23.19-28.99-48.03-36.44c0,0,13.25,70.4,0,72.05
			c-13.25,1.66-9.11-79.5-9.11-79.5s-65.43-31.47-91.1-28.99c0,0,40.58,68.74,27.33,67.08c-13.25-1.66-58.8-71.22-58.8-71.22
			s-67.08-12.42-77.85,27.33c-10.77,39.75,6.63,59.63,16.56,62.11c9.94,2.48,73.71,1.66,72.05,9.94
			c-1.66,8.28-44.72,21.53-68.74,14.08c0,0,26.5,65.43,61.29,62.11c34.78-3.31,45.55-24.85,67.08-26.5s37.27,4.14,26.5,9.94
			c-10.77,5.8-47.21,1.9-64.6,16.68c-17.39,14.79-31.47,23.9,0.83,30.52c32.3,6.63,90.27,2.48,101.86-22.36
			C390.64,1039.13,390.64,1039.13,390.64,1039.13z"/>
		<path class="st9" d="M407.2,1099.59c-17.39-32.3-16.56-60.46-16.56-60.46c-19.88-62.94-193.79-119.26-193.79-119.26
			c221.12,89.44,182.2,144.1,182.2,144.1c5.96,3.48,14.89,20.05,21.1,32.77c0.88,2.16,2.28,5.16,4.36,9.22l0,0
			c0.84,1.84,1.52,3.34,1.98,4.39c11.38,28.49,5.35,77.68,5.35,77.68l6.9,1.85C434.02,1140.32,407.2,1099.59,407.2,1099.59z"/>
	</g>
	<g>
		<path class="st3" d="M489.45,991.16c0,0-81.88-45.85-43.67-108.08c0,0,30.57-38.21,63.32-48.03c0,0-17.47,92.79,0,94.98
			c17.47,2.18,12.01-104.8,12.01-104.8s86.24-41.48,120.09-38.21c0,0-53.49,90.61-36.03,88.43c17.47-2.18,77.51-93.88,77.51-93.88
			s88.43-16.38,102.62,36.03c14.19,52.4-8.73,78.6-21.83,81.88c-13.1,3.28-97.16,2.18-94.98,13.1s58.95,28.38,90.61,18.56
			c0,0-34.93,86.24-80.78,81.88c-45.85-4.37-60.04-32.75-88.43-34.93s-49.13,5.46-34.93,13.1c14.19,7.64,62.23,2.5,85.15,21.99
			c22.92,19.49,41.48,31.5-1.09,40.23c-42.57,8.73-118.99,3.28-134.28-29.48C489.45,991.16,489.45,991.16,489.45,991.16z"/>
		<path class="st9" d="M744.91,833.96c0,0-229.25,74.23-255.45,157.2c0,0,1.09,37.12-21.83,79.69c0,0-35.35,53.69-15.2,119.04
			l9.1-2.44c0,0-7.95-64.84,7.06-102.39c0.61-1.38,1.5-3.37,2.61-5.79c0,0,0,0,0,0c2.74-5.36,4.58-9.31,5.75-12.16
			c8.17-16.76,19.95-38.61,27.81-43.19C504.74,1023.91,453.43,951.86,744.91,833.96z"/>
	</g>
	<path class="st7" d="M486.69,1331.62c88.58,0,160.38-71.81,160.38-160.38H326.31C326.31,1259.81,398.12,1331.62,486.69,1331.62z"/>
	<path class="st10" d="M526.16,1330.39c-6.52,0.81-13.17,1.23-19.93,1.23c-88.57,0-160.38-71.81-160.38-160.38h39.84
		C385.7,1253.07,446.98,1320.58,526.16,1330.39z"/>
	<path class="st7" d="M629.5,1320.59H343.88c-10.93,0-19.79,8.86-19.79,19.79h325.2C649.29,1329.45,640.43,1320.59,629.5,1320.59z"
		/>
	<path class="st6" d="M648.26,1171.23H323.5c-1.36,0-2.46,1.1-2.46,2.46s1.1,2.46,2.46,2.46h324.77c1.36,0,2.46-1.1,2.46-2.46
		S649.62,1171.23,648.26,1171.23z"/>
</g>
<path class="st11" d="M1910.16,323.84c-5.24-0.85-21.04,14.76-21.04,14.76l0,0c-33.74,4.16-83.06,13.74-100.81,17.39
	c-12.59,2.59-46.44-9.74-79.5-23.9c-39.32-16.84-77.54-36.28-77.54-36.28c-21.82-1.19-46.6,41.35-2.35,68.39
	c6.75,4.13,32.14,11.17,61.36,17.61c0,0,0,0,0.01,0c40.32,8.88,87.95,16.58,104.16,13.87c18.83-3.15,72.14-23.99,103.85-39.94v0
	c0,0,0.03-0.02,0.08-0.04c0.12-0.06,0.23-0.12,0.35-0.18c1.9-0.95,9.67-4.64,14.85-4.32c5.94,0.38,19.17-11.24,19.58-14.34
	C1933.57,333.76,1915.4,324.69,1910.16,323.84z"/>
<path class="st12" d="M1849.34,771.36l-16.47,3.35c0,0-75.37-84.68-87-120.32c-6.22-19.04-46.01-27.27-87.6-38.02
	c-36.19-9.36-73.74-20.63-91.68-42.63c-38.55-47.26,24.21-105.34,24.21-105.34s66.72,39.66,124.29,80.62
	c40.23,28.63,75.99,57.9,81.38,74.72C1809.56,664.65,1837.32,742.41,1849.34,771.36z"/>
<path class="st13" d="M1827.3,799.3h9.26c3.1-0.49,5.39-1.39,8.58-1.8c4.83-0.63,7.06,1.35,7.5,1.8c0.06,0.06,0.09,0.09,0.09,0.09
	h39.35c0.99-1.41,0.04-4.69-0.89-7.1c-0.63-1.64-1.99-2.88-3.68-3.37c-4.17-1.21-12.4-2.29-19.93-9.11
	c-4.24-3.83-20.47-14.08-20.47-14.08l-0.09-0.02c-0.36,0.01-2.05,0.53-9.44,6.76c-3.82,3.22-10.32-4.54-10.32-4.54
	s-1.22,1.01-2.13,2.89c-0.73,1.49-1.27,3.53-0.85,6.04c0.59,3.55-1.31,10.14-2.82,14.59c-0.92,2.7-1.69,4.62-1.69,4.62
	S1819.33,798.3,1827.3,799.3z"/>
<path class="st14" d="M1715.1,549.02l-56.82,67.35c-36.19-9.36-73.74-20.63-91.68-42.63c-38.55-47.26,24.21-105.34,24.21-105.34
	S1657.54,508.05,1715.1,549.02z"/>
<path class="st12" d="M1663.47,513.85c0,0-4.58,14.44-12.04,36.17c-9.43,27.48-23.47,66.6-38.71,102.88
	c-3.35,7.97-6.76,15.81-10.18,23.36c-12.67,27.92-25.64,51.85-37.05,64.02c-20.52,21.87-70.39,162.43-70.39,162.43l-12.43-3.44
	c0,0-17.33-120.03,44.05-188.33c0.66-0.73,1.17-1.57,1.24-2.55c0.01-0.01,0.01-0.02,0.01-0.03c0.82-10.11,3.74-55.39,10.09-101.26
	c1.56-11.26,3.33-22.54,5.32-33.35c0.12-0.69,0.26-1.38,0.38-2.06c9.34-50,18.28-72.24,29.82-83.42l84.86,24.16L1663.47,513.85z"/>
<path class="st13" d="M1481.28,919.97h9.26c3.1-0.49,5.39-1.39,8.58-1.8c4.83-0.63,7.06,1.35,7.5,1.8c0.06,0.06,0.09,0.09,0.09,0.09
	h39.35c0.99-1.41,0.04-4.69-0.89-7.1c-0.63-1.64-1.99-2.88-3.68-3.37c-4.17-1.21-12.4-2.28-19.93-9.1
	c-4.24-3.83-20.47-14.09-20.47-14.09l-0.09-0.02c-0.36,0.01-2.05,0.53-9.44,6.76c-3.82,3.22-10.32-4.54-10.32-4.54
	s-1.22,1.01-2.13,2.89c-0.73,1.48-1.27,3.53-0.84,6.04c0.59,3.55-1.31,10.14-2.82,14.59c-0.92,2.7-1.69,4.62-1.69,4.62
	S1473.31,918.98,1481.28,919.97z"/>
<path class="st15" d="M1494,358.21c0,0-17.83,39.72-37.98,78.22c-16.94,32.37-35.52,63.88-46.52,70.21
	c-15.52,8.92-58.3,34.14-86.2,53.17c0,0-20.86-1.35-24.34,2.73c-3.48,4.09-12.05,22.84-9.98,24.9c2.07,2.07,18.71,2.1,22.99-2.08
	c3.73-3.65,11.72-5.98,13.7-6.51c0.12-0.03,0.24-0.06,0.37-0.1c0.05-0.01,0.08-0.02,0.08-0.02v0c33.1-8.84,85.33-28.21,101.37-38.22
	c13.81-8.62,45.46-45.71,70.9-78.88c0.01,0,0.01,0,0.01,0c18.44-24.04,33.63-46.02,36.39-53.56
	C1552.86,358.68,1509.84,342.98,1494,358.21z"/>
<path class="st15" d="M1578.24,322.01c-16.19,7.63-37.67-3.36-37.55-3.48c1.39-1.39,0.9-5.54-0.37-10.98
	c-1.27-5.67-4.28-13.41-9.83-22.66c-1.16-1.97-2.31-3.93-3.7-6.01l1.85-0.69l31.45-12.6c0,0,5.09,9.13,10.41,17.46
	c4.51,6.94,9.25,13.18,11.33,12.95C1581.93,295.88,1602.75,310.21,1578.24,322.01z"/>
<path class="st11" d="M1560.08,268.7c-0.81,11.21-4.63,31.45-19.77,38.85c-1.27-5.67-4.28-13.41-9.83-22.66L1560.08,268.7z"/>
<path class="st15" d="M1528.64,297.66c0,0,40.94-16.14,30.5-41.48c-10.44-25.34-12.19-44.49-38.77-35.26
	c-26.58,9.23-27.65,20.98-26.22,30.29C1495.58,260.51,1517.72,301.2,1528.64,297.66z"/>
<path class="st5" d="M1656.19,374.22c-0.35-1.22-0.72-2.49-1.11-3.79c6.08-11.62,9.07-22.1,10.33-30.96
	c2.78-18.73-1.96-30.29-1.96-30.29s-28.4-15.06-40.94-16.98c-0.05-0.02-0.11-0.04-0.16-0.05c-0.15-0.02-0.32-0.04-0.5-0.05
	c-12.66-1.75-40.06,3.85-40.06,3.85s5.29,14.07-9.63,23.46c-14.91,9.38-30.84-2.4-30.84-2.4c-0.48,0.32-0.99,0.68-1.52,1.05
	c0,0,0,0,0,0c0,0-39.24,25.89-42.77,31.81c-3.52,5.92-18.62,35.21-18.62,35.21s4.79,24.6,57.8,26.65
	c4.36,10.57,7.69,20.88,8.78,29.48c4.21,33.39-0.68,59.72,4.23,79.21c4.91,19.49,93.36,8.38,109.38,4.63
	c16.02-3.75,12.42-20.85,13.65-37.47C1673.79,466.69,1661.41,392.64,1656.19,374.22z"/>
<path class="st16" d="M1665.41,339.47c-1.27,8.9-4.28,19.42-10.41,31.1c-1.39-6.13-7.05-28.56-16.19-38.73
	C1638.82,331.83,1654.2,333.22,1665.41,339.47z"/>
<g>
	<path class="st11" d="M1305.26,558.28c0,0,16.48-19.97,20.03-22.33c3.55-2.36,19.11-6.5,20-5.67c0.89,0.83,0.93,2.04-1,3.74
		c-1.93,1.7-9.29,6-8.24,6.48c1.05,0.48,23.26-10.57,26.46-6.85c3.2,3.72-1.81,19.07-10.37,26.43s-34.1,10.5-35.71,11.52
		C1302.81,580.32,1305.26,558.28,1305.26,558.28z"/>
	<path class="st15" d="M1015.13,512.16c0,0,23.67,28.09,53.82,16.34c0,0,6.49-15.69,6.58-27.25c0.01-1.42,0.03-2.8,0.05-4.11
		c0.16-13.02,0.6-20.33,0.6-20.33s-0.01,0-0.03-0.01c-1.37-0.57-46.09-18.93-46.05-17.41
		C1030.87,494.62,1015.13,512.16,1015.13,512.16z"/>
	<path class="st11" d="M1034.59,467.8c4.31,7.99,19.11,23.63,40.99,29.34c0.16-13.02,0.6-20.33,0.6-20.33s-0.01,0-0.03-0.01
		C1074.91,476.47,1033.31,465.44,1034.59,467.8z"/>
	<path class="st15" d="M1085.55,475.46c0,0-50.29,11.82-57.17-19.61c-6.88-31.43-18-51.07,13.81-59.95
		c31.82-8.88,40.7,1.75,45.55,11.68C1092.59,417.51,1098.45,471.57,1085.55,475.46z"/>
	<path class="st17" d="M1030.1,464.41c-0.69,0.44-11.51,3.76-32-37.06c-3.22-6.41-5.41-20.27,2.09-32.52
		c7.5-12.25,34.09-21.88,56.18-26.07c22.09-4.19,27.39,8.24,32.6,20.73c5.46,13.11,21.23,23.91,21.23,23.91
		c-19.05,10.64-41.99-4.58-49.94-2.08c-7.95,2.5-10.76,15.03-11.35,19.05c-0.6,4.01-1.51,7.35-11.51,3.76
		c-10-3.59-4.52,14.17-2.92,17.56C1034.47,451.7,1035.83,460.74,1030.1,464.41z"/>
	<g>
		<path class="st18" d="M900.56,1249.21h-30.45c-6.38,0-13.48-6.48-15.25-18.33c-1.78-11.87-14.9-18.33-17.74-28.04
			c-2.84-9.71,11.71-23.37,11.71-23.37l2.43-3.17l2.53-3.3l24.12,5.75c0,0,0.59,5.82,0.97,13.23c0.26,5.35,0.4,11.54,0.1,16.97
			c-0.71,12.95,3.58,26.88,14.92,29.4C905.25,1240.86,900.56,1249.21,900.56,1249.21z"/>
		<path class="st18" d="M1112.53,1249.5h-80.71c-0.77-0.16-1.36-0.33-1.71-0.51c-5.39-2.78-3.7-24.02-3.05-30.58
			c0.13-1.21,0.21-1.93,0.21-1.93s28.38-23.37,32.29-5.48c0.12,0.56,0.27,1.11,0.42,1.65v0.01c4.93,16.75,26.95,24.35,39.67,26.47
			C1109.36,1240.75,1111.89,1246.59,1112.53,1249.5z"/>
		<path class="st19" d="M1096.27,782.75c0,0-4.31,53.78-9.38,118.42c-6.89,87.82-15.17,195.68-15.99,216.11
			c-1.42,35.48-7.1,92.24-7.1,92.24s-13.47,13.48-40.44,7.8c0,0-24.03-81.02-30.9-166.75c-0.11-1.41-0.21-2.82-0.32-4.24
			c-6.38-87.27-16.32-271.04-16.32-271.04L1096.27,782.75z"/>
		<path class="st20" d="M1096.27,782.75c0,0-4.31,53.78-9.38,118.42l-94.42,149.41c-0.11-1.41-0.21-2.82-0.32-4.24
			c-6.38-87.27-16.32-271.04-16.32-271.04L1096.27,782.75z"/>
		<path class="st19" d="M1076.58,789.14c0,0-77.69,194.76-128.78,286.29c-51.09,91.53-67.05,117.07-67.05,117.07
			s-29.27-11.71-31.93-19.69c0,0,19.54-176.7,53.75-219.78c19.33-24.34,42.04-97.38,43.1-122.92c1.06-25.54,6.92-76.1,6.92-76.1
			L1076.58,789.14z"/>
	</g>
	<g>
		<path class="st11" d="M898.7,756.7c0,0-2.01,24.32-3.49,28.06c-1.47,3.73-11.3,15.31-12.43,15.15c-1.14-0.17-1.82-1.08-1.24-3.43
			c0.58-2.36,3.96-9.64,2.89-9.45c-1.07,0.19-12.32,20.7-16.79,19.54c-4.48-1.16-8.86-15.74-6.19-26.04
			c2.66-10.3,20.75-26.47,21.44-28.13C888.74,738.32,898.7,756.7,898.7,756.7z"/>
		<path class="st14" d="M890.36,762.87c8.6,2.76,9.98,2.14,9.98,2.14s41.85-76.2,46.09-83.18c4.24-6.98,88.87-85.45,88.87-85.45
			l-21.75-81.1c0,0-96.25,124.64-106.65,142.53c-17.18,29.55-27.24,98.2-27.24,98.2S883.61,760.7,890.36,762.87z"/>
	</g>
	<path class="st21" d="M1112.67,628.21c-0.3,16.66-1.27,35.38-2.57,54.39c-0.08,1.13-0.16,2.26-0.24,3.38
		c-0.84,11.78-1.74,23.59-2.78,35.1c-0.42,4.62-0.86,9.18-1.32,13.66l-0.07,0.6c-0.04,1.68-0.24,3.5-0.43,5.16
		c-4.24,43.13-8.69,77.2-9.52,77.72c-0.99,0.66-2.1,0.99-3.31,0.84c-11.31-1.42-45.05,1.15-72.68-4.87
		c-23.31-4.92-43.38-14.24-64.66-26.81c-2.82-1.67-9.26-6.09-8.74-9.39c0.51-3.63,1.46-8.88,2.67-15.47
		c4.19-22.94,11.42-62.4,13.89-108.58c0.48-8.6,1.18-17.1,2.09-25.45c2.37-21.76,6.17-42.43,11.27-60.79
		c9.47-34.11,23.39-60.22,40.85-70.44c2.28-1.28,14.56,6.53,25.83,13.77c10.41,6.68,21.38,8.52,32.04,7.59l9.38,10.38
		c11.36,13.21,23.46,30.8,26.77,55.79c0.25,1.85,0.46,3.81,0.64,5.89C1112.7,600.89,1112.92,613.78,1112.67,628.21z"/>
	<path class="st14" d="M1112.67,628.21c-0.3,16.66-1.27,35.38-2.57,54.39c-0.08,1.13-0.16,2.26-0.24,3.38
		c-64.6-40.44-74.55-114.43-74.55-114.43c31.78,1.39,57.03,8.7,76.49,19.15C1112.7,600.89,1112.92,613.78,1112.67,628.21z"/>
	<g>
		<path class="st21" d="M1315.06,560.27c-3.33-9.01-8.51-8.42-8.51-8.42s-96.05,23.94-104.67,24.96
			c-8.62,1.03-103.43-37.02-103.43-37.02s-37.32-16.75-54.8-1.46c-15.19,13.29-15.88,30.12-12.33,44.26
			c4.24,16.85,18.49,29.29,35.72,31.49c38.68,4.93,115.86,14.2,132.03,11.95c36-5.01,117.58-52.1,117.58-52.1
			S1317.68,567.35,1315.06,560.27z"/>
	</g>
</g>
<g id="man_2_">
	<g>
		<path class="st18" d="M2262.2,736.33c0,0,13.34,12.37,10.74,21.16c-2.6,8.79-14.65,14.65-16.27,25.39s-8.14,16.6-14,16.6
			s-27.93,0-27.93,0s-4.31-7.56,6.1-9.84c10.42-2.28,14.34-14.9,13.69-26.62c-0.65-11.72,0.98-27.34,0.98-27.34l22.13-5.21
			L2262.2,736.33z"/>
		<path class="st18" d="M2095.88,798.01c-1.35,0.68-6.11,1.15-12.64,1.46h-63.16c0.21-1.88,1.68-8.58,12.01-10.24
			c11.67-1.9,31.88-8.68,36.39-23.6c0.15-0.48,0.28-0.97,0.39-1.46c3.58-15.95,29.61,4.88,29.61,4.88s0.08,0.64,0.19,1.73
			C2099.28,776.63,2100.82,795.54,2095.88,798.01z"/>
		<path class="st22" d="M2035.18,371.44c0,0,3.95,49.34,8.6,108.65c6.32,80.57,13.92,179.53,14.67,198.28
			c1.3,32.55,6.51,84.63,6.51,84.63s12.36,12.37,37.11,7.16c0,0,22.05-74.34,28.35-152.99c0.1-1.29,0.2-2.59,0.29-3.89
			c5.86-80.07,14.97-248.67,14.97-248.67L2035.18,371.44z"/>
		<path class="st18" d="M2035.18,371.44c0,0,3.95,49.34,8.6,108.65l86.63,137.07c0.1-1.29,0.2-2.59,0.29-3.89
			c5.86-80.07,14.97-248.67,14.97-248.67L2035.18,371.44z"/>
		<path class="st22" d="M2053.24,377.3c0,0,71.28,178.69,118.15,262.66c46.87,83.97,61.52,107.41,61.52,107.41
			s26.85-10.74,29.29-18.06c0,0-17.92-162.12-49.31-201.63c-17.74-22.33-38.57-89.34-39.54-112.78
			c-0.98-23.43-6.35-69.82-6.35-69.82L2053.24,377.3z"/>
	</g>
	<g>
		<path class="st15" d="M1833.38,280.38c0,0-19.33-4.42-22.59-4.2c-3.25,0.22-14.64,4.99-14.79,5.91c-0.15,0.92,0.39,1.67,2.35,1.81
			c1.97,0.13,8.44-0.7,8.03,0.08c-0.41,0.78-19.06,4.45-19.26,8.2c-0.21,3.75,10.01,10.73,18.64,11.2
			c8.63,0.47,25.6-9.56,27.06-9.69C1845.17,292.61,1833.38,280.38,1833.38,280.38z"/>
		<path class="st20" d="M1825.1,285.29c-2.77-8.83-2.12-10.24-2.12-10.24s78.37-42.38,85.55-46.68c7.18-4.3,88.17-90.49,88.17-90.49
			l82.96,22.83c0,0-128.38,97.79-146.78,108.33c-30.4,17.4-100.81,27.25-100.81,27.25S1827.28,292.23,1825.1,285.29z"/>
	</g>
	<path class="st15" d="M2021.84,95.99c0,0-29.08,51.17-57.51,57.85c0,0,1.18-17.19,8.11-28.95c-2.83-3.34-5.32-6.41-7.48-9.16
		c-7.16-9.17-10.56-14.78-10.56-14.78l9.65-25.94l6.55-17.6c3.15,5.71,6.61,10.58,10.23,14.74
		C1999.45,93.57,2021.84,95.99,2021.84,95.99z"/>
	<path class="st11" d="M1980.82,72.15c0,0,3.47,25.64-15.87,43.58c-7.16-9.17-10.56-14.78-10.56-14.78l9.65-25.94
		C1974.39,71.86,1980.82,72.15,1980.82,72.15z"/>
	<path class="st15" d="M1946.73,104.73c0,0,43.46-16.94,32.49-43.84c-10.97-26.9-12.74-47.2-40.95-37.52
		c-28.21,9.68-29.38,22.13-27.9,32C1911.84,65.23,1935.15,108.44,1946.73,104.73z"/>
	<path class="st19" d="M2171.21,358.58c-17.53,25.2-148.59,58.88-147.04,41.43c0.59-6.68,1.39-18.45-0.02-34.41
		c-0.33-3.74-0.79-7.7-1.39-11.89c-3.33-22.92-11.24-52.4-28.88-86.51c-1.32-2.56-2.7-5.13-4.13-7.74
		c-7.26-13.21-13.45-27.17-18.17-40.83c-9.08-26.24-12.74-51.35-8.16-67.76c0.02-0.08,0.04-0.15,0.07-0.23
		c27.4-12.67,38.01-61.8,38.01-61.8s93.47,16.78,145.82,141.37C2147.33,230.21,2186.46,336.64,2171.21,358.58z"/>
	<path class="st20" d="M2024.15,365.6c-0.33-3.74-0.79-7.7-1.39-11.89c-3.33-22.92-11.24-52.4-28.88-86.51
		c3.03-18.36,7.21-33.63,11.8-40.5c18.64-27.94,29.5-32.3,29.5-32.3S2063.13,312.29,2024.15,365.6z"/>
	<g>
		<path class="st15" d="M1876.82,337.55c0,0-25.86,1.36-29.86,2.8c-4.01,1.44-16.6,11.49-16.46,12.7c0.14,1.21,1.09,1.96,3.6,1.43
			c2.52-0.54,10.35-3.89,10.11-2.76c-0.24,1.13-22.34,12.4-21.26,17.18c1.08,4.79,16.4,9.89,27.41,7.4
			c11.01-2.5,28.73-21.16,30.51-21.83C1895.99,348.7,1876.82,337.55,1876.82,337.55z"/>
		<path class="st19" d="M1871.94,347.36c-5.18-8.37-1.45-12.19-1.45-12.19s79.87-62.54,86.13-68.86
			c6.26-6.32,35.26-106.92,35.26-106.92s9.98-40.71,33.36-45.2c20.31-3.9,34.35,6.15,43.54,17.93c10.95,14.04,12.02,33.4,2.94,48.71
			c-20.39,34.36-61.53,102.58-73.55,114.23c-26.74,25.94-116.2,62.18-116.2,62.18S1876.01,353.93,1871.94,347.36z"/>
	</g>
	<path class="st12" d="M1985.46,10.92c0.3-0.6,1.19-1.24,3.35-1.9c0,0-2.02-0.68-4.38-0.16c-1.22-2.98-4.18-8.05-9.75-8.09
		c0,0,3.19,0.83,4.37,4.02c-7.62-4.83-21.75-6.23-57.02,5.51c-46.48,15.48-23.26,42.47-16.22,44.63
		c7.05,2.16,20.02-11.72,31.68-13.62c11.66-1.9,17.98,14.35,22.42,15.7c4.45,1.35,1.92-2.35,6.58-6.05
		c4.66-3.7,7.33,5.01,7.23,11.13c-0.1,6.12,8.98,11.92,8.98,11.92s0,0,5.33-9.77c5.33-9.77,3.88-45.23-1.21-51.62
		C1986.36,12.07,1985.92,11.49,1985.46,10.92z"/>
</g>
<polygon class="st23" points="1250.7,1248.18 1250.7,1300.79 1126.18,1248.18 "/>
<rect x="1904.57" y="799.47" class="st4" width="411.82" height="540.91"/>
<rect x="1777.58" y="799.47" class="st5" width="411.83" height="540.91"/>
<polygon class="st23" points="2316.38,799.47 2316.38,880.35 2189.41,799.47 "/>
<path class="st18" d="M1568.65,207.82c-14.78-16.26-32.8-18.64-32.8-18.64v0c0,0,0,0,0,0c-27.24-9.7-40.96,50.56-40.96,50.56
	s22.76-32.46,43.66-11.38c20.03,20.2,8.2,41.39,24.62,43.98c0,0,0.18-11.33,6.92-10.6c10.5,1.14,19.23-24.64,3.65-47.35
	C1572.05,211.93,1568.65,207.82,1568.65,207.82z"/>
</svg>
