<?xml version="1.0" encoding="utf-8"?>
<!-- Generator: Adobe Illustrator 23.0.1, SVG Export Plug-In . SVG Version: 6.00 Build 0)  -->
<svg version="1.1" id="Слой_2" xmlns="http://www.w3.org/2000/svg" xmlns:xlink="http://www.w3.org/1999/xlink" x="0px" y="0px"
	 viewBox="0 0 2454.97 1741.44" style="enable-background:new 0 0 2454.97 1741.44;" xml:space="preserve">
<style type="text/css">
	.st0{fill:#EBF3FA;}
	.st1{fill:#2C3A64;}
	.st2{fill:#ED975D;}
	.st3{fill:#FFA412;}
	.st4{fill:#35488B;}
	.st5{fill:#FFB27D;}
	.st6{fill:#2B478B;}
	.st7{fill:#FFB93E;}
	.st8{fill:#82B378;}
	.st9{fill:#A8D29F;}
	.st10{fill:#ED7D2B;}
	.st11{fill:#F99746;}
	.st12{fill:#FFB176;}
	.st13{fill:#DB6A1F;}
	.st14{fill:#E8C6A7;}
	.st15{fill:#C69D7B;}
	.st16{opacity:0.5;fill:#82B378;}
	.st17{fill:#E2810E;}
</style>
<path class="st0" d="M150.55,1745.33c0,0-301.62-323.84-51.01-674.45C321.9,759.79,554.81,886.4,771.96,956.82
	c157.49,51.07,313.97-42.9,512.77-359.44c271.1-431.67,1210.84-169.86,1039.49,494.28c-82.92,321.4,252.35,333.08,81.52,654.35
	L150.55,1745.33z"/>
<path class="st1" d="M1623.36,1741.07c0.24,0.12,0.52,0.23,0.84,0.35h167.57c-1.57-5.96-7.05-16.83-26.22-19.94
	c-26-4.23-71.07-19.33-81.12-52.6c-0.31-1.06-0.6-2.16-0.86-3.27c-7.98-35.54-66.02,10.89-66.02,10.89s-0.18,1.41-0.42,3.83
	C1615.78,1693.36,1612.34,1735.55,1623.36,1741.07z"/>
<path class="st1" d="M1844.98,1139.22c0,0-108.98,387.11-141.81,536.82c0,0-80.89,16.23-93.47-9.19c0,0,26.06-421.56,74.01-475.11
	C1743.36,1125.13,1844.98,1139.22,1844.98,1139.22z"/>
<g>
	<path class="st2" d="M1853.99,746.86c0,0-2.86-17.32,1.6-31.74c4.46-14.42,23.12-52.46,17.21-65.68
		c-5.9-13.22-27.27-48.78-40.46-48.67c-13.18,0.1,13.86,38.06,10.15,49.91c-3.71,11.86-4.94,12.82-9.52,11.77
		c-4.58-1.05-11.55-23.74-13.87-18.44c-2.32,5.3-0.97,40.42,3.39,49.19c4.36,8.77-4.58,58.21-4.58,58.21L1853.99,746.86z"/>
	<path class="st3" d="M1864.53,739.15c0,0-29.18-16.57-51.75-9.59c0,0-44.79,128.99-69.45,223.84
		c-47.35-116.82-76.47-233.33-76.47-233.33s-57.4,79.27-78.13,131.98c-20.72,52.71,103.12,237.64,151.17,252.16
		c50.15,15.15,41.02-0.03,69.32-16.22C1818.33,1076.18,1847.45,1017.39,1864.53,739.15z"/>
	<path class="st1" d="M1996.54,1747.1c0.24,0.12,0.52,0.23,0.84,0.35h167.57c-1.57-5.96-7.05-16.83-26.22-19.94
		c-26-4.23-71.07-19.33-81.12-52.6c-0.31-1.06-0.6-2.16-0.86-3.27c-7.98-35.54-66.02,10.89-66.02,10.89s-0.18,1.41-0.42,3.83
		C1988.96,1699.39,1985.52,1741.59,1996.54,1747.1z"/>
	<path class="st4" d="M1877.5,1129.82c0,0-16.32,7.26-36.47,22.12c-2.29-11.67-5.59-19.25-5.59-19.25
		c-143.8-37.45-528.73-34.4-528.73-34.4s-82.76,20.73-58.46,141.2c22.36,110.86,391.95,59.53,511.33,26.27
		c2.79-0.78,5.5-1.59,8.11-2.44c-9.5,70.63,57.02,171.4,115.25,264.13c48,76.44,88.85,153.82,88.85,153.82
		c24.11,14.95,105.04,6.3,105.04,6.3C2025.68,1543.09,1877.5,1129.82,1877.5,1129.82z"/>
	<g>
		<path class="st5" d="M1560.14,680.93c0,0,41.28,132.16,103.29,161.72c0,0,5.87-40.1-4.17-70.59c8.19-6.27,15.44-12.09,21.77-17.33
			c21.03-17.5,31.66-28.71,31.66-28.71l-9.22-64.44l-6.25-43.73c-10.08,11.56-20.49,21.01-30.88,28.77
			C1612.82,686.56,1560.14,680.93,1560.14,680.93z"/>
		<path class="st2" d="M1666.35,646.64c0,0-20.79,57.21,14.69,108.1c21.03-17.5,31.66-28.71,31.66-28.71l-9.22-64.44
			C1681.28,649.17,1666.35,646.64,1666.35,646.64z"/>
		<path class="st5" d="M1728.43,738.56c0,0-91.42-60.66-52.77-117.01c38.65-56.35,52.88-102.13,112.89-65.79
			c60.01,36.35,56.48,65.55,48.16,87.49C1828.37,665.2,1753.2,752.88,1728.43,738.56z"/>
		<path class="st6" d="M1686.28,503.57c-0.4-1.53-2.11-3.45-6.74-6.05c0,0,4.99-0.55,10.14,1.81c4.29-6.23,13.64-16.41,26.45-13.72
			c0,0-7.75,0.31-12.05,7.07c19.94-7.3,53.11-3.46,128.32,41.17c99.12,58.82,32.25,109.25,14.97,110.7
			c-17.27,1.45-40.15-36.94-66.02-47.13c-25.87-10.19-48.49,24.01-59.39,24.89c-10.9,0.88-3.24-6.36-12.09-17.2
			c-8.85-10.84-19.36,7.85-22.18,21.96c-2.82,14.11-26.6,22.91-26.6,22.91s0,0-7.36-25.12c-7.36-25.12,13.69-105.92,28.58-118.04
			C1683.63,505.75,1684.94,504.66,1686.28,503.57z"/>
	</g>
	<path class="st7" d="M1671.39,901.14c-27.46,65.04-52.57,106.57-55.85,112c-11.83,19.56-24.54,37.51-36.16,53.19
		c-0.37,0.5-0.73,0.99-1.1,1.49c-22.88,30.78-57.87,39.26-56.79,46.98c2.19,15.49-36.93,52.64-101.42,69.12
		c-74.84,19.12-161.56,28.33-183.48,3.03c-7.33-8.5-9.77-24.12-8.96-43.54c1.6-40.91,53.09-205.65,53.09-205.65
		c88.08-266.57,340.33-266.57,340.33-266.57s-4.94,63.86,56.97,86.02C1678.11,757.35,1692.58,850.95,1671.39,901.14z"/>
	<path class="st5" d="M1819.53,1090.82c0,0,37.88,13.39,48.27,19.89c10.39,6.5,34.3,39.24,37,50.71c2.69,11.47,5.85,45.2,3.89,50.84
		c-1.96,5.64-30.96-15.99-37.4-36.35c-6.44-20.36-23-25.84-22.37-24.75c0.63,1.1,9.11,27.17,7.32,28.29
		c-1.79,1.12-9.51,3.07-16.5-11.48c-6.99-14.55-20.85-25.19-18.23-40.22C1824.12,1112.71,1819.53,1090.82,1819.53,1090.82z"/>
	<path class="st3" d="M1522.75,1116.95c2.18,15.49-38.18,50.49-102.68,66.97c-53.8-107.03,48.49-352.05,48.49-352.05l110.82,234.46
		C1556,1097.9,1521.65,1109.11,1522.75,1116.95z"/>
	<path class="st3" d="M1615.54,1013.14c-11.83,19.56-24.54,37.51-36.16,53.19c-0.37,0.5-0.73,0.99-1.1,1.49
		c-15.2-5.86-30.29-17.55-37.89-28.3c-17.45-24.65-18.89-172.81-18.89-172.81S1592.96,954.98,1615.54,1013.14z"/>
	<path class="st7" d="M1834.07,1094.14c0,0-172.84-48.38-261.55-69.55c7.82-104.67,33.44-421.12-127.75-294.44
		c0,0-12.18,339.14,65.92,407.83c0,0,250.72,5.31,298.46,2.39c0,0,14.03-7.26,17.51-12.1
		C1837.81,1112.78,1834.07,1094.14,1834.07,1094.14z"/>
</g>
<g>
	<path class="st8" d="M833.1,1601.9l6.38-0.57c-2.44-46.42-37.57-72.4-37.57-72.4c-24.6-21.8-32.59-45.74-32.59-45.74
		s41.51-48.43,2.56-79.19c0,0-28.45-17.23-51.65-15.83c0,0,32.87,55.12,22.24,60.6c-10.63,5.48-32.2-64.06-32.2-64.06
		s-64.75-6.28-85.57,3.74c0,0,55.35,45.29,43.69,47.99c-11.66,2.7-71.44-41.76-71.44-41.76s-60.26,10.25-57.05,47.02
		c3.21,36.76,23.98,48.11,33.1,47.13c9.13-0.98,62.51-21.36,63.67-13.88c1.16,7.48-30.97,31.91-53.47,33.06
		c0,0,42.48,46.85,70.72,33.33c28.24-13.52,30.65-34.96,48.25-43c17.6-8.04,32.63-8.02,25.36,0.18
		c-7.27,8.2-39.12,16.17-49.19,33.97c-10.07,17.8-19.1,29.81,10.12,25.42c29.21-4.4,76.7-25.77,78.78-50.25
		c0.09-1.07,0.18-2.08,0.26-3.06c0.04,1.94-0.26,3.06-0.26,3.06c6.09,1.09,18.75,12.3,27.9,21.09c1.41,1.54,3.49,3.61,6.46,6.37
		c1.12,1.13,2.05,2.08,2.74,2.79C822.88,1558.23,833.1,1601.9,833.1,1601.9z"/>
	<g>
		<path class="st9" d="M914.45,1422.28c0,0-66.03-36.98-35.22-87.16c0,0,24.65-30.82,51.07-38.74c0,0-14.09,74.84,0,76.6
			c14.09,1.76,9.68-84.52,9.68-84.52s69.55-33.46,96.85-30.82c0,0-43.14,73.08-29.05,71.32c14.09-1.76,62.51-75.72,62.51-75.72
			s71.32-13.21,82.76,29.05c11.45,42.26-7.04,63.39-17.61,66.03c-10.57,2.64-78.36,1.76-76.6,10.57
			c1.76,8.8,47.54,22.89,73.08,14.97c0,0-28.17,69.55-65.15,66.03c-36.98-3.52-48.42-26.41-71.32-28.17
			c-22.89-1.76-39.62,4.4-28.17,10.57c11.45,6.16,50.18,2.02,68.67,17.74c18.49,15.72,33.46,25.4-0.88,32.45
			c-34.34,7.04-95.97,2.64-108.29-23.77C914.45,1422.28,914.45,1422.28,914.45,1422.28z"/>
		<path class="st8" d="M1120.47,1295.5c0,0-184.89,59.87-206.02,126.78c0,0,0.88,29.93-17.61,64.27c0,0-28.51,43.3-12.26,96
			l7.34-1.97c0,0-6.41-52.29,5.69-82.58c0.49-1.12,1.22-2.73,2.12-4.69c2.19-4.29,3.66-7.44,4.6-9.73
			c6.59-13.53,16.11-31.19,22.45-34.89C926.77,1448.7,885.39,1390.59,1120.47,1295.5z"/>
	</g>
	<g>
		<path class="st9" d="M809.4,1371.29c0,0,87.04-48.74,46.42-114.9c0,0-32.5-40.62-67.31-51.06c0,0,18.57,98.65,0,100.97
			c-18.57,2.32-12.77-111.41-12.77-111.41s-91.68-44.1-127.66-40.62c0,0,56.87,96.33,38.3,94.01c-18.57-2.32-82.4-99.81-82.4-99.81
			s-94.01-17.41-109.09,38.3c-15.09,55.71,9.28,83.56,23.21,87.04c13.93,3.48,103.29,2.32,100.97,13.93
			c-2.32,11.61-62.67,30.17-96.33,19.73c0,0,37.14,91.69,85.88,87.04c48.74-4.64,63.83-34.82,94.01-37.14
			c30.18-2.32,52.23,5.8,37.14,13.93c-15.09,8.12-66.15,2.66-90.52,23.38c-24.37,20.72-44.1,33.49,1.16,42.77
			c45.26,9.29,126.5,3.48,142.75-31.33C809.4,1371.29,809.4,1371.29,809.4,1371.29z"/>
		<path class="st8" d="M832.61,1456.01c-24.37-45.26-23.21-84.72-23.21-84.72c-27.85-88.2-271.57-167.12-271.57-167.12
			c309.87,125.34,255.33,201.94,255.33,201.94c8.35,4.87,20.87,28.1,29.56,45.92c1.24,3.03,3.2,7.23,6.11,12.93
			c1.18,2.58,2.12,4.69,2.78,6.16c15.95,39.92,7.5,108.86,7.5,108.86l9.67,2.6C870.19,1513.08,832.61,1456.01,832.61,1456.01z"/>
	</g>
	<path class="st10" d="M641.83,1562.72c0,94.16,76.34,170.5,170.5,170.5c19.66,0,38.54-3.33,56.11-9.45
		c66.6-23.2,114.39-86.55,114.39-161.05H641.83z"/>
	<path class="st11" d="M754.06,1562.72c0,63.88,15.3,128.94,67.3,158.14c8.64,4.85,37.59-0.4,47.08,2.9
		c66.6-23.2,114.39-86.55,114.39-161.05H754.06z"/>
	<path class="st12" d="M812.33,1733.22c6.93,0.87-27.95,0-20.77,0c94.16,0,170.5-76.34,170.5-170.5h-42.36
		C919.69,1649.72,896.5,1722.79,812.33,1733.22z"/>
	<path class="st10" d="M639.47,1741.91h345.72c0-5.81-2.36-11.07-6.16-14.88c-3.81-3.8-9.07-6.16-14.88-6.16H660.5
		C648.89,1720.86,639.47,1730.28,639.47,1741.91z"/>
	<path class="st11" d="M801.45,1741.91h183.73c0-5.81-2.36-11.07-6.16-14.88c-3.81-3.8-9.07-6.16-14.88-6.16H822.49
		C810.87,1720.86,801.45,1730.28,801.45,1741.91z"/>
	
		<rect x="637.95" y="1562.72" transform="matrix(-1 -1.224647e-16 1.224647e-16 -1 1626.3865 3130.6699)" class="st13" width="350.49" height="5.23"/>
</g>
<g>
	<path class="st11" d="M1686.45,1302.35v66.67c0,13.76-11.26,25.02-25.02,25.02h-394.14c-13.76,0-25.02-11.26-25.02-25.02v-66.67
		c0-13.76,11.26-25.02,25.02-25.02h394.14C1675.18,1277.32,1686.45,1288.58,1686.45,1302.35z"/>
	<path class="st10" d="M1686.45,1356.88v12.14c0,13.76-11.26,25.02-25.02,25.02h-394.14c-13.76,0-25.02-11.26-25.02-25.02v-13.14
		h437.01C1681.75,1355.88,1684.17,1356.23,1686.45,1356.88z"/>
	<g>
		<path class="st14" d="M1337.15,1394.04l-17.77,67.3c0,0,0,0-0.02,0.02l-73.97,280.09h-7.78l42.75-232.37
			c0.04-0.23,0.1-0.46,0.15-0.71l21.15-114.92L1337.15,1394.04z"/>
	</g>
	<path class="st15" d="M1337.15,1394.04l-17.77,67.3c0,0,0,0-0.02,0.02c-1.02,0.5-33.37,17.22-38.85,47l21.15-114.92
		L1337.15,1394.04z"/>
	<g>
		<path class="st14" d="M1686.45,1741.44h-7.78l-60.27-228.16c0-0.02,0-0.02,0-0.04l-13.7-51.88c-0.02-0.02-0.02-0.02-0.02-0.02
			l-17.77-67.3l35.49-0.6l12.1,65.71l9.05,49.21c0.04,0.25,0.1,0.48,0.15,0.71L1686.45,1741.44z"/>
	</g>
	<path class="st14" d="M1566.31,1482.17c-0.04,0.02-0.08,0-0.13-0.08C1566.02,1481.8,1566.06,1481.86,1566.31,1482.17z"/>
	<path class="st15" d="M1634.5,1459.15c-6.55,9.53-15.58,27.44-16.1,54.09l-13.7-51.88c-0.02-0.02-0.02-0.02-0.02-0.02l-17.77-67.3
		l35.49-0.6L1634.5,1459.15z"/>
</g>
<g>
	<path class="st0" d="M1225.62,439.24c-11.22,52.96-27.08,101.36-47.57,144.69c-0.93,1.99-1.88,3.96-2.85,5.93
		c-0.48,1-0.96,1.99-1.46,2.98c-1.23,2.49-2.48,4.96-3.75,7.41c-0.67,1.32-1.35,2.63-2.05,3.94c-1.23,2.36-2.49,4.7-3.76,7.02
		c-1.28,2.35-2.58,4.68-3.9,6.99c-2.26,4-4.57,7.95-6.94,11.85c-0.45,0.75-0.9,1.5-1.37,2.24c-1.23,2.02-2.47,4.02-3.75,6.01
		c-0.47,0.77-0.96,1.54-1.46,2.3c-1.23,1.93-2.48,3.85-3.75,5.75c-0.67,1.03-1.36,2.04-2.05,3.06c-1.23,1.84-2.48,3.66-3.75,5.47
		v0.02h-0.01c-0.68,0.98-1.37,1.96-2.07,2.94c0,0,0,0,0,0.01c-0.06,0.1-0.13,0.18-0.21,0.28c-1.22,1.75-2.47,3.48-3.75,5.2
		c-0.47,0.67-0.96,1.34-1.46,2c-1.24,1.68-2.49,3.35-3.75,5c-0.67,0.89-1.35,1.77-2.05,2.65c-1.23,1.61-2.48,3.2-3.76,4.79
		c-1.3,1.64-2.62,3.28-3.96,4.89c-1.23,1.51-2.48,3.01-3.75,4.5c-0.92,1.1-1.85,2.19-2.8,3.27c-0.06,0.09-0.14,0.17-0.22,0.26
		c-0.17,0.2-0.34,0.4-0.52,0.6c-1.23,1.43-2.48,2.84-3.75,4.25c-2.72,3.07-5.5,6.09-8.34,9.06c-1.23,1.31-2.48,2.61-3.75,3.9
		c-2.92,3.02-5.91,5.99-8.94,8.89c-1.24,1.21-2.49,2.4-3.76,3.58c-2.18,2.06-4.4,4.09-6.63,6.09c-0.02,0.02-0.04,0.04-0.07,0.06
		c-1.27,1.14-2.56,2.28-3.85,3.4c-1.24,1.09-2.49,2.17-3.75,3.22c-6.78,5.78-13.76,11.31-20.93,16.59
		c-1.24,0.93-2.49,1.84-3.75,2.74c-5.13,3.69-10.36,7.26-15.68,10.69c-2.63,1.71-5.29,3.39-7.97,5.03
		c-5.8,3.56-11.71,6.98-17.74,10.24c-4.62,2.51-9.3,4.93-14.04,7.26c-7.19,3.53-14.52,6.87-22,9.99c-1.24,0.53-2.49,1.05-3.75,1.56
		c-2.18,0.89-4.37,1.76-6.58,2.61c-3.19,1.24-6.4,2.44-9.64,3.61c-7.17,2.59-14.48,4.99-21.91,7.22c-2.63,0.8-5.28,1.56-7.94,2.3
		c-10.24,2.88-20.71,5.42-31.42,7.62c-8.19,1.69-16.52,3.19-24.99,4.47c-19.46,2.99-39.65,4.93-60.57,5.79
		c-3.41,0.15-6.85,0.26-10.3,0.34c-5.03,0.13-10.11,0.19-15.23,0.19c-6.15,0-12.34-0.07-18.55-0.21
		c-52.22-1.16-106.23-7.24-158.4-18.36c-3.94-0.84-7.87-1.7-11.79-2.6c-46.31-10.6-90.93-25.22-131.31-43.96
		c-1.03-0.47-2.05-0.95-3.06-1.43c-10.16-4.79-20.05-9.85-29.62-15.18C312.56,691.13,245.47,599.3,274.77,472.77
		C320.29,276.18,595.05,65.7,840.42,14.08C1199.07-61.39,1280.82,178.91,1225.62,439.24z"/>
	<g>
		<g>
			<path class="st7" d="M1025.7,763.76c-2.63,1.71-5.29,3.39-7.97,5.03c-5.8,3.56-11.71,6.98-17.74,10.24
				c-4.62,2.51-9.3,4.93-14.04,7.26c-7.19,3.53-14.52,6.87-22,9.99c-1.24,0.53-2.49,1.05-3.75,1.56c-2.18,0.89-4.37,1.76-6.58,2.61
				H815.27c-1.32,0-2.58-0.32-3.68-0.9c-2.34-1.22-4-3.57-4.27-6.31l-0.03-0.36v-21.55c0.22-4.2,3.73-7.57,7.98-7.57H1025.7z"/>
			<g>
				<path class="st3" d="M963.95,763.76v32.52c-1.24,0.53-2.49,1.05-3.75,1.56v-34.08H963.95z"/>
				<rect x="928.57" y="763.76" class="st3" width="3.75" height="36.7"/>
			</g>
		</g>
		<g>
			<path class="st7" d="M1073.73,727.06c-0.02,0.02-0.04,0.04-0.07,0.06c-1.27,1.14-2.56,2.28-3.85,3.4
				c-1.24,1.09-2.49,2.17-3.75,3.22c-6.78,5.78-13.76,11.31-20.93,16.59c-1.24,0.93-2.49,1.84-3.75,2.74
				c-5.13,3.69-10.36,7.26-15.68,10.69H823.18c-4.26,0-7.76-3.37-7.98-7.58c0-0.13-0.01-0.27-0.01-0.41v-20.72
				c0-0.14,0.01-0.27,0.01-0.41c0.2-3.89,3.21-7.06,7.03-7.52c0.31-0.04,0.63-0.06,0.95-0.06H1073.73z"/>
			<g>
				<path class="st3" d="M1069.81,727.06v3.46c-1.24,1.09-2.49,2.17-3.75,3.22v-6.68H1069.81z"/>
				<path class="st3" d="M1045.13,727.06v23.27c-1.24,0.93-2.49,1.84-3.75,2.74v-26.01H1045.13z"/>
				<rect x="1003.54" y="727.06" class="st3" width="3.75" height="36.7"/>
				<rect x="968.11" y="727.06" class="st3" width="3.75" height="36.7"/>
				<rect x="936.47" y="727.06" class="st3" width="3.75" height="36.7"/>
			</g>
		</g>
		<g>
			<path class="st7" d="M1096.81,690.43v14.17c2.84-2.97,5.62-5.99,8.34-9.06v-5.11H1096.81z M1096.81,690.43v14.17
				c2.84-2.97,5.62-5.99,8.34-9.06c1.27-1.41,2.52-2.82,3.75-4.25c0.18-0.2,0.35-0.4,0.52-0.6c0.08-0.09,0.16-0.17,0.22-0.26
				H1096.81z M1096.81,690.43v14.17c2.84-2.97,5.62-5.99,8.34-9.06c1.27-1.41,2.52-2.82,3.75-4.25c0.18-0.2,0.35-0.4,0.52-0.6
				c0.08-0.09,0.16-0.17,0.22-0.26H1096.81z M1096.81,690.43v14.17c2.84-2.97,5.62-5.99,8.34-9.06c1.27-1.41,2.52-2.82,3.75-4.25
				c0.18-0.2,0.35-0.4,0.52-0.6c0.08-0.09,0.16-0.17,0.22-0.26H1096.81z M1096.81,690.43v14.17c2.84-2.97,5.62-5.99,8.34-9.06
				c1.27-1.41,2.52-2.82,3.75-4.25c0.18-0.2,0.35-0.4,0.52-0.6c0.08-0.09,0.16-0.17,0.22-0.26H1096.81z M1096.81,690.43v14.17
				c2.84-2.97,5.62-5.99,8.34-9.06c1.27-1.41,2.52-2.82,3.75-4.25c0.18-0.2,0.35-0.4,0.52-0.6c0.08-0.09,0.16-0.17,0.22-0.26
				H1096.81z M1096.81,690.43v14.17c2.84-2.97,5.62-5.99,8.34-9.06v-5.11H1096.81z M798.91,690.43c-0.59,0-1.17,0.06-1.73,0.19
				c-0.08,0.01-0.16,0.03-0.24,0.05c-3.01,0.77-5.35,3.26-5.9,6.36c-0.04,0.21-0.06,0.42-0.08,0.64c-0.01,0.11-0.02,0.22-0.03,0.33
				c0,0.14-0.01,0.27-0.01,0.41v20.72c0,0.14,0.01,0.28,0.01,0.41c0.01,0.19,0.02,0.37,0.05,0.55c0.05,0.37,0.12,0.72,0.21,1.07
				c0.9,3.43,4.03,5.96,7.72,5.96h274.75c0.03-0.02,0.05-0.04,0.07-0.06c2.23-2,4.45-4.03,6.63-6.09c1.27-1.18,2.52-2.37,3.76-3.58
				c3.03-2.9,6.02-5.87,8.94-8.89c1.27-1.29,2.52-2.59,3.75-3.9c2.84-2.97,5.62-5.99,8.34-9.06c1.27-1.41,2.52-2.82,3.75-4.25
				c0.18-0.2,0.35-0.4,0.52-0.6c0.08-0.09,0.16-0.17,0.22-0.26H798.91z"/>
			<path class="st3" d="M974.89,727.12H798.06c-3.8,0-6.93-3.37-7.12-7.58c0-0.14-0.01-0.27-0.01-0.41v-20.72
				c0-0.14,0-0.27,0.01-0.41c0-0.11,0.01-0.23,0.02-0.34c0.29-3.46,2.57-6.29,5.53-7.04c0.1-0.03,0.2-0.05,0.3-0.07
				c0.41-0.08,0.83-0.13,1.26-0.13h155.12c0.02,0.09,0.04,0.17,0.06,0.26c2.5,10.76,8.28,25.52,21.58,36.38
				C974.85,727.08,974.87,727.1,974.89,727.12z"/>
			<g>
				<path class="st3" d="M1096.81,690.43v14.17c-1.23,1.31-2.48,2.61-3.75,3.9v-18.07H1096.81z"/>
				<path class="st3" d="M1084.12,690.43v26.96c-1.24,1.21-2.49,2.4-3.76,3.58v-30.54H1084.12z"/>
				<rect x="1065.14" y="690.43" class="st3" width="3.75" height="36.7"/>
				<rect x="1041.8" y="690.43" class="st3" width="3.75" height="36.7"/>
				<rect x="1017.11" y="690.43" class="st3" width="3.75" height="36.7"/>
				<rect x="979.27" y="690.43" class="st3" width="3.75" height="36.7"/>
				<rect x="943.84" y="690.43" class="st3" width="3.75" height="36.7"/>
				<rect x="912.2" y="690.43" class="st3" width="3.75" height="36.7"/>
				<path class="st3" d="M1108.9,690.43v0.86c-1.23,1.43-2.48,2.84-3.75,4.25v-5.11H1108.9z"/>
			</g>
		</g>
		<g>
			<path class="st7" d="M1109.42,654.9v-0.91h-1.21v36.44h1.43c0.95-1.08,1.88-2.17,2.8-3.27c1.27-1.49,2.52-2.99,3.75-4.5V654.9
				H1109.42z M1134.92,657.52c-0.22-0.32-0.46-0.62-0.72-0.91c-0.02-0.02-0.05-0.05-0.07-0.07c-0.02-0.03-0.04-0.05-0.06-0.07
				c-0.06-0.07-0.13-0.13-0.19-0.19c-0.09-0.08-0.17-0.16-0.26-0.24c-0.09-0.08-0.17-0.16-0.26-0.23c-0.18-0.15-0.37-0.29-0.57-0.43
				c-0.26-0.18-0.53-0.34-0.81-0.48h-0.01c-0.13-0.07-0.26-0.14-0.39-0.2c-0.07-0.03-0.14-0.06-0.2-0.09
				c-0.07-0.03-0.14-0.05-0.21-0.08c-0.47-0.19-0.96-0.32-1.46-0.41c-0.04-0.01-0.08-0.01-0.11-0.02c-0.03-0.01-0.07-0.02-0.1-0.02
				c-0.05,0-0.1-0.01-0.15-0.02c-0.04-0.01-0.1-0.02-0.15-0.02c-0.03,0-0.07-0.01-0.1-0.01h-0.03c-0.05-0.01-0.1-0.01-0.16-0.01
				c-0.2-0.02-0.4-0.03-0.61-0.03H798.22c-4.26,0-7.76,3.37-7.98,7.58c0,0.13-0.01,0.27-0.01,0.41v20.72c0,0.14,0.01,0.27,0.01,0.41
				c0.01,0.24,0.03,0.48,0.06,0.72c0.5,3.39,3.13,6.11,6.49,6.72c0.13,0.03,0.26,0.05,0.39,0.07c0.34,0.04,0.69,0.07,1.04,0.07
				h311.2c0.08-0.09,0.16-0.17,0.22-0.26c0.95-1.08,1.88-2.17,2.8-3.27c1.27-1.49,2.52-2.99,3.75-4.5c1.34-1.61,2.66-3.25,3.96-4.89
				c1.28-1.59,2.53-3.18,3.76-4.79c0.7-0.88,1.38-1.76,2.05-2.65c1.26-1.65,2.51-3.32,3.75-5c0.5-0.66,0.99-1.33,1.46-2
				c1.28-1.72,2.53-3.45,3.75-5.2c0.08-0.1,0.15-0.18,0.21-0.28c0-0.01,0-0.01,0-0.01C1135.06,657.73,1134.99,657.62,1134.92,657.52
				z M1109.42,654.9v-0.91h-1.21v36.44h1.43c0.95-1.08,1.88-2.17,2.8-3.27c1.27-1.49,2.52-2.99,3.75-4.5V654.9H1109.42z"/>
			<path class="st3" d="M974.2,690.69H797.36c-0.14,0-0.28,0-0.42-0.01c-0.15-0.01-0.3-0.03-0.46-0.05
				c-3.4-0.47-6.07-3.64-6.25-7.51c0-0.14-0.01-0.27-0.01-0.41v-20.72c0-0.14,0-0.27,0.01-0.41c0.19-4.2,3.32-7.58,7.12-7.58h155.12
				c0.07,0.3,0.14,0.6,0.22,0.91c2.57,10.63,8.31,24.9,21.19,35.53C973.99,690.51,974.09,690.6,974.2,690.69z"/>
			<g>
				<rect x="1092.37" y="653.99" class="st3" width="3.75" height="36.69"/>
				<rect x="1079.67" y="653.99" class="st3" width="3.75" height="36.69"/>
				<rect x="1064.44" y="653.99" class="st3" width="3.75" height="36.69"/>
				<rect x="1041.1" y="653.99" class="st3" width="3.75" height="36.69"/>
				<rect x="1016.42" y="653.99" class="st3" width="3.75" height="36.69"/>
				<rect x="978.58" y="653.99" class="st3" width="3.75" height="36.69"/>
				<rect x="943.15" y="653.99" class="st3" width="3.75" height="36.69"/>
				<rect x="911.51" y="653.99" class="st3" width="3.75" height="36.69"/>
				<rect x="1104.46" y="653.99" class="st3" width="3.75" height="36.69"/>
				<path class="st3" d="M1116.19,653.99v28.67c-1.23,1.51-2.48,3.01-3.75,4.5v-33.17H1116.19z"/>
				<path class="st3" d="M1123.91,653.99v18.99c-1.23,1.61-2.48,3.2-3.76,4.79v-23.78H1123.91z"/>
				<path class="st3" d="M1129.71,654.12v11.21c-1.24,1.68-2.49,3.35-3.75,5v-16.34h2.34c0.21,0,0.41,0.01,0.61,0.03
					c0.06,0,0.11,0,0.16,0.01h0.03c0.03,0,0.07,0.01,0.1,0.01c0.05,0,0.11,0.01,0.15,0.02c0.05,0.01,0.1,0.02,0.15,0.03
					c0.03,0,0.06,0,0.1,0.01C1129.63,654.11,1129.67,654.11,1129.71,654.12z"/>
			</g>
		</g>
		<g>
			<path class="st7" d="M1153.34,626.19v3.86c-0.45,0.75-0.9,1.5-1.37,2.24c-1.23,2.02-2.47,4.02-3.75,6.01
				c-0.47,0.77-0.96,1.54-1.46,2.3c-1.23,1.93-2.48,3.85-3.75,5.75c-0.67,1.03-1.36,2.04-2.05,3.06c-1.23,1.84-2.48,3.66-3.75,5.47
				v0.02H815.27c-1.32,0-2.58-0.33-3.68-0.91c-1.66-0.86-2.97-2.29-3.69-4.03c-0.31-0.71-0.5-1.48-0.58-2.28l-0.03-0.36v-21.54
				c0.05-0.93,0.26-1.83,0.61-2.65c1.21-2.89,4.06-4.93,7.37-4.93h330.08c0.49,0,0.95,0.04,1.41,0.13c0.51,0.09,1,0.22,1.46,0.41
				c1.54,0.59,2.84,1.65,3.75,2.99C1152.84,623,1153.34,624.53,1153.34,626.19z"/>
			<path class="st3" d="M991.25,654.9H814.42c-1.18,0-2.3-0.33-3.28-0.91c-2.09-1.22-3.58-3.57-3.81-6.31
				c-0.01-0.12-0.02-0.24-0.03-0.36c0-0.14-0.01-0.27-0.01-0.41v-20.72c0-0.14,0-0.27,0.01-0.41c0.19-4.2,3.32-7.58,7.12-7.58
				h155.12c2.41,10.51,7.94,24.93,20.63,35.79C990.53,654.3,990.89,654.6,991.25,654.9z"/>
			<g>
				<rect x="1109.43" y="618.2" class="st3" width="3.75" height="36.7"/>
				<rect x="1096.73" y="618.2" class="st3" width="3.75" height="36.7"/>
				<rect x="1081.5" y="618.2" class="st3" width="3.75" height="36.7"/>
				<rect x="1058.16" y="618.2" class="st3" width="3.75" height="36.7"/>
				<rect x="1033.47" y="618.2" class="st3" width="3.75" height="36.7"/>
				<rect x="995.63" y="618.2" class="st3" width="3.75" height="36.7"/>
				<rect x="960.2" y="618.2" class="st3" width="3.75" height="36.7"/>
				<rect x="928.57" y="618.2" class="st3" width="3.75" height="36.7"/>
				<rect x="1121.51" y="618.2" class="st3" width="3.75" height="36.7"/>
				<rect x="1129.5" y="618.2" class="st3" width="3.75" height="36.7"/>
				<path class="st3" d="M1140.96,618.2v31.21c-1.23,1.84-2.48,3.66-3.75,5.47V618.2H1140.96z"/>
				<path class="st3" d="M1146.76,618.33v22.27c-1.23,1.93-2.48,3.85-3.75,5.75V618.2h2.34
					C1145.84,618.2,1146.3,618.24,1146.76,618.33z"/>
				<path class="st3" d="M1151.97,621.73v10.56c-1.23,2.02-2.47,4.02-3.75,6.01v-19.56
					C1149.76,619.33,1151.06,620.39,1151.97,621.73z"/>
			</g>
		</g>
		<g>
			<path class="st7" d="M1178.05,583.93c-0.93,1.99-1.88,3.96-2.85,5.93c-0.48,1-0.96,1.99-1.46,2.98
				c-1.23,2.49-2.48,4.96-3.75,7.41c-0.67,1.32-1.35,2.63-2.05,3.94c-1.23,2.36-2.49,4.7-3.76,7.02c-1.28,2.35-2.58,4.68-3.9,6.99
				H842.25c-4.26,0-7.77-3.37-7.98-7.58c-0.01-0.13-0.01-0.27-0.01-0.41v-20.72c0-0.14,0-0.27,0.01-0.41
				c0.2-3.88,3.21-7.06,7.03-7.52c0.31-0.04,0.63-0.06,0.95-0.06h287.66c0.01,0.01,0.02,0,0.03,0h42.39c0.48,0,0.95,0.05,1.41,0.13
				c0.5,0.09,0.99,0.23,1.46,0.41c0.14,0.06,0.28,0.11,0.42,0.18c0.1,0.04,0.2,0.09,0.3,0.15c0.28,0.13,0.55,0.29,0.81,0.47
				c0.11,0.07,0.22,0.15,0.33,0.23c0.04,0.02,0.07,0.05,0.11,0.08c0.09,0.07,0.17,0.13,0.25,0.2
				C1177.64,583.53,1177.85,583.72,1178.05,583.93z"/>
			<path class="st3" d="M1018.23,618.2H841.39c-3.8,0-6.93-3.37-7.12-7.58c0-0.14-0.01-0.27-0.01-0.41v-20.72
				c0-0.14,0-0.27,0.01-0.41c0.18-3.88,2.87-7.06,6.28-7.52c0.27-0.04,0.56-0.06,0.84-0.06h155.12c0,0.02,0.01,0.04,0.01,0.06
				C999.01,592.36,1004.79,607.27,1018.23,618.2z"/>
			<g>
				<rect x="1136.4" y="581.51" class="st3" width="3.75" height="36.7"/>
				<rect x="1123.7" y="581.51" class="st3" width="3.75" height="36.7"/>
				<rect x="1108.47" y="581.51" class="st3" width="3.75" height="36.7"/>
				<rect x="1085.13" y="581.51" class="st3" width="3.75" height="36.7"/>
				<rect x="1060.45" y="581.51" class="st3" width="3.75" height="36.7"/>
				<rect x="1022.61" y="581.51" class="st3" width="3.75" height="36.7"/>
				<rect x="987.18" y="581.51" class="st3" width="3.75" height="36.7"/>
				<rect x="955.54" y="581.51" class="st3" width="3.75" height="36.7"/>
				<rect x="1148.49" y="581.51" class="st3" width="3.75" height="36.7"/>
				<rect x="1156.48" y="581.51" class="st3" width="3.75" height="36.7"/>
				<path class="st3" d="M1167.94,581.51v22.68c-1.23,2.36-2.49,4.7-3.76,7.02v-29.7H1167.94z"/>
				<path class="st3" d="M1173.74,581.63v11.21c-1.23,2.49-2.48,4.96-3.75,7.41V581.5h2.34
					C1172.81,581.5,1173.28,581.55,1173.74,581.63z"/>
				<path class="st3" d="M1178.05,583.93c-0.93,1.99-1.88,3.96-2.85,5.93v-7.82c0.14,0.06,0.28,0.11,0.42,0.18
					c0.1,0.04,0.2,0.09,0.3,0.15c0.28,0.13,0.55,0.29,0.81,0.47c0.11,0.07,0.22,0.15,0.33,0.23c0.04,0.02,0.07,0.05,0.11,0.08
					c0.09,0.07,0.17,0.13,0.25,0.2C1177.64,583.53,1177.85,583.72,1178.05,583.93z"/>
			</g>
		</g>
		<g>
			<path class="st7" d="M1136.98,552.85v20.72c0,1.65-0.5,3.18-1.37,4.46c-0.91,1.34-2.22,2.4-3.75,2.99
				c-0.47,0.18-0.96,0.32-1.46,0.41c-0.15,0.03-0.31,0.05-0.46,0.07c-0.12,0.02-0.25,0.03-0.37,0.04c-0.06,0-0.12,0.01-0.19,0.01
				c-0.13,0-0.26,0.01-0.39,0.01H798.91c-4.26,0-7.76-3.37-7.98-7.58c0-0.14-0.01-0.27-0.01-0.41v-20.72c0-0.14,0-0.27,0.01-0.41
				c0.22-4.2,3.72-7.58,7.98-7.58h330.08c0.14,0,0.28,0,0.42,0.01c0.34,0.02,0.66,0.06,0.98,0.12c0.5,0.09,0.99,0.23,1.46,0.41
				c0.24,0.09,0.47,0.19,0.69,0.31c0.14,0.07,0.28,0.14,0.41,0.22c0.01,0,0.03,0.01,0.04,0.03c0.14,0.08,0.27,0.16,0.4,0.25
				c0.03,0.01,0.05,0.03,0.07,0.04c0.12,0.08,0.24,0.17,0.36,0.26c0.28,0.21,0.55,0.44,0.79,0.69c0.08,0.08,0.15,0.15,0.23,0.23
				c0.01,0.01,0.03,0.03,0.04,0.04c0.05,0.05,0.09,0.1,0.14,0.15c0.01,0.01,0.02,0.02,0.03,0.03c0.08,0.09,0.16,0.19,0.23,0.29
				c0.11,0.14,0.22,0.28,0.32,0.43C1136.48,549.67,1136.98,551.2,1136.98,552.85z"/>
			<path class="st3" d="M974.89,581.56H798.06c-3.8,0-6.93-3.37-7.12-7.58c0-0.14-0.01-0.27-0.01-0.41v-20.72
				c0-0.14,0-0.27,0.01-0.41c0.19-4.2,3.32-7.58,7.12-7.58h155.12c0.06,0.28,0.13,0.56,0.2,0.85c2.57,10.71,8.38,25.12,21.44,35.79
				C974.85,581.52,974.87,581.54,974.89,581.56z"/>
			<g>
				<rect x="1093.06" y="544.87" class="st3" width="3.75" height="36.7"/>
				<rect x="1080.37" y="544.87" class="st3" width="3.75" height="36.7"/>
				<rect x="1065.14" y="544.87" class="st3" width="3.75" height="36.7"/>
				<rect x="1041.8" y="544.87" class="st3" width="3.75" height="36.7"/>
				<rect x="1017.11" y="544.87" class="st3" width="3.75" height="36.7"/>
				<rect x="979.27" y="544.87" class="st3" width="3.75" height="36.7"/>
				<rect x="943.84" y="544.87" class="st3" width="3.75" height="36.7"/>
				<rect x="912.2" y="544.87" class="st3" width="3.75" height="36.7"/>
				<rect x="1105.15" y="544.87" class="st3" width="3.75" height="36.7"/>
				<rect x="1113.14" y="544.87" class="st3" width="3.75" height="36.7"/>
				<rect x="1120.85" y="544.87" class="st3" width="3.75" height="36.7"/>
				<path class="st3" d="M1130.4,545v36.44c-0.46,0.08-0.93,0.13-1.41,0.13h-2.34v-36.7h2.34
					C1129.48,544.87,1129.94,544.91,1130.4,545z"/>
				<path class="st3" d="M1135.61,548.39v29.64c-0.91,1.34-2.22,2.4-3.75,2.99v-35.62C1133.4,546,1134.7,547.05,1135.61,548.39z"/>
			</g>
		</g>
		<g>
			<path class="st7" d="M1161.25,517.01v20.72c0,1.65-0.5,3.18-1.37,4.46c-0.91,1.34-2.22,2.4-3.75,2.99
				c-0.47,0.19-0.96,0.32-1.46,0.41c-0.46,0.08-0.93,0.13-1.41,0.13H823.18c-1.28,0-2.49-0.3-3.57-0.85
				c-2.41-1.21-4.13-3.6-4.39-6.4c-0.01-0.11-0.02-0.22-0.02-0.33c0-0.14-0.01-0.27-0.01-0.41v-20.72c0-0.14,0-0.27,0.01-0.41
				c0.2-3.89,3.21-7.06,7.03-7.52c0.31-0.04,0.62-0.06,0.94-0.06h330.08c0.48,0,0.95,0.04,1.41,0.13c0.5,0.09,0.99,0.23,1.46,0.41
				c1.53,0.59,2.84,1.65,3.75,2.99C1160.75,513.82,1161.25,515.35,1161.25,517.01z"/>
			<path class="st3" d="M999.16,545.71H822.32c-1.14,0-2.22-0.3-3.18-0.85c-2.15-1.21-3.68-3.6-3.92-6.4
				c-0.01-0.11-0.02-0.22-0.02-0.33c0-0.14-0.01-0.27-0.01-0.41v-20.72c0-0.14,0-0.27,0.01-0.41c0.18-3.88,2.87-7.06,6.28-7.52
				c0.27-0.04,0.56-0.06,0.84-0.06h155.12c0,0.02,0.01,0.04,0.01,0.06c2.42,10.52,7.97,24.94,20.69,35.79
				C998.48,545.15,998.82,545.44,999.16,545.71z"/>
			<g>
				<rect x="1117.33" y="509.02" class="st3" width="3.75" height="36.69"/>
				<rect x="1104.63" y="509.02" class="st3" width="3.75" height="36.69"/>
				<rect x="1089.41" y="509.02" class="st3" width="3.75" height="36.69"/>
				<rect x="1066.06" y="509.02" class="st3" width="3.75" height="36.69"/>
				<rect x="1041.38" y="509.02" class="st3" width="3.75" height="36.69"/>
				<rect x="1003.54" y="509.02" class="st3" width="3.75" height="36.69"/>
				<rect x="968.11" y="509.02" class="st3" width="3.75" height="36.69"/>
				<rect x="936.47" y="509.02" class="st3" width="3.75" height="36.69"/>
				<rect x="1129.42" y="509.02" class="st3" width="3.75" height="36.69"/>
				<rect x="1137.41" y="509.02" class="st3" width="3.75" height="36.69"/>
				<rect x="1145.12" y="509.02" class="st3" width="3.75" height="36.69"/>
				<path class="st3" d="M1154.67,509.15v36.44c-0.46,0.08-0.93,0.13-1.41,0.13h-2.34v-36.7h2.34
					C1153.74,509.02,1154.21,509.06,1154.67,509.15z"/>
				<path class="st3" d="M1159.88,512.55v29.64c-0.91,1.34-2.22,2.4-3.75,2.99v-35.62C1157.66,510.15,1158.97,511.2,1159.88,512.55z
					"/>
			</g>
		</g>
		<g>
			<path class="st7" d="M1136.98,480.37v20.72c0,1.65-0.5,3.18-1.37,4.46c-0.91,1.34-2.22,2.4-3.75,2.99
				c-0.47,0.19-0.96,0.32-1.46,0.41c-0.15,0.03-0.31,0.05-0.46,0.07c-0.08,0.01-0.17,0.02-0.26,0.03c-0.08,0.01-0.17,0.01-0.26,0.02
				c-0.14,0.01-0.28,0.01-0.42,0.01H798.91c-4.26,0-7.76-3.37-7.98-7.58c0-0.14-0.01-0.27-0.01-0.41v-20.72c0-0.14,0-0.27,0.01-0.41
				c0.22-4.2,3.72-7.58,7.98-7.58h330.08c0.48,0,0.95,0.04,1.41,0.13c0.5,0.09,0.99,0.23,1.46,0.41c1.53,0.59,2.84,1.65,3.75,2.99
				C1136.48,477.18,1136.98,478.72,1136.98,480.37z"/>
			<path class="st3" d="M974.89,509.08H798.06c-3.8,0-6.93-3.37-7.12-7.58c0-0.14-0.01-0.27-0.01-0.41v-20.72
				c0-0.14,0-0.27,0.01-0.41c0.19-4.2,3.32-7.58,7.12-7.58h155.12c2.47,10.79,8.23,25.69,21.65,36.64
				C974.85,509.04,974.87,509.06,974.89,509.08z"/>
			<g>
				<rect x="1093.06" y="472.38" class="st3" width="3.75" height="36.7"/>
				<rect x="1080.37" y="472.38" class="st3" width="3.75" height="36.7"/>
				<rect x="1065.14" y="472.38" class="st3" width="3.75" height="36.7"/>
				<rect x="1041.8" y="472.38" class="st3" width="3.75" height="36.7"/>
				<rect x="1017.11" y="472.38" class="st3" width="3.75" height="36.7"/>
				<rect x="979.27" y="472.38" class="st3" width="3.75" height="36.7"/>
				<rect x="943.84" y="472.38" class="st3" width="3.75" height="36.7"/>
				<rect x="912.2" y="472.38" class="st3" width="3.75" height="36.7"/>
				<rect x="1105.15" y="472.38" class="st3" width="3.75" height="36.7"/>
				<rect x="1113.14" y="472.38" class="st3" width="3.75" height="36.7"/>
				<rect x="1120.85" y="472.38" class="st3" width="3.75" height="36.7"/>
				<path class="st3" d="M1130.4,472.51v36.44c-0.46,0.08-0.93,0.13-1.41,0.13h-2.34v-36.7h2.34
					C1129.48,472.38,1129.94,472.42,1130.4,472.51z"/>
				<path class="st3" d="M1135.61,475.91v29.64c-0.91,1.34-2.22,2.4-3.75,2.99v-35.62C1133.4,473.51,1134.7,474.57,1135.61,475.91z"
					/>
			</g>
		</g>
	</g>
	<g>
		<path class="st10" d="M1017.73,404.08L857.19,224.91c-17.3-19.3-49.28-7.07-49.28,18.85v451.47c0,0,209.82,29.1,209.82,0
			C1017.73,666.13,1017.73,404.08,1017.73,404.08z"/>
		<g>
			<g>
				<g>
					<path class="st8" d="M736.41,688.96l70.31-8.98c0,0-5.88-43.33,4.14-101.87c7.39-43.24,23.45-94.77,56.94-143.26
						c57.11-82.7,234.75-134.98,234.75-134.98l-0.43-10.38l-6.48-0.43c0,0,2.7-2.06,6.33-3.33l-1.01-24.54
						c-5.31,0.14-12.89,0.77-20.32,2.84c4.16-1.22,13.04-3.65,20.25-4.51l-0.53-12.9c-259.72,17.7-338.03,178.25-359.58,300.9
						C726.96,626,736.41,688.96,736.41,688.96z"/>
					<path class="st9" d="M426.66,678.89l309.75,10.07c-0.37-47.63,10.01-97.33,20.48-135.12c10.46-37.79,21.03-63.67,21.03-63.67
						c84.02-206.24,322.42-243.57,322.42-243.57l-270.37-97.9c-128.04,14.97-215.6,80.38-275.42,160.44
						C437.38,465.95,426.66,678.89,426.66,678.89z"/>
				</g>
				<path class="st16" d="M426.66,678.89l309.75,10.07l70.31-8.98c0,0-5.88-43.33,4.14-101.87c-15.08-8.25-32.94-16.38-53.97-24.27
					c-5.52-2.07-10.9-4.19-16.12-6.34c-200.37-82.62-187.89-224.74-186.21-238.35C437.38,465.95,426.66,678.89,426.66,678.89z"/>
				<g>
					<path class="st8" d="M828.82,164.55l-0.82,0.02c-2.33,0.04-57.68,1.49-127.41,38.06c-40.86,21.44-78.1,50.57-110.67,86.59
						c-12.61,13.94-24.52,28.93-35.71,44.92c-12.59,17.99-24.27,37.24-34.99,57.69c-5.66,10.79-11.06,21.91-16.18,33.36
						c-0.45,1.02-0.91,2.04-1.35,3.06c-3.88,8.79-7.6,17.76-11.16,26.92c-1.38,3.43-24.08,60.64-36.41,118.96
						c-1.31,6.17-2.49,12.35-3.52,18.49c-0.71,4.16-1.34,8.3-1.89,12.39c-1.41,10.52-2.27,20.76-2.39,30.39
						c-0.07,5.07,0.07,9.97,0.45,14.65l0.01,0.08l2.43,24.3l0.52,5.21l0.77,7.75l0.79,7.88l0.28,2.8l0.36,3.6l196.21-11.92
						l16.2-0.98l1.87-0.11l10.62-0.65l10.6-0.64h0.05l39.43-2.4l-1.19-5.25c-0.16-0.69-13.31-60.99,2.23-137.7
						c0.37-1.84,0.76-3.68,1.17-5.54c1.23-5.66,2.62-11.4,4.2-17.21c1.21-4.48,2.52-9.01,3.95-13.56c1.53-4.87,3.16-9.7,4.89-14.47
						c0.21-0.58,0.42-1.17,0.64-1.75c7.89-21.47,17.8-41.91,29.67-61.23c0.63-1.03,1.27-2.05,1.91-3.07
						c7.25-11.53,15.2-22.66,23.86-33.36c3.12-3.87,6.34-7.69,9.66-11.45c5.5-6.26,11.26-12.35,17.26-18.29
						c7.49-7.41,15.37-14.57,23.63-21.48c0.04-0.03,0.07-0.06,0.11-0.09c20.78-17.35,43.98-33.12,69.53-47.26
						c2.15-1.2,4.33-2.38,6.52-3.55c0.02-0.01,0.03-0.02,0.05-0.03c0.02-0.01,0.04-0.02,0.06-0.03
						c32.62-17.43,68.93-32.27,108.72-44.41l13.37-4.08L828.82,164.55z M993.95,248.95c-29.42,10.83-56.71,23.29-81.79,37.31
						c-35.81,20.02-67.11,43.23-93.64,69.51c-3.63,3.6-7.18,7.25-10.62,10.96c-7.55,8.1-14.67,16.47-21.36,25.1
						c-24.63,31.77-43.45,67.08-56.17,105.46c-0.47,1.37-0.91,2.75-1.34,4.13c-0.22,0.65-0.43,1.3-0.63,1.96
						c-2.74,8.78-5.08,17.43-7.05,25.89c-0.7,2.97-1.35,5.91-1.95,8.83v0.01c-0.71,3.39-1.36,6.73-1.97,10.05
						c-5.75,31.86-6.7,60-6.17,80.44c0.6,22.98,3.06,39.82,4.49,47.87l-40.22,2.44l-10.57,0.64l-2.26,0.14l-15.85,0.96l-57.79,3.52
						h-0.07l-128.82,7.82l-1.2-12.05l-3.06-30.67c-0.35-4.3-0.48-8.93-0.41-13.87c0.25-17,2.97-37.65,8.07-61.27
						c3.07-14.25,7-29.59,11.78-45.87c11.38-38.8,23.58-69.43,23.71-69.73c4.01-10.33,8.23-20.43,12.65-30.27
						c0.4-0.9,0.81-1.8,1.23-2.7c5.26-11.59,10.82-22.84,16.66-33.73c8.16-15.26,16.88-29.83,26.12-43.66
						c12.62-18.9,26.22-36.44,40.76-52.54c31.78-35.2,68.09-63.68,107.93-84.64c43.22-22.75,81.35-31.63,103.5-35.08
						c11.63-1.81,23.52-0.73,34.62,3.17l151.32,53.09C1001.74,234.94,1001.8,246.06,993.95,248.95z"/>
				</g>
				<path class="st8" d="M586.94,379.34c1.87,45.34,29.57,71.63,74.9,69.76c45.34-1.87,91.15-31.21,89.28-76.54
					c-1.87-45.34-28.1-71.41-73.44-69.54C632.34,304.89,585.06,334.01,586.94,379.34z"/>
			</g>
			<g>
				<path class="st11" d="M1017.73,404.08v364.71c-5.8,3.56-11.71,6.98-17.74,10.24c-4.62,2.51-9.3,4.93-14.04,7.26
					c-7.19,3.53-14.52,6.87-22,9.99c-1.24,0.53-2.49,1.05-3.75,1.56c-2.18,0.89-4.37,1.76-6.58,2.61c-3.19,1.24-6.4,2.44-9.64,3.61
					c-7.17,2.59-14.48,4.99-21.91,7.22c-2.63,0.8-5.28,1.56-7.94,2.3c-10.24,2.88-20.71,5.42-31.42,7.62
					c-8.22,2.14-16.57,3.63-24.99,4.47c-19.46,2.99-39.65,4.93-60.57,5.79c-3.41,0.15-6.85,0.26-10.3,0.34
					c-5.03,0.13-10.11,0.19-15.23,0.19c-6.15,0-12.34-0.07-18.55-0.21c-52.22-1.16-106.23-7.24-158.4-18.36
					c-3.94-0.84-7.87-1.7-11.79-2.6c-46.31-10.6-90.93-25.22-131.31-43.96c-1.03-0.47-2.05-0.95-3.06-1.43
					c-10.16-4.79-20.05-9.85-29.62-15.18V404.08c0-6.74,5.51-12.25,12.25-12.25h574.33c0.46,0,0.91,0.03,1.35,0.07
					C1012.93,392.58,1017.73,397.8,1017.73,404.08z"/>
				<g>
					<path class="st10" d="M471.11,425.19H460.9c-0.84,0-1.53,0.69-1.53,1.53c0,0.85,0.69,1.54,1.53,1.54h10.21
						c0.85,0,1.53-0.69,1.53-1.54C472.64,425.88,471.96,425.19,471.11,425.19z M491.53,425.19h-10.21c-0.84,0-1.53,0.69-1.53,1.53
						c0,0.85,0.69,1.54,1.53,1.54h10.21c0.85,0,1.54-0.69,1.54-1.54C493.07,425.88,492.38,425.19,491.53,425.19z M512.94,425.56
						c-0.27-0.23-0.61-0.37-0.98-0.37h-10.21c-0.85,0-1.54,0.69-1.54,1.53c0,0.83,0.66,1.51,1.48,1.53
						c0.02,0.01,0.04,0.01,0.06,0.01h10.21c0.84,0,1.53-0.69,1.53-1.54C513.49,426.25,513.28,425.83,512.94,425.56z M532.38,425.19
						h-10.21c-0.85,0-1.53,0.69-1.53,1.53c0,0.85,0.68,1.54,1.53,1.54h10.21c0.84,0,1.53-0.69,1.53-1.54
						C533.91,425.88,533.22,425.19,532.38,425.19z M552.8,425.19h-10.21c-0.85,0-1.53,0.69-1.53,1.53c0,0.85,0.68,1.54,1.53,1.54
						h10.21c0.85,0,1.53-0.69,1.53-1.54C554.33,425.88,553.65,425.19,552.8,425.19z M573.22,425.19h-10.21
						c-0.84,0-1.53,0.69-1.53,1.53c0,0.85,0.69,1.54,1.53,1.54h10.21c0.85,0,1.53-0.69,1.53-1.54
						C574.75,425.88,574.07,425.19,573.22,425.19z M593.64,425.19h-10.21c-0.84,0-1.53,0.69-1.53,1.53c0,0.85,0.69,1.54,1.53,1.54
						h10.21c0.85,0,1.54-0.69,1.54-1.54C595.18,425.88,594.49,425.19,593.64,425.19z M614.07,425.19h-10.22
						c-0.56,0-1.05,0.3-1.31,0.75c-0.14,0.23-0.22,0.5-0.22,0.78c0,0.85,0.69,1.54,1.53,1.54h10.22c0.84,0,1.53-0.69,1.53-1.54
						C615.6,425.88,614.91,425.19,614.07,425.19z M634.49,425.19h-10.21c-0.85,0-1.53,0.69-1.53,1.53c0,0.85,0.68,1.54,1.53,1.54
						h10.21c0.84,0,1.53-0.69,1.53-1.54C636.02,425.88,635.33,425.19,634.49,425.19z M654.91,425.19H644.7
						c-0.85,0-1.53,0.69-1.53,1.53c0,0.85,0.68,1.54,1.53,1.54h10.21c0.85,0,1.53-0.69,1.53-1.54
						C656.44,425.88,655.76,425.19,654.91,425.19z M675.33,425.19h-10.21c-0.84,0-1.53,0.69-1.53,1.53c0,0.85,0.69,1.54,1.53,1.54
						h10.21c0.85,0,1.53-0.69,1.53-1.54C676.86,425.88,676.18,425.19,675.33,425.19z M695.75,425.19h-10.21
						c-0.84,0-1.53,0.69-1.53,1.53c0,0.85,0.69,1.54,1.53,1.54h10.21c0.85,0,1.54-0.69,1.54-1.54
						C697.29,425.88,696.6,425.19,695.75,425.19z M716.18,425.19h-10.22c-0.84,0-1.53,0.69-1.53,1.53c0,0.85,0.69,1.54,1.53,1.54
						h10.22c0.84,0,1.53-0.69,1.53-1.54C717.71,425.88,717.02,425.19,716.18,425.19z M736.6,425.19h-10.21
						c-0.8,0-1.46,0.61-1.53,1.39v0.01c-0.01,0.05-0.01,0.08-0.01,0.13c0,0.85,0.69,1.54,1.54,1.54h10.21
						c0.84,0,1.53-0.69,1.53-1.54C738.13,425.88,737.44,425.19,736.6,425.19z M757.02,425.19h-10.21c-0.85,0-1.53,0.69-1.53,1.53
						c0,0.85,0.68,1.54,1.53,1.54h10.21c0.84,0,1.53-0.69,1.53-1.54C758.55,425.88,757.86,425.19,757.02,425.19z M777.44,425.19
						h-10.21c-0.85,0-1.53,0.69-1.53,1.53c0,0.85,0.68,1.54,1.53,1.54h10.21c0.85,0,1.53-0.69,1.53-1.54
						C778.97,425.88,778.29,425.19,777.44,425.19z M797.86,425.19h-10.21c-0.84,0-1.53,0.69-1.53,1.53c0,0.85,0.69,1.54,1.53,1.54
						h10.21c0.85,0,1.53-0.69,1.53-1.54C799.39,425.88,798.71,425.19,797.86,425.19z M818.28,425.19h-10.21
						c-0.06,0-0.11,0-0.17,0.02c-0.76,0.08-1.36,0.73-1.36,1.51c0,0.79,0.6,1.44,1.36,1.52c0.06,0.02,0.11,0.02,0.17,0.02h10.21
						c0.85,0,1.54-0.69,1.54-1.54C819.82,425.88,819.13,425.19,818.28,425.19z M838.71,425.19H828.5c-0.85,0-1.54,0.69-1.54,1.53
						c0,0.85,0.69,1.54,1.54,1.54h10.21c0.84,0,1.53-0.69,1.53-1.54C840.24,425.88,839.55,425.19,838.71,425.19z M859.13,425.19
						h-10.21c-0.85,0-1.53,0.69-1.53,1.53c0,0.85,0.68,1.54,1.53,1.54h10.21c0.84,0,1.53-0.69,1.53-1.54
						C860.66,425.88,859.97,425.19,859.13,425.19z M879.55,425.19h-10.21c-0.85,0-1.53,0.69-1.53,1.53c0,0.85,0.68,1.54,1.53,1.54
						h10.21c0.85,0,1.53-0.69,1.53-1.54C881.08,425.88,880.4,425.19,879.55,425.19z M899.97,425.19h-10.21
						c-0.84,0-1.53,0.69-1.53,1.53c0,0.85,0.69,1.54,1.53,1.54h10.21c0.85,0,1.53-0.69,1.53-1.54
						C901.5,425.88,900.82,425.19,899.97,425.19z M920.39,425.19h-10.21c-0.84,0-1.53,0.69-1.53,1.53c0,0.85,0.69,1.54,1.53,1.54
						h10.21c0.85,0,1.54-0.69,1.54-1.54C921.93,425.88,921.24,425.19,920.39,425.19z M940.82,425.19h-10.21
						c-0.85,0-1.54,0.69-1.54,1.53c0,0.85,0.69,1.54,1.54,1.54h10.21c0.84,0,1.53-0.69,1.53-1.54
						C942.35,425.88,941.66,425.19,940.82,425.19z M961.24,425.19h-10.21c-0.85,0-1.53,0.69-1.53,1.53c0,0.85,0.68,1.54,1.53,1.54
						h10.21c0.84,0,1.53-0.69,1.53-1.54C962.77,425.88,962.08,425.19,961.24,425.19z M971.32,430.04c-0.51-0.68-1.47-0.81-2.14-0.29
						c-0.68,0.51-0.81,1.47-0.3,2.14c1.22,1.61,1.87,3.51,1.87,5.52v3.28c0,0.85,0.68,1.54,1.53,1.54s1.53-0.69,1.53-1.54v-3.28
						C973.81,434.73,972.95,432.18,971.32,430.04z M453.02,429.87c-0.69-0.5-1.64-0.35-2.15,0.33c-1.54,2.11-2.36,4.6-2.36,7.21
						v3.46c0,0.85,0.68,1.54,1.53,1.54c0.84,0,1.53-0.69,1.53-1.54v-3.46c0-1.95,0.61-3.82,1.77-5.39
						C453.84,431.33,453.7,430.37,453.02,429.87z M972.28,449.37c-0.85,0-1.53,0.69-1.53,1.54v10.21c0,0.84,0.68,1.53,1.53,1.53
						s1.53-0.69,1.53-1.53v-10.21C973.81,450.06,973.13,449.37,972.28,449.37z M450.04,449.55c-0.85,0-1.53,0.69-1.53,1.53v10.22
						c0,0.84,0.68,1.53,1.53,1.53c0.84,0,1.53-0.69,1.53-1.53v-10.22C451.57,450.24,450.88,449.55,450.04,449.55z M972.28,469.8
						c-0.85,0-1.53,0.68-1.53,1.53v10.21c0,0.84,0.68,1.53,1.53,1.53s1.53-0.69,1.53-1.53v-10.21
						C973.81,470.48,973.13,469.8,972.28,469.8z M450.04,469.98c-0.85,0-1.53,0.68-1.53,1.53v10.21c0,0.84,0.68,1.53,1.53,1.53
						c0.84,0,1.53-0.69,1.53-1.53v-10.21C451.57,470.66,450.88,469.98,450.04,469.98z M972.28,490.22c-0.85,0-1.53,0.68-1.53,1.53
						v10.21c0,0.85,0.68,1.53,1.53,1.53s1.53-0.68,1.53-1.53v-10.21C973.81,490.9,973.13,490.22,972.28,490.22z M450.04,490.4
						c-0.85,0-1.53,0.68-1.53,1.53v10.21c0,0.85,0.68,1.53,1.53,1.53c0.84,0,1.53-0.68,1.53-1.53v-10.21
						C451.57,491.08,450.88,490.4,450.04,490.4z M972.28,510.64c-0.15,0-0.29,0.02-0.42,0.06c-0.64,0.18-1.11,0.77-1.11,1.47v10.21
						c0,0.7,0.47,1.29,1.11,1.47c0.13,0.04,0.27,0.06,0.42,0.06c0.85,0,1.53-0.68,1.53-1.53v-10.21
						C973.81,511.33,973.13,510.64,972.28,510.64z M450.04,510.82c-0.85,0-1.53,0.68-1.53,1.53v10.21c0,0.85,0.68,1.53,1.53,1.53
						c0.84,0,1.53-0.68,1.53-1.53v-10.21C451.57,511.5,450.88,510.82,450.04,510.82z M972.28,531.06c-0.15,0-0.29,0.02-0.42,0.06
						c-0.64,0.18-1.11,0.77-1.11,1.47v10.21c0,0.7,0.47,1.3,1.11,1.48c0.13,0.04,0.27,0.06,0.42,0.06c0.85,0,1.53-0.69,1.53-1.54
						v-10.21C973.81,531.75,973.13,531.06,972.28,531.06z M450.04,531.24c-0.85,0-1.53,0.69-1.53,1.53v10.21
						c0,0.36,0.12,0.68,0.33,0.94c0.27,0.37,0.71,0.6,1.2,0.6c0.84,0,1.53-0.69,1.53-1.54v-10.21
						C451.57,531.93,450.88,531.24,450.04,531.24z M972.28,551.48c-0.85,0-1.53,0.69-1.53,1.53v10.22c0,0.84,0.68,1.53,1.53,1.53
						s1.53-0.69,1.53-1.53v-10.22C973.81,552.17,973.13,551.48,972.28,551.48z M450.04,551.66c-0.85,0-1.53,0.69-1.53,1.53v10.22
						c0,0.84,0.68,1.53,1.53,1.53c0.84,0,1.53-0.69,1.53-1.53v-10.22C451.57,552.35,450.88,551.66,450.04,551.66z M972.28,571.91
						c-0.85,0-1.53,0.68-1.53,1.53v10.21c0,0.84,0.68,1.53,1.53,1.53s1.53-0.69,1.53-1.53v-10.21
						C973.81,572.59,973.13,571.91,972.28,571.91z M450.04,572.08c-0.85,0-1.53,0.69-1.53,1.54v10.21c0,0.84,0.68,1.53,1.53,1.53
						c0.84,0,1.53-0.69,1.53-1.53v-10.21C451.57,572.77,450.88,572.08,450.04,572.08z M972.28,592.33c-0.85,0-1.53,0.68-1.53,1.53
						v10.21c0,0.85,0.68,1.53,1.53,1.53s1.53-0.68,1.53-1.53v-10.21C973.81,593.01,973.13,592.33,972.28,592.33z M450.6,592.62
						c-0.17-0.07-0.36-0.11-0.56-0.11c-0.85,0-1.53,0.68-1.53,1.53v10.21c0,0.28,0.07,0.54,0.2,0.76c0.26,0.46,0.76,0.77,1.33,0.77
						c0.84,0,1.53-0.68,1.53-1.53v-10.21C451.57,593.39,451.17,592.84,450.6,592.62z M972.28,612.75c-0.85,0-1.53,0.68-1.53,1.53
						v10.21c0,0.66,0.4,1.2,0.97,1.42h0.01c0.17,0.07,0.36,0.11,0.55,0.11c0.85,0,1.53-0.68,1.53-1.53v-10.21
						C973.81,613.43,973.13,612.75,972.28,612.75z M450.04,612.93c-0.85,0-1.53,0.68-1.53,1.53v10.21c0,0.85,0.68,1.53,1.53,1.53
						c0.84,0,1.53-0.68,1.53-1.53v-10.21C451.57,613.61,450.88,612.93,450.04,612.93z M972.28,633.17c-0.85,0-1.53,0.69-1.53,1.53
						v10.21c0,0.85,0.68,1.54,1.53,1.54s1.53-0.69,1.53-1.54V634.7C973.81,633.86,973.13,633.17,972.28,633.17z M450.04,633.35
						c-0.85,0-1.53,0.69-1.53,1.53v10.21c0,0.85,0.68,1.54,1.53,1.54c0.84,0,1.53-0.69,1.53-1.54v-10.21
						C451.57,634.04,450.88,633.35,450.04,633.35z M973.79,654.9c-0.05-0.36-0.23-0.69-0.49-0.91c-0.27-0.25-0.63-0.4-1.02-0.4
						c-0.39,0-0.75,0.15-1.02,0.4c-0.26,0.22-0.44,0.55-0.49,0.91c-0.01,0.07-0.02,0.15-0.02,0.22v10.22c0,0.84,0.68,1.53,1.53,1.53
						s1.53-0.69,1.53-1.53v-10.22C973.81,655.05,973.8,654.97,973.79,654.9z M450.04,653.77c-0.85,0-1.53,0.69-1.53,1.53v10.22
						c0,0.84,0.68,1.53,1.53,1.53c0.84,0,1.53-0.69,1.53-1.53V655.3C451.57,654.46,450.88,653.77,450.04,653.77z M972.28,674.01
						c-0.85,0-1.53,0.69-1.53,1.54v10.21c0,0.84,0.68,1.53,1.53,1.53s1.53-0.69,1.53-1.53v-10.21
						C973.81,674.7,973.13,674.01,972.28,674.01z M450.04,674.19c-0.31,0-0.59,0.09-0.83,0.24c-0.42,0.28-0.7,0.76-0.7,1.3v10.21
						c0,0.84,0.68,1.53,1.53,1.53c0.16,0,0.32-0.03,0.46-0.08c0.62-0.19,1.07-0.77,1.07-1.45v-10.21
						C451.57,674.88,450.88,674.19,450.04,674.19z M972.28,694.44c-0.85,0-1.53,0.68-1.53,1.53v10.21c0,0.85,0.68,1.53,1.53,1.53
						s1.53-0.68,1.53-1.53v-10.21C973.81,695.12,973.13,694.44,972.28,694.44z M451.29,695.27c-0.28-0.39-0.73-0.65-1.25-0.65
						c-0.85,0-1.53,0.68-1.53,1.53v10.21c0,0.84,0.68,1.53,1.53,1.53c0.84,0,1.53-0.69,1.53-1.53v-10.21
						C451.57,695.82,451.47,695.52,451.29,695.27z M972.28,714.86c-0.85,0-1.53,0.68-1.53,1.53v10.21c0,0.16,0.02,0.32,0.08,0.46
						c0,0.02,0,0.04,0.02,0.06c0.15,0.46,0.53,0.82,1.01,0.95c0.13,0.04,0.27,0.06,0.42,0.06c0.67,0,1.23-0.42,1.43-1.01
						c0.02-0.02,0.02-0.04,0.02-0.06c0.06-0.14,0.08-0.3,0.08-0.46v-10.21C973.81,715.54,973.13,714.86,972.28,714.86z
						 M450.04,715.04c-0.85,0-1.53,0.68-1.53,1.53v10.21c0,0.85,0.68,1.53,1.53,1.53c0.84,0,1.53-0.68,1.53-1.53v-10.21
						C451.57,715.72,450.88,715.04,450.04,715.04z M972.28,735.28c-0.15,0-0.29,0.02-0.42,0.06c-0.64,0.18-1.11,0.77-1.11,1.47
						v10.21c0,0.7,0.47,1.29,1.11,1.47c0.13,0.04,0.27,0.06,0.42,0.06c0.85,0,1.53-0.68,1.53-1.53v-10.21
						C973.81,735.97,973.13,735.28,972.28,735.28z M450.04,735.46c-0.85,0-1.53,0.69-1.53,1.53v10.21c0,0.85,0.68,1.53,1.53,1.53
						c0.84,0,1.53-0.68,1.53-1.53v-10.21C451.57,736.15,450.88,735.46,450.04,735.46z M972.28,755.7c-0.15,0-0.29,0.02-0.42,0.06
						c-0.64,0.18-1.11,0.77-1.11,1.47v10.21c0,0.85,0.68,1.54,1.53,1.54s1.53-0.69,1.53-1.54v-10.21
						C973.81,756.39,973.13,755.7,972.28,755.7z M450.04,755.88c-0.85,0-1.53,0.69-1.53,1.53v8.02c1.01,0.48,2.03,0.96,3.06,1.43
						v-9.45C451.57,756.57,450.88,755.88,450.04,755.88z M973.77,777.32c-0.15-0.69-0.76-1.2-1.49-1.2c-0.85,0-1.53,0.69-1.53,1.54
						v10.21c0,0.84,0.68,1.53,1.53,1.53s1.53-0.69,1.53-1.53v-10.21C973.81,777.54,973.8,777.43,973.77,777.32z M594,810.52h-10.21
						c-0.34,0-0.66,0.11-0.91,0.3c3.92,0.9,7.85,1.76,11.79,2.6c0.51-0.24,0.86-0.76,0.86-1.37
						C595.53,811.2,594.85,810.52,594,810.52z M614.42,810.52h-10.21c-0.84,0-1.53,0.68-1.53,1.53c0,0.85,0.69,1.53,1.53,1.53h10.21
						c0.85,0,1.53-0.68,1.53-1.53C615.95,811.2,615.27,810.52,614.42,810.52z M634.84,810.52h-10.21c-0.84,0-1.53,0.68-1.53,1.53
						c0,0.85,0.69,1.53,1.53,1.53h10.21c0.85,0,1.54-0.68,1.54-1.53C636.38,811.2,635.69,810.52,634.84,810.52z M655.27,810.52
						h-10.22c-0.84,0-1.53,0.68-1.53,1.53c0,0.85,0.69,1.53,1.53,1.53h10.22c0.84,0,1.53-0.68,1.53-1.53
						C656.8,811.2,656.11,810.52,655.27,810.52z M675.69,810.52h-10.21c-0.85,0-1.54,0.68-1.54,1.53c0,0.85,0.69,1.53,1.54,1.53
						h10.21c0.84,0,1.53-0.68,1.53-1.53C677.22,811.2,676.53,810.52,675.69,810.52z M696.11,810.52H685.9
						c-0.85,0-1.53,0.68-1.53,1.53c0,0.85,0.68,1.53,1.53,1.53h10.21c0.85,0,1.53-0.68,1.53-1.53
						C697.64,811.2,696.96,810.52,696.11,810.52z M716.53,810.52h-10.21c-0.85,0-1.53,0.68-1.53,1.53c0,0.85,0.68,1.53,1.53,1.53
						h10.21c0.85,0,1.53-0.68,1.53-1.53C718.06,811.2,717.38,810.52,716.53,810.52z M736.95,810.52h-10.21
						c-0.84,0-1.53,0.68-1.53,1.53c0,0.85,0.69,1.53,1.53,1.53h10.21c0.85,0,1.53-0.68,1.53-1.53
						C738.48,811.2,737.8,810.52,736.95,810.52z M757.38,810.52h-10.22c-0.39,0-0.74,0.15-1.01,0.39c-0.32,0.27-0.52,0.68-0.52,1.14
						c0,0.85,0.69,1.53,1.53,1.53h10.22c0.84,0,1.53-0.68,1.53-1.53C758.91,811.2,758.22,810.52,757.38,810.52z M777.8,810.52
						h-10.21c-0.85,0-1.54,0.68-1.54,1.53c0,0.85,0.69,1.53,1.54,1.53h10.21c0.84,0,1.53-0.68,1.53-1.53
						C779.33,811.2,778.64,810.52,777.8,810.52z M798.22,810.52h-10.21c-0.85,0-1.53,0.68-1.53,1.53c0,0.85,0.68,1.53,1.53,1.53
						h10.21c0.84,0,1.53-0.68,1.53-1.53C799.75,811.2,799.06,810.52,798.22,810.52z M818.64,810.52h-10.21
						c-0.85,0-1.53,0.68-1.53,1.53c0,0.85,0.68,1.53,1.53,1.53h10.21c0.85,0,1.53-0.68,1.53-1.53
						C820.17,811.2,819.49,810.52,818.64,810.52z M839.06,810.52h-10.21c-0.84,0-1.53,0.68-1.53,1.53c0,0.85,0.69,1.53,1.53,1.53
						h10.21c0.85,0,1.53-0.68,1.53-1.53C840.59,811.2,839.91,810.52,839.06,810.52z M859.48,810.52h-10.21
						c-0.84,0-1.53,0.68-1.53,1.53c0,0.85,0.69,1.53,1.53,1.53h10.21c0.85,0,1.54-0.68,1.54-1.53
						C861.02,811.2,860.33,810.52,859.48,810.52z M879.91,810.52H869.7c-0.85,0-1.54,0.68-1.54,1.53c0,0.85,0.69,1.53,1.54,1.53
						h10.21c0.84,0,1.53-0.68,1.53-1.53C881.44,811.2,880.75,810.52,879.91,810.52z M900.33,810.52h-10.21
						c-0.85,0-1.53,0.68-1.53,1.53c0,0.85,0.68,1.53,1.53,1.53h10.21c0.84,0,1.53-0.68,1.53-1.53
						C901.86,811.2,901.17,810.52,900.33,810.52z M920.75,810.52h-10.21c-0.81,0-1.47,0.62-1.52,1.42
						c-0.01,0.03-0.01,0.07-0.01,0.11c0,0.85,0.68,1.53,1.53,1.53h3.59c2.66-0.74,5.31-1.5,7.94-2.3
						C921.81,810.82,921.32,810.52,920.75,810.52z"/>
				</g>
				<path class="st10" d="M470.87,635.4h-91.8c-12.94,0-23.54-10.59-23.54-23.54v-14.19c0-12.94,10.59-23.54,23.54-23.54h91.8
					c12.94,0,23.54,10.59,23.54,23.54v14.19C494.41,624.8,483.82,635.4,470.87,635.4z"/>
			</g>
			<g>
				<path class="st17" d="M1049.19,653.99c0,0.31-0.01,0.61-0.02,0.91c-0.33,11.98-1.77,23.88-4.28,35.53
					c-0.01,0.07-0.03,0.14-0.04,0.21c0,0.02-0.01,0.03-0.01,0.05c-0.88,4.09-1.9,8.14-3.05,12.16c-2.34,8.25-5.23,16.34-8.65,24.21
					c0,0.02,0,0.04-0.02,0.06c-4.3,9.94-9.44,19.54-15.39,28.68c-1.75,2.7-3.57,5.35-5.47,7.96c-3.8,5.27-7.9,10.37-12.27,15.27
					c-4.62,2.51-9.3,4.93-14.04,7.26c-7.19,3.53-14.52,6.87-22,9.99c-1.24,0.53-2.49,1.05-3.75,1.56c-2.18,0.89-4.37,1.76-6.58,2.61
					c-3.19,1.24-6.4,2.44-9.64,3.61c-7.17,2.59-14.48,4.99-21.91,7.22c-2.63,0.8-5.28,1.56-7.94,2.3
					c-10.24,2.88-20.71,5.42-31.42,7.62c-8.22,2.14-16.57,3.63-24.99,4.47c-19.46,2.99-39.65,4.93-60.57,5.79
					c-3.41,0.15-6.85,0.26-10.3,0.34c-12.76-4.75-25.04-10.84-36.61-18.22c-1.38-0.86-2.74-1.76-4.09-2.67
					c-24.82-16.69-46.14-39.39-61.58-67.39c-9.7-17.6-16.39-36.05-20.23-54.75c-0.15-0.72-0.3-1.44-0.43-2.17
					c-0.45-2.3-0.85-4.6-1.21-6.91c-8.34-53.34,6.07-107.97,39.28-150.22c7.95-10.13,16.99-19.54,27.05-28.05
					c4.2-3.56,8.58-6.96,13.13-10.18c3.71-2.65,7.54-5.16,11.48-7.56c0.02-0.01,0.03-0.02,0.05-0.02c1.33-0.82,2.68-1.62,4.04-2.4
					c1.07-0.62,2.15-1.23,3.24-1.83c8.93-4.93,18.09-9.07,27.38-12.46c6.46-2.37,12.98-4.36,19.55-6
					c15.51-3.86,31.26-5.74,46.9-5.73c27.55,0.02,54.76,5.91,79.75,17.14c3.13,1.4,6.23,2.89,9.29,4.46
					c1.26,0.64,2.51,1.3,3.75,1.98c3.15,1.7,6.25,3.49,9.3,5.38c4.74,2.91,9.37,6.04,13.86,9.38c1.03,0.75,2.05,1.53,3.06,2.31
					c1.84,1.42,3.66,2.89,5.46,4.39c1.26,1.04,2.51,2.11,3.75,3.2c2.05,1.8,4.07,3.65,6.06,5.54c0.02,0.02,0.04,0.04,0.06,0.06
					c5.04,4.82,9.85,9.94,14.4,15.36c1.28,1.51,2.53,3.06,3.75,4.62c3.68,4.65,7.16,9.5,10.44,14.55c0.27,0.42,0.54,0.84,0.8,1.26
					c0.19,0.28,0.37,0.56,0.53,0.84c0.62,0.96,1.22,1.92,1.8,2.89c1.45,2.37,2.85,4.78,4.2,7.23c4.62,8.39,8.56,16.97,11.83,25.67
					c0.01,0.02,0.02,0.04,0.02,0.06c4.52,12.03,7.77,24.29,9.79,36.64C1048.65,630.11,1049.47,642.1,1049.19,653.99z"/>
				<path class="st7" d="M1031.61,690.43c-0.01,0.09-0.03,0.18-0.04,0.26c-2.14,12.42-5.47,24.6-9.96,36.37
					c0,0.02-0.01,0.04-0.02,0.06c-1.2,3.17-2.49,6.31-3.86,9.41c-3.07,6.96-6.55,13.75-10.44,20.32c-1.21,2.06-2.46,4.09-3.75,6.09
					c-0.17,0.28-0.35,0.55-0.53,0.82c-5.1,7.88-10.79,15.41-17.06,22.53c-7.19,3.53-14.52,6.87-22,9.99
					c-1.24,0.53-2.49,1.05-3.75,1.56c-2.18,0.89-4.37,1.76-6.58,2.61c-3.19,1.24-6.4,2.44-9.64,3.61
					c-7.17,2.59-14.48,4.99-21.91,7.22c-2.63,0.8-5.28,1.56-7.94,2.3c-10.24,2.88-20.71,5.42-31.42,7.62
					c-8.22,2.14-16.57,3.63-24.99,4.47c-19.46,2.99-39.65,4.93-60.57,5.79c-3.41,0.15-6.85,0.26-10.3,0.34
					c-5.03,0.13-10.11,0.19-15.23,0.19c-6.15,0-12.34-0.07-18.55-0.21c-34.1-17-63.57-44.18-83.36-80.07
					c-10.95-19.86-18.06-40.79-21.57-61.96c-0.21-1.22-0.4-2.45-0.57-3.68c-0.27-1.8-0.51-3.61-0.72-5.42
					c-6.57-55.83,11.5-112.38,49.69-154.08c8.85-9.67,18.78-18.54,29.74-26.42c1.35-0.97,2.71-1.92,4.09-2.86
					c4.01-2.74,8.16-5.34,12.43-7.8c1.09-0.64,2.2-1.26,3.31-1.87c2.49-1.38,5.01-2.69,7.53-3.94c0.02-0.01,0.03-0.02,0.05-0.02
					c1.28-0.64,2.56-1.26,3.85-1.87c1.17-0.54,2.34-1.08,3.51-1.6c7.61-3.39,15.34-6.25,23.15-8.59c0.74-0.22,1.48-0.44,2.22-0.65
					c7.11-2.05,14.28-3.67,21.48-4.87c3.83-0.65,7.66-1.17,11.5-1.57c10.22-1.08,20.45-1.34,30.61-0.81
					c16.38,0.86,32.55,3.79,48.12,8.68c4.75,1.49,9.44,3.16,14.07,5.01c1.26,0.5,2.51,1.01,3.75,1.55c3.23,1.36,6.42,2.82,9.58,4.36
					c6.26,3.06,12.38,6.47,18.31,10.22c1.26,0.78,2.51,1.59,3.75,2.43c6.05,4,11.89,8.36,17.49,13.07c0.02,0.02,0.05,0.04,0.07,0.06
					c0.99,0.83,1.98,1.68,2.96,2.54c0.88,0.77,1.77,1.56,2.64,2.35c0.37,0.34,0.74,0.68,1.11,1.03c0.65,0.6,1.3,1.21,1.95,1.82
					c3.65,3.46,7.18,7.09,10.58,10.87c4.87,5.41,9.48,11.14,13.78,17.18c0.02,0.02,0.03,0.03,0.04,0.05v0.01l0.01,0.01
					c0.18,0.26,0.37,0.51,0.54,0.77c4.11,5.82,7.93,11.93,11.45,18.31c2.5,4.54,4.8,9.14,6.9,13.78c0.21,0.46,0.42,0.92,0.62,1.38
					c0.34,0.77,0.68,1.55,1.01,2.32c0.01,0.02,0.02,0.04,0.03,0.06c1.37,3.21,2.65,6.44,3.84,9.68c1.38,3.75,2.62,7.52,3.75,11.31
					c1.55,5.19,2.87,10.41,3.96,15.65c1.43,6.86,2.48,13.76,3.15,20.67c0.5,5.04,0.79,10.09,0.88,15.12
					c0.01,0.31,0.02,0.61,0.02,0.91C1034.54,666.85,1033.61,678.74,1031.61,690.43z"/>
				<path class="st3" d="M1018.2,654.9c0-0.31-0.01-0.61-0.03-0.91c-0.07-2.73-0.23-5.45-0.44-8.17c-0.74-9.3-2.22-18.53-4.43-27.62
					c-0.52-2.12-1.08-4.22-1.67-6.32c-2.94-10.36-6.84-20.5-11.7-30.32c-0.01-0.02-0.02-0.04-0.03-0.06
					c-1.18-2.4-2.42-4.77-3.72-7.13c-3.95-7.17-8.35-14-13.16-20.47c-1.22-1.64-2.48-3.27-3.75-4.86c-0.9-1.12-1.81-2.24-2.73-3.33
					c-0.24-0.28-0.47-0.56-0.71-0.84c-0.67-0.79-1.34-1.57-2.02-2.34c-0.64-0.74-1.29-1.46-1.95-2.18
					c-0.36-0.41-0.74-0.81-1.11-1.21c-0.87-0.93-1.74-1.86-2.64-2.77c-8.46-8.75-17.8-16.57-27.89-23.36
					c-1.24-0.84-2.49-1.66-3.75-2.46c-0.78-0.49-1.55-0.98-2.34-1.47c-0.03-0.02-0.07-0.04-0.1-0.06
					c-5.81-3.56-11.84-6.8-18.08-9.69c-1.24-0.58-2.49-1.14-3.75-1.69c-7.06-3.08-14.38-5.72-21.91-7.9
					c-16.46-4.76-33.24-7.1-49.91-7.06c-10.91,0.03-21.78,1.07-32.48,3.13c-5.71,1.09-11.38,2.47-16.98,4.14
					c-5.04,1.49-10.03,3.22-14.94,5.18h-0.01c-6.94,2.76-13.75,5.97-20.4,9.64c-2.07,1.14-4.12,2.32-6.13,3.54
					c-5.61,3.38-10.98,7.04-16.12,10.96c-4.15,3.16-8.15,6.5-11.97,10c-2.33,2.11-4.59,4.29-6.78,6.53
					c-20.35,20.68-35.35,46.21-43.64,74.86c-6.58,22.73-8.53,46.06-5.97,68.89c0.26,2.38,0.57,4.75,0.94,7.12
					c0.1,0.66,0.2,1.33,0.31,1.99c3.25,19.63,9.86,38.78,19.75,56.72c14.94,27.09,36.19,49.32,61.82,65.14
					c1.7,1.05,3.42,2.07,5.16,3.06c12.12,6.93,25.16,12.46,38.91,16.44c1.76,0.51,3.53,0.99,5.3,1.44
					c20.92-0.86,41.11-2.8,60.57-5.79c-20.88,2.11-42.17,0.21-62.93-5.8c-6.13-1.77-12.1-3.87-17.91-6.29
					c-2.34-0.97-4.65-1.99-6.93-3.06c-31.56-14.82-57.58-39.12-74.74-70.24c-9.12-16.55-15.27-34.18-18.38-52.27
					c-0.06-0.33-0.11-0.66-0.16-0.99c-0.45-2.69-0.83-5.4-1.14-8.11c-2.5-21.64-0.68-43.77,5.55-65.32
					c7.14-24.69,19.6-46.92,36.35-65.43c2.36-2.6,4.8-5.13,7.32-7.58c1.43-1.39,2.89-2.76,4.37-4.1c5.21-4.7,10.73-9.09,16.55-13.14
					c4.8-3.35,9.81-6.46,15-9.32c3.4-1.87,6.84-3.62,10.32-5.24c6.51-3.04,13.17-5.63,19.93-7.78c5.6-1.78,11.27-3.25,16.98-4.42
					c9.13-1.87,18.39-2.95,27.7-3.25c17.26-0.55,34.69,1.62,51.75,6.56c8.43,2.44,16.58,5.49,24.39,9.13
					c0.04,0.02,0.08,0.04,0.13,0.06c8.63,4.03,16.86,8.77,24.6,14.17c1.26,0.88,2.51,1.78,3.75,2.69c7.66,5.67,14.82,12,21.41,18.93
					c0.27,0.28,0.54,0.56,0.8,0.84c2.89,3.08,5.66,6.27,8.32,9.58c1.04,1.29,2.05,2.6,3.06,3.93c1.89,2.5,3.71,5.06,5.46,7.68
					c1.29,1.92,2.55,3.87,3.75,5.86c1.36,2.2,2.66,4.44,3.91,6.71c0.37,0.67,0.74,1.35,1.1,2.03c0,0,0,0,0,0.01
					c0.01,0.01,0.02,0.03,0.03,0.05c1,1.86,1.95,3.74,2.87,5.64c4.88,10.02,8.7,20.4,11.45,31c3.06,11.72,4.8,23.72,5.21,35.79
					c0.01,0.3,0.02,0.61,0.03,0.91c0.35,11.83-0.59,23.72-2.81,35.53c-0.02,0.08-0.03,0.17-0.05,0.26
					c-0.94,4.97-2.12,9.92-3.52,14.84c-0.06,0.21-0.12,0.42-0.18,0.63c-2.08,7.19-4.61,14.16-7.56,20.9
					c-0.01,0.02-0.02,0.04-0.03,0.06c-5.25,11.98-11.85,23.21-19.66,33.5c-0.64,0.84-1.29,1.68-1.95,2.51
					c-0.16,0.21-0.33,0.42-0.5,0.63c-0.2,0.26-0.4,0.51-0.61,0.77c-2.18,2.69-4.44,5.32-6.8,7.87c-1.21,1.35-2.47,2.67-3.75,3.98
					c-8.37,8.53-17.7,16.19-27.89,22.83c-0.64,0.43-1.29,0.85-1.94,1.24c-2.9,1.85-5.87,3.61-8.9,5.28c-3.08,1.7-6.2,3.3-9.36,4.79
					c-1.02,0.49-2.05,0.96-3.09,1.42c-8.56,3.85-17.36,6.94-26.31,9.26c10.71-2.2,21.18-4.74,31.42-7.62
					c2.66-0.74,5.31-1.5,7.94-2.3c7.43-2.23,14.74-4.63,21.91-7.22c1.65-1.18,3.28-2.38,4.89-3.61c3.92-2.99,7.7-6.13,11.33-9.42
					c1.27-1.15,2.52-2.31,3.75-3.5c2.33-2.23,4.6-4.53,6.8-6.88c1.02-1.1,2.03-2.21,3.02-3.33c3.84-4.34,7.47-8.86,10.86-13.56
					c7.46-10.31,13.8-21.46,18.91-33.3c0.48-1.1,0.95-2.22,1.41-3.34c0.01-0.02,0.01-0.04,0.02-0.06
					c2.38-5.83,4.46-11.83,6.24-17.96c0.72-2.5,1.39-5.01,1.99-7.52c0.88-3.62,1.65-7.25,2.3-10.89c0.02-0.09,0.03-0.18,0.05-0.26
					c0.32-1.81,0.61-3.63,0.87-5.44c0.57-3.9,1.01-7.81,1.31-11.72C1018.21,667.14,1018.37,661.01,1018.2,654.9z"/>
				<g>
					<path class="st3" d="M930.56,690.69c-0.01-0.09-0.02-0.17-0.04-0.26c-0.64-4.45-1.9-9-3.79-13.63c-0.38-0.96-0.79-1.89-1.2-2.8
						c-2.81-6.17-6.23-11.3-10.27-15.38c-0.5-0.5-1-0.99-1.52-1.46c-0.73-0.66-1.47-1.3-2.23-1.92c-0.14-0.11-0.28-0.23-0.42-0.34
						c-0.39-0.31-0.78-0.61-1.18-0.91c-4.4-3.3-9.31-5.89-14.73-7.75c-7.05-2.43-14.92-3.91-23.59-4.43
						c-8.67-0.54-18.12-0.66-28.32-0.37c-6.31,0.19-11.7,0.08-16.17-0.33c-4.48-0.41-8.28-1.24-11.39-2.49
						c-3.12-1.25-5.65-2.97-7.6-5.15c-0.07-0.08-0.15-0.17-0.21-0.25c-0.21-0.24-0.42-0.49-0.61-0.74c-0.7-0.86-1.34-1.78-1.93-2.77
						c-0.77-1.29-1.46-2.69-2.08-4.21c-1.28-3.13-2-6.25-2.19-9.34c-0.2-3.08,0.27-6.01,1.38-8.79c1.09-2.71,2.83-5.22,5.26-7.52
						c0.05-0.06,0.1-0.11,0.16-0.16l0.01-0.01c2.5-2.35,5.8-4.35,9.9-6.02c5.78-2.35,11.27-2.86,16.46-1.55
						c1.62,0.4,3.21,0.99,4.78,1.75c6.57,3.22,11.92,9.91,16.05,20.09l39.61-16.08c-2.49-6.12-5.44-11.56-8.84-16.31
						c-0.02-0.02-0.03-0.04-0.04-0.06c-1.3-1.81-2.66-3.52-4.09-5.12c-5.19-5.85-11.04-10.37-17.55-13.56
						c-6.51-3.19-13.6-5.05-21.27-5.6c-7.66-0.54-15.64,0.27-23.9,2.45l-2.91-7.17l-3.1-7.63l-5.1-12.56l-0.11-0.27l-21.92,8.91
						l5.05,12.43l6.01,14.8c-0.91,0.47-1.8,0.95-2.67,1.45c-1.14,0.63-2.25,1.28-3.34,1.95c-5.36,3.27-10.06,6.91-14.12,10.93
						c-5.5,5.45-9.73,11.34-12.68,17.68c-2.97,6.35-4.52,13-4.67,19.98c-0.14,6.98,1.25,14.08,4.18,21.28
						c3.38,8.32,7.73,14.91,13.05,19.76c4.03,3.68,8.55,6.64,13.55,8.9c1.61,0.73,3.28,1.38,4.99,1.96
						c3.44,1.17,7.1,2.11,10.95,2.82c0.57,0.11,1.15,0.21,1.73,0.3c3.48,0.58,7.12,0.96,10.92,1.16c8.7,0.47,18.17,0.46,28.39-0.03
						c5.93-0.34,11.08-0.31,15.45,0.1c4.37,0.4,8.14,1.24,11.32,2.52c3.18,1.28,5.82,3.07,7.93,5.38c1.55,1.69,2.93,3.73,4.12,6.11
						c0.04,0.09,0.08,0.17,0.13,0.26c0.38,0.77,0.74,1.58,1.08,2.43c1.28,3.15,1.91,6.27,1.89,9.39c0,0.59-0.03,1.17-0.09,1.75
						c-0.21,2.49-0.88,4.89-2.02,7.19c-1.4,2.84-3.5,5.48-6.29,7.9c-2.8,2.42-6.34,4.49-10.64,6.24c-1.38,0.56-2.78,1.05-4.2,1.47
						c-0.07,0.02-0.14,0.04-0.2,0.06c-2.36,0.69-4.76,1.18-7.22,1.49c-4.01,0.48-7.91,0.09-11.73-1.18c-0.29-0.1-0.58-0.2-0.87-0.31
						c-0.06-0.02-0.11-0.04-0.16-0.06c-3.43-1.33-6.65-3.5-9.67-6.55c-3.33-3.33-6.22-8.02-8.67-14.05l-36.18,14.7h-0.02l-3.39,1.38
						c4.13,10.18,9.32,18.26,15.57,24.21c3.73,3.57,7.68,6.53,11.84,8.88c2.8,1.58,5.69,2.89,8.68,3.92
						c7.43,2.57,15.2,3.7,23.31,3.36c8.11-0.33,16.12-1.64,24.01-3.97l1.96,4.82l8.27,20.39l21.79-8.85l-4.69-11.54l-5.6-13.78
						c7.92-4.11,14.69-8.84,20.34-14.2c2.92-2.76,5.48-5.65,7.69-8.66c0.02-0.02,0.03-0.04,0.04-0.06c1.73-2.36,3.24-4.79,4.54-7.3
						c0.24-0.46,0.47-0.92,0.69-1.4c1.72-3.6,2.98-7.32,3.77-11.17c0.6-2.83,0.93-5.73,1.01-8.7
						C931.07,695.92,930.92,693.32,930.56,690.69z"/>
				</g>
			</g>
		</g>
	</g>
	<path class="st7" d="M367.14,604.01c0-7.99,6.48-14.47,14.47-14.47c7.99,0,14.47,6.48,14.47,14.47c0,7.99-6.48,14.47-14.47,14.47
		C373.62,618.48,367.14,612,367.14,604.01z"/>
</g>
</svg>
