<?xml version="1.0" encoding="utf-8"?>
<!-- Generator: Adobe Illustrator 23.0.1, SVG Export Plug-In . SVG Version: 6.00 Build 0)  -->
<svg version="1.1" xmlns="http://www.w3.org/2000/svg" xmlns:xlink="http://www.w3.org/1999/xlink" x="0px" y="0px"
	 viewBox="0 0 3866.07 1610.14" style="enable-background:new 0 0 3866.07 1610.14;" xml:space="preserve">
<style type="text/css">
	.st0{fill:#CBEFEF;}
	.st1{fill:#E0F5F5;}
	.st2{fill:#FF5B7E;}
	.st3{fill:#4F2305;}
	.st4{fill:#632D07;}
	.st5{fill:#C1275F;}
	.st6{fill:#502406;}
	.st7{fill:#08095B;}
	.st8{fill:#02CCC0;}
	.st9{fill:#FEB546;}
	.st10{fill:#F4A640;}
	.st11{fill:#E03268;}
	.st12{fill:#F5FCFC;}
	.st13{fill:#07085B;}
	.st14{fill:#FFC0BB;}
	.st15{fill:#FFFFFF;}
	.st16{fill:#FEFEFE;}
	.st17{fill:#FFC0BA;}
	.st18{fill:#F99994;}
	.st19{fill:#FFFDFD;}
	.st20{fill:#F8F0F4;}
	.st21{fill:#FAF3F6;}
	.st22{fill:#FAF2F6;}
	.st23{fill:#F46C0F;}
	.st24{fill:#03A9A0;}
	.st25{fill:#532D11;}
	.st26{fill:#071260;}
	.st27{fill:#EB8A42;}
	.st28{fill:#E7924F;}
	.st29{fill:#DBC6A9;}
	.st30{fill:#647966;}
	.st31{fill:#E39758;}
	.st32{fill:#E0BF9D;}
	.st33{fill:#E2A069;}
	.st34{fill:#54533B;}
	.st35{fill:#E78C45;}
	.st36{fill:#4F8572;}
	.st37{fill:#DAA876;}
	.st38{fill:#F7B5B1;}
	.st39{fill:#FAF7F9;}
	.st40{fill:#F9F3F6;}
	.st41{fill:#F9F2F6;}
	.st42{fill:#FDB546;}
	.st43{fill:#B8DDD7;}
	.st44{fill:#F0A8A3;}
	.st45{fill:#00ABA1;}
	.st46{fill:#05CCC0;}
	.st47{fill:#FAB059;}
	.st48{fill:#CBEEEF;}
	.st49{fill:#FFC9D4;}
	.st50{fill:#FFE2E8;}
	.st51{fill:#FFB8C8;}
	.st52{fill:#EC8DA5;}
	.st53{fill:#FF9FB3;}
	.st54{fill:#FFB0C1;}
	.st55{fill:#FFB8C7;}
	.st56{fill:#FFBFCC;}
	.st57{fill:#FFBFCD;}
	.st58{fill:#FFBCCA;}
	.st59{fill:#FF86A0;}
	.st60{fill:#FFC0CE;}
	.st61{fill:#FFBECC;}
	.st62{fill:#FFBAC8;}
	.st63{fill:#FFB7C7;}
	.st64{fill:#FFB4C4;}
	.st65{fill:#FFBBCA;}
	.st66{fill:#FFC1CF;}
	.st67{fill:#FFBBC9;}
	.st68{fill:#FFAFC0;}
	.st69{fill:#FFC6D3;}
	.st70{fill:#FFC6D2;}
	.st71{fill:#FFA0B5;}
	.st72{fill:#FF9AB0;}
	.st73{fill:#FFADBE;}
	.st74{fill:#463F3E;}
	.st75{fill:#896967;}
	.st76{fill:#AC8A88;}
	.st77{fill:#BC9995;}
	.st78{fill:#07095B;}
	.st79{fill:#01A79E;}
	.st80{fill:#0C1360;}
	.st81{fill:#BDF1EF;}
	.st82{fill:#3CD8CE;}
	.st83{fill:#98ECE8;}
	.st84{fill:#AFECE8;}
	.st85{fill:#40477B;}
	.st86{fill:#81E9E4;}
	.st87{fill:#3D3070;}
	.st88{fill:#454178;}
	.st89{fill:#795E88;}
	.st90{fill:#FBA39E;}
	.st91{fill:#4F4645;}
	.st92{fill:#F67725;}
	.st93{fill:#F6792A;}
	.st94{fill:#4C4444;}
	.st95{fill:#F7833D;}
</style>
<g id="Background">
</g>
<g id="Objects">
	<g>
		<path class="st0" d="M384.39,758.77c4.26-17.73,8.77-35.41,12.71-53.21c6.66-30.08,12.91-60.25,19.43-90.36
			c8.16-37.66,17.38-75.04,30.61-111.29c6.53-17.87,16.09-34.33,25.35-50.87c11.53-20.6,23.75-40.81,37.27-60.16
			c15.97-22.85,32.74-45.07,51.23-66.06c13.69-15.54,28.23-30.15,43.15-44.35c17.3-16.47,36.01-31.42,55.55-45.23
			c25.29-17.87,51.68-33.99,79.49-47.56c21.79-10.64,44.22-19.86,67.14-28.02c47.02-16.73,95.35-28.67,143.77-40.16
			c38.66-9.18,77.72-16.76,116.76-24.24c34.78-6.66,69.68-12.87,104.71-18.02c29.14-4.28,58.21-9.04,87.45-12.74
			c25.27-3.2,50.5-6.82,75.78-9.98c22.01-2.75,44.03-5.29,66.04-7.99c18.08-2.21,36.18-4.02,54.3-5.82
			c16.13-1.61,32.16-4.42,48.32-5.41c9.95-0.61,19.82-1.9,29.72-2.75c11.19-0.95,22.47-1.1,33.6-3.27
			c7.78-1.51,15.9-1.45,23.75-1.88c12.26-0.67,24.5-2.06,36.71-2.97c12.51-0.93,25.22-0.4,37.58-3.25c0.96-0.22,1.99-0.33,2.98-0.26
			c15.01,0.99,29.94-1.3,44.72-2.66c14.52-1.33,29.3,0.51,43.6-3.26c0.63-0.17,1.33-0.13,1.99-0.09
			c19.66,1.15,39.27-1.18,58.73-2.69c18.53-1.44,37.27,0.82,55.6-3.22c0.96-0.21,1.99-0.12,2.99-0.1
			c32.62,0.7,65.22-1.38,97.75-2.68c35.29-1.4,70.61,0.52,105.78-1.73c47.61-3.04,95.23-2.04,142.78-1.12
			c37.26,0.72,74.58,0.03,111.76,1.95c19.96,1.03,39.97-0.07,59.77,1.87c16.3,1.59,32.58,0.67,48.79,1.84
			c25.5,1.83,51.02,2.85,76.54,4.12c20.85,1.04,41.69,2.7,62.54,3.99c18.18,1.13,36.31,3.26,54.55,3.8c4.31,0.13,8.32,2.5,12.76,1.9
			c-1.59,6.63-7.73,6.63-12.48,8.01c-40.99,11.95-82.62,21.22-124.61,28.92c-50.19,9.2-100.79,15.4-151.61,19.45
			c-16.54,1.32-33.2,2.16-49.85,2.8c-93.27,3.56-186.61-0.35-279.85,2.24c-82.05,2.28-163.62,10.54-242.18,36.96
			c-10.42,3.5-20.88,7.01-30.78,11.82c-22.72,11.02-29.37,24.67-24.46,49.52c2.14,10.85,5.49,21.33,10.73,31.09
			c9.71,18.08,22.13,33.96,38.03,47.14c5.82,4.83,11.65,6.67,19.24,5.74c44.32-5.48,88.51-11.87,132.79-17.6
			c17.18-2.23,20.29-0.34,25.12,16.17c5.99,20.47,13.37,40.51,19.17,61.04c2.17,7.68,6.58,10.95,14.79,12.1
			c54.06,7.58,108.45,6.83,162.66,5.09c53.85-1.73,107.61-6.66,161.37-10.87c29.17-2.28,58.47-3.49,87.72-4.98
			c60.97-3.11,121.94-1.74,182.88-1.23c39.54,0.33,79.14,2.53,118.68,5c27.23,1.7,54.51,2.88,81.74,4.71
			c34.53,2.32,69.07,4.53,103.59,7.11c22.9,1.71,45.81,3.47,68.74,4.63c10.67,0.54,21.24,1.61,31.77,3.06
			c5.44,2.23,2.78,4.81,0.15,7.14c-3.47,3.08-7.73,5.03-11.46,7.78c-14.84,10.95-26.55,24.61-35.96,40.39
			c-2.34,3.93-4.38,8.22-8.84,10.4c-10.22,3.06-18.39,1-27.45-5.82c-35.3-26.6-97.51-26.39-130.65,2.39
			c-13.54,11.75-25.19,15.54-41.62,11.11c-8.05-2.17-16.46,0.68-24.43,3.19c-4.18,0.95-6.83-2-9.78-4
			c-10.74-7.29-21.64-14.35-32.39-21.62c-4.48-3.02-7.88-3.92-11.44,1.76c-31.48,50.26-68.64,96.52-102.4,145.18
			c-15.92,22.94-32.62,45.44-44.6,70.9c-5.19,11.03-8.18,22.39-7.85,34.69c0.54,20.31,10.62,34.94,30.23,41.06
			c20.61,6.43,42.01,10.25,61.8,19.42c25.83,11.97,48.77,27.36,63.81,52.33c2.34,3.88,6.97,7.86,2.57,13.29
			c-14.64,5.64-30.2,3.52-45.29,5.08c-51.86,5.33-103.93,9.06-155.19,19.03c-22.25,4.33-44.03,10.69-61.78,26.06
			c-8.2,7.1-14.5,15.51-17.06,26.29c-5.97,15.59-15.36,29.46-22.52,44.52c-29.08,61.18-51.95,124.88-77.41,187.52
			c-3.51,8.64-6.96,17.33-10.91,25.77c-3.12,6.67-1.56,10.06,5.08,13.15c32.08,14.91,65.38,26.68,98.54,38.8
			c31.94,11.68,63.36,24.54,93.05,41.26c6.98,3.93,13.37,8.81,18.79,14.78c13.32,14.68,15.81,31.39,6.74,48.88
			c-6.02,11.61-14.48,21.24-24.11,30.26c-37.31,34.95-59.34,76.62-54.03,129.46c3.87,38.55,44.03,79.96,85.95,88.99
			c15.33,3.3,30.53,3.46,45.21-2.52c53.2-21.66,87.1-59.86,99.18-116.57c2.01-9.43,3.01-19.06,6.48-28.2
			c10.17-26.74,28.72-36.06,56.26-28.54c21.58,5.89,40.36,17.26,58.79,29.27c45.23,29.46,88.29,62.1,133.47,91.66
			c15.06,9.85,30.1,19.71,45.86,28.43c10.06,5.57,11.52,5.37,16.39-5.45c14.63-32.53,26.74-66.09,39.82-99.25
			c19.2-48.69,39.25-96.98,63.62-143.36c13.32-25.35,26.28-28.85,50.95-13.89c18.31,11.11,34.54,24.9,50.25,39.38
			c19.17,17.67,40.7,31.1,66.82,36.05c7.63,1.45,15.28,0.82,22.92,1.13c4.22,0.17,8.79-0.84,12.2,2.89
			c1.83,4.01,0.31,7.87-0.64,11.69c-16.53,66.8-33.87,133.38-52.8,199.55c-1,3.5-1.7,7.14-4.07,10.09
			c-6.52,4.82-14.05,2.26-21.15,2.76c-6.26,0.44-12.59-0.38-18.84,0.59c-2.25,0.35-5.11,0.6-5.68,3.22
			c-0.59,2.69,2.11,3.86,3.95,5.13c12.57,8.62,25.94,15.95,38.94,23.89c18.28,11.16,18.34,11.08,28.62-7.57
			c1.6-2.9,3.07-5.87,4.91-8.64c12.97-24.4,24.66-49.46,36.35-74.46c12.69-27.15,26.18-53.89,39.19-80.87
			c19.95-41.37,39.8-82.81,60.33-123.92c6.71-13.43,15.19-24.99,26.36-34.65c20.13-17.41,39.89-35.27,61.04-51.48
			c3.15-2.41,6.05-5.39,10.59-4.72c25.02,3.49,50.4,0.86,75.39,4.55c7.74,1.66,8.47,8.75,10.67,14.4
			c10.25,26.36,20.74,52.57,32.57,78.3c18.84,40.98,45.51,76.43,74.45,110.53c35.71,42.08,71.75,83.91,106.48,126.82
			c3.04,3.76,7.15,7.17,7.02,12.79c-15.31,20.88-36.45,34.45-58.75,46.44c-20.85,11.21-43.23,18.61-65.85,25.19
			c-6.69,1.95-13.19,4.31-19.78,6.58c-5.65,0.95-11.33,0.69-16.99,0.69c-894.17,0.01-1788.34,0.01-2682.51-0.01
			c-5.65,0-11.34,0.39-16.92-0.79c-8.49-2.79-1.72-9.38-3.43-13.86c7.07-22.83-2.35-29.34-17.25-41.52c-2.81-2.3-6.31-3.6-9.04-6.05
			c-2.1-7.57-8.78-5.16-13.82-6.33c-0.71-0.61-1.14-1.37-1.36-2.27c-1.31-8.77-8.98-3.33-13.07-5.84c-0.67-0.62-1.21-1.34-1.63-2.15
			c-1.65-6.87-8.23-5.31-12.69-7.4c-4.2-4.04-11.24-3.8-14.32-9.52c0.8-8.43,6.01-11.76,13.87-12.03
			c11.45,3.47,17.99-2.06,24.38-11.2c46.6-66.71,95.29-131.96,139.23-200.52c4.21-6.56,6.15-15,14.14-18.8
			c15.45-4.14,30.99-7.94,46.17-13.01c2.84-0.95,5.85-1.34,8.8-1.84c34.42-5.84,55.93,10.23,61.49,44.59
			c3.26,20.14,0.03,39.93-1.39,59.74c-3.46,48.21-14.1,95.56-18.34,143.71c-0.32,3.65-0.66,7.3-0.7,10.96
			c-0.22,18.08-0.01,18.45,17.75,19.77c43.55,3.24,86.59,10.69,129.98,15.27c47.02,4.95,94.01,10.38,141.43,8.97
			c15.28-0.45,21.01-5.04,24.02-19.88c1.41-6.94,1.32-13.91,0.36-20.89c-2.36-17.18-5.04-34.29-9.57-51.06
			c-6.44-23.81-8.66-48.24-4.18-72.3c8.15-43.82,36.34-71.79,76.56-87.88c71.4-28.57,146.51,22.59,154.13,93.14
			c3.3,30.58-1.67,59.69-9.21,88.84c-1,3.87-2.33,7.65-2.86,11.64c-4.02,30.1,9.23,49.24,38.74,56.85
			c25.19,6.49,50.35,2.97,75.5,0.5c61.68-6.06,122.89-15.95,184.51-22.49c7.61-0.81,15.26-1.56,22.88-1.98
			c8.49-0.47,10.65-4.55,10.3-12.18c-0.8-17.32-2.71-34.54-4.98-51.68c-5.07-38.3-11.98-76.4-14.39-114.98
			c-1.18-18.81-4.05-37.61-0.62-56.73c5.15-28.75,22.58-43.87,51.84-42.83c10.79,0.39,20.96,3.52,31.14,6.78
			c32.91,10.52,66.06,14.65,100.33,6c94.77-23.91,106.56-127.96,52.79-185.62c-19.39-20.8-43.18-31.1-71.34-33.79
			c-24.95-2.38-49.1,1.78-73.38,5.74c-10.85,1.77-21.6,4.1-32.49,5.65c-32.89,4.69-52.1-10.5-56.97-43.38
			c-3.47-23.43-1.03-46.55,0.87-69.73c4.63-56.43,13.27-112.44,17.56-168.92c1.09-14.33,1.52-28.59,1.51-42.9
			c-0.01-11.15-0.99-12.26-11.89-12.11c-22.7,0.31-45.09,4.02-67.55,6.78c-50.58,6.23-100.98,13.98-151.74,18.54
			c-17.11,1.53-34.42,3.54-51.76,0.57c-9.93-1.7-19.68-3.84-28.68-8.31c-24.12-11.98-33.96-35.37-26.26-64.37
			c4.89-18.4,9.39-36.81,11.11-55.79c5.5-60.77-20.16-110.07-78.38-128.08c-64.64-20-137.53,30.48-143.29,97.55
			c-1.99,23.11,2.56,45.05,7.66,67.1c3.46,14.95,6.23,30.01,7.99,45.25c0.19,1.66,0.36,3.31,0.45,4.98
			c1.6,30.42-8.92,41.99-39.37,41.63c-53.35-0.62-106.32-6.36-159.21-12.84c-34.39-4.21-68.74-8.69-103.16-12.71
			c-0.37-0.04-0.71-0.07-1-0.1c-18.33-1.59-18.51-0.82-19.33,17.64c-0.69,15.38,3.39,30.49,1.63,45.84
			c-3.67,9.96-13.82,12.85-21.02,18.92c-6.24,5.25-12.36,11.38-21.55,11.34c-28.5-1.21-56.94-3.11-85.39-4.97
			c-22.83-1.49-45.67-2.91-68.47-4.83c-6-0.51-11.95-0.83-17.03-4.55c-4.51-4.74-5.7-11.09-7.99-16.9
			c-13.46-34.22-26.55-68.6-42.71-101.68c-2.56-5.8-5.63-11.35-8.37-17.08c-4.68-10.4,4.13-16.35,7.89-23.98
			c1.83-2.89,3.17-6.2,6.5-7.85c4.77-1.26,8.15,1.98,11.97,3.75c16.06,7.46,22.11,6.47,34.44-5.85c4.91-4.92,10.15-9.54,14.01-15.42
			c3.87-4.49,7.22-9.35,10.3-14.41c4.44-6.96,9.46-12.51,19-11.67c6.62,0.58,6.69-4.57,5.19-8.88c-7.38-21.2-1.48-42.62-1.47-63.93
			c0-1.33,0.54-2.58,1.1-3.77c2.96-3.73,6.7-1.88,10.13-1.18c4.91,1.01,9.77,2.1,14.83,1.61c3.08-0.3,6.87-0.86,7.65-3.81
			c2.06-7.78,5.96-13.02,13.4-16.92c4.32-2.26,1.12-7.93-0.56-11.83c-2.9-6.76-10.76-12.69-1.51-20.87
			c2.63-2.33-1.54-5.92-3.77-8.26c-13.9-14.62-31.6-23.02-50-30.22c-3.72-1.46-7.7-2.25-11.19-4.24c-2.66-1.51-5.43-3.17-2.33-6.88
			c4.48-5.36-0.51-5.22-3.54-5.49c-12.74-1.12-25.24,0.46-37.56,3.79c-4.82,1.3-9.67,2.59-14.37,4.22
			c-7.68,2.66-14.3,2.77-19.11-5.08c-1.02-1.67-2.78-2.86-4.64-3.69c-1.92-0.86-4.02-1.29-5.5,0.5c-1.16,1.41-0.62,3.35,0.47,4.63
			c5.82,6.84,1.29,8.82-4.65,10.52c-4.24,1.21-8.73,2.18-4.82,8.67c1.56,2.59-2.19,4.39-4.29,5.86c-4.37,3.04-8.99,5.73-13.2,9
			c-4.17,3.24-7.1,6.93-5.43,12.79c1.53,5.33-1.98,9.58-3.64,14.2c-2.36,6.57-4.04,12.22-0.2,19.77c3.94,7.75,2.02,17.55,1.52,26.51
			c-9.66,6.02-15.08,13.8-14.06,26.1c0.81,9.79,4.85,16.58,13.58,19.94c9,3.46,12.56,9.99,13.43,18.85
			c-1.52,5.62-5.47,9.87-8.29,14.77c-6.96,17.69-21.04,15.82-35.5,12.95c-28.42-4.62-55,0.31-79.46,15.59
			c-21.03,13.14-35.64,31.61-45.21,54.43c-14.76,35.2-24.32,71.88-32.3,109.07c-11.82,55.07-20.53,110.69-29.85,166.21
			c-0.61,3.62-1.19,7.23-2.22,10.76c-1.07,3.49-2.67,6.71-4.94,9.58c-16.97,17.38-31.1,37.06-45.51,56.51
			c-2.28,3.08-3.71,7.29-8.54,7.58c-31.5-12.21-60.32-28.6-81.32-55.8c-19.34-25.06-17.18-50,4.94-72.72
			c9.57-9.84,20.89-17.58,31.37-26.32c7.96-6.63,15.5-13.65,21.31-22.33c9.19-13.74,8.95-27.62-0.07-41.16
			c-12.35-18.51-30.92-29-50.66-37.58c-22.48-9.76-46.44-14.21-70.44-18.34C388.27,766.5,382.53,766.49,384.39,758.77z"/>
		<path class="st1" d="M2994.79,354.95c-17.51-1.11-35.02-2.66-52.51-3.65c-13.9-0.79-27.81-1.99-41.7-2.8
			c-14.16-0.82-28.5-0.53-42.53-3.37c-0.97-0.2-2-0.33-2.98-0.25c-15.67,1.17-31.24-1.29-46.7-2.6
			c-13.49-1.14-27.27,0.46-40.56-3.18c-0.63-0.17-1.33-0.24-1.98-0.19c-15.66,1.15-31.13-1.99-46.74-2.13
			c-18.59-0.16-37.19-1.45-55.71-2.54c-13.94-0.82-27.88-0.57-41.78-1.46c-63.88-4.06-127.83-1.55-191.74-1.59
			c-17.52-0.01-35.2,0.77-52.73,1.95c-19.5,1.32-39.11,1.93-58.45,4.2c-11.85,1.39-23.8,0.32-35.62,3.04
			c-9.24,2.13-19.14,1.29-28.7,1.86c-13.23,0.79-26.55,1.71-39.67,3.01c-17.84,1.76-35.87-0.23-53.55,3.37
			c-2.25,0.46-4.65,0.19-6.98,0.19c-33.66,0.01-67.35,0.74-100.98-0.36c-13.11-0.43-26.39-1.24-39.56-3.04
			c-8.44-1.15-17.01-2.68-25.68-2.65c-7.67,0.03-8.76-0.79-11.31-8.52c-5.51-16.72-10.8-33.52-16.11-50.3
			c-2.4-7.59-4.5-15.29-6.99-22.85c-2.73-8.28-3.24-8.6-12.16-8.22c-6.61,0.28-13.16,1.55-19.71,2.35
			c-21.64,2.64-43.11,6.73-64.75,9.37c-20.34,2.48-40.7,4.84-60.95,8.02c-4.64,0.73-8.59-0.69-12.08-3.52
			c-22.59-18.33-40.19-40.42-50.17-68.01c-4.69-12.95-6.66-26.51-5.05-40.19c1.16-9.86,8.05-16.42,15.77-22.09
			c10.93-8.03,23.82-11.68,36.26-16.23c31.86-11.67,64.85-19.34,98.16-25.13c16.22-2.82,32.58-5.54,49.12-6.89
			c15.83-1.29,31.69-2.46,47.48-3.98c64.44-6.23,129-2.91,193.5-3.69c29.66-0.36,59.33,0.11,88.99-0.12
			c22.92-0.17,45.82-1.67,68.73-2.41c18.46-0.59,37.11-1.38,55.48-3.77c19.99-2.6,40.03-4.88,60.03-7.34
			c23.99-2.95,47.86-6.56,71.58-10.87c33.88-6.15,67.55-13.53,100.79-22.67c11.43-3.14,23.33-4.94,33.88-10.87
			c14.3-0.27,28.37,2.13,42.53,3.57c8.56,0.87,17.17,1.61,25.73,2.16c16.54,1.05,32.91,3.59,49.47,4.56
			c14.48,0.85,28.8,4.32,43.28,5.29c13.91,0.92,27.62,3.22,41.45,4.61c17.74,1.79,35.35,4.88,53.03,7.3
			c11.8,1.61,23.65,2.86,35.44,4.56c7.09,1.02,14.41,0.95,21.16,3.88c-15.56,11.05-32.76,18.94-50.33,26.1
			c-49.8,20.3-102.07,30.32-155.13,36.85c-79.65,9.81-159.68,6.1-239.55,5.51c-28.58-0.21-57.38,0.76-85.83-1.77
			c-36.05-3.21-71.89,0.16-107.77,0.83c-38.23,0.71-76.52,3.95-114.02,12.5c-17.3,3.95-34.13,9.2-46.9,22.82
			c-13.77,14.7-12.43,29,4.22,40.07c14.11,9.38,30.28,13.83,46.32,18.2c36.13,9.86,73.03,14.42,110.45,16.31
			c20.97,1.06,41.94,2.39,62.87,1.48c40.55-1.77,81.11-3.2,121.66-5.18c49.88-2.44,99.87-4.64,149.79-2.2
			c60.29,2.94,120.59,2.28,180.82,1c75.38-1.6,148.69-16.9,220.58-39.5c39.11-12.3,78.78-22.74,119.5-28.34
			c21.09-2.9,42.35-4.37,63.61-5.83c17.59-1.21,35.29-0.74,52.77-3.36c7.05-1.06,13.9,0.73,20.86,0.61
			c14.82,5.87,29.33,12.51,43.43,19.88c16.47,8.61,32.71,17.73,48.68,27.25c25.95,15.47,50.53,32.9,74.17,51.79
			c16.37,13.08,32.04,26.92,46.85,41.6c12.44,12.32,24.36,25.34,34.87,39.48c-8.77,7.09-19.67,5.58-29.66,6.67
			c-53.62,5.8-107.49,8.67-161.29,12.01c-30.87,1.92-61.8,3.41-92.72,4.9c-45.21,2.18-90.36,5.34-135.65,5.62
			c-14.38,0.09-28.53-2.47-42.85-2.66c-5.06-0.67-9.32-3.37-13.81-5.5c-25.83-12.27-52.26-14.06-79.4-4.72
			C3003.15,354.49,2999.33,357.51,2994.79,354.95z"/>
		<path class="st0" d="M3314.44,156.84c-1.13,0.62-2.3,1.85-3.38,1.77c-12.03-0.91-23.75,2.35-35.74,2.29
			c-18.9-0.09-37.67,2.28-56.5,3.5c-10.25,0.67-20.49,1.73-30.69,2.67c-13.79,1.27-27.49,3.93-41.1,6.61
			c-37.78,7.44-74.46,19.06-111.45,29.56c-34.08,9.67-68.26,18.98-103.5,23.84c-17.05,2.35-34.07,4.41-51.21,5.99
			c-24.47,2.26-48.91,3.86-73.49,3.79c-43.65-0.12-87.36,1.3-130.94-0.47c-35.27-1.43-70.51-2.05-105.72-1.18
			c-20.9,0.52-41.91,0.3-62.7,2.05c-13.97,1.18-27.98,0.09-41.74,1.82c-17.94,2.26-36,0.02-53.72,2.1
			c-21.97,2.57-43.89,1.79-65.76,1.3c-16.47-0.37-33.03-1.76-49.52-3.12c-17.2-1.42-34.2-3.6-51.16-6.53
			c-25.59-4.42-50.5-11.29-74.35-21.58c-5.71-2.46-11.23-6.1-15.79-10.32c-9.13-8.43-11.24-23.75-0.07-36.77
			c12.17-14.18,28.36-20.68,45.52-25.03c16.97-4.3,34.37-6.52,51.81-8.7c19.07-2.39,38.34-2.13,57.27-5.51
			c0.65-0.12,1.33-0.1,2-0.07c28.95,1.16,57.88-3.06,86.7-1.65c33.6,1.65,67.23,0,100.72,1.9c61.57,3.5,123.14,0.55,184.7,1.7
			c13.57-4.09,27.76-0.54,41.54-3.61c7.62-1.7,15.77-1.24,23.7-2.13c37.89-4.24,75.33-10.59,112.06-20.98
			c24.67-6.98,48.65-15.74,71.7-26.95c5.97-2.9,11.63-6.42,17.45-9.63c2.94-1.62,5.96-3,9.45-2.75c11.71-0.27,23,2.91,34.41,4.73
			c26.46,4.23,52.7,9.73,78.96,15.12c26.97,5.54,53.67,12.15,80.22,19.3c23.38,6.3,46.62,13.31,69.53,21.16
			C3254.42,131.62,3285.11,142.56,3314.44,156.84z"/>
		<path class="st0" d="M3098.56,360.8c25.88,0.81,51.76,3.56,77.64,1.84c17.9-1.19,35.86-0.86,53.66-2.31
			c11.27-0.92,22.74,0.22,33.69-1.82c16.14-3,32.58,0.55,48.5-3.55c0.63-0.16,1.33-0.14,1.99-0.09c18.3,1.35,36.47-1.55,54.66-2.48
			c14.12-0.72,28.5-0.09,42.49-3.27c1.6-0.36,3.33-0.38,4.97-0.25c16.32,1.35,32.53-1.27,48.65-2.53c19.06-1.49,38.2-2.9,57.25-5.04
			c13.44-1.51,26.89-3.3,40.38-4.45c23.34,28.24,43.01,58.87,58.85,91.88c17.44,36.33,29.46,74.52,37.04,114.07
			c7.61,39.69,6.57,79.85,5.93,119.96c-7.25-0.41-8.35-7.47-12.23-11.49c-2.49-2.58-4.53-5.63-6.45-8.71
			c-0.99-1.43-1.91-2.9-2.82-4.38c-1.31-2.21-3.05-4.06-4.96-5.78c-0.68-0.59-1.3-1.23-1.92-1.89c-0.66-0.66-1.25-1.37-1.83-2.1
			c-7.63-10.51-15.53-20.73-26.26-28.38c-14.19-10.11-30.02-13.38-47.12-11.57c-2.36-0.64-4.76-1.03-7.22-0.98
			c-4.03-0.07-8.08,0.2-12.08-0.55c-4.18-0.96-6.67-4.04-8.65-7.45c-5.59-9.59-12.27-18.49-17.78-28.14
			c-1.14-2.3-2.09-4.66-2.26-7.27c0.37-6.71,3.48-12.67,5.2-19.01c1.12-4.12,3.82-5.39,8.1-5.52c14.45-0.44,21.86-12.8,15.88-26.06
			c-1.08-2.39-2.83-4.47-3.31-7.15c-0.69-6.47,2.2-12.3,3.55-18.37c2.67-11.97,3.37-24.05,3.51-36.21c2.5-2.82,5.2-1.52,7.92-0.38
			c0.13,0.05,0.59-0.29,0.61-0.49c0.03-0.24-0.24-0.52-0.39-0.82c0.04-1.51,0.76-2.61,1.88-3.47c0.54-0.36,1.14-0.59,1.77-0.69
			c-0.74-0.39-1.24,0.41-1.93,0.35c-11.03,1.42-14.19-0.3-17.21-10.04c-1.78-5.74-3.64-11.41-6.36-16.8
			c-3.52-6.98-8.9-11.79-16.52-13.35c-7.07-1.44-12.98-4.89-18.91-8.68c-21.92-14.02-40.85-13.26-61.9,2.24
			c-8.96,6.6-10.57,6.2-16.64-4.06c-1.32-3.1-3.18-6.13-2.14-9.59c-1.01,3.24,0.48,6.25,1.71,9.29c5.17,10.45,4.54,11.53-7,12.11
			c-16.68,0.83-22.31,5.21-26.67,21.22c-1.23,4.53-2.61,8.61-6.16,12.14c-10.22,10.14-10.38,17.17-1.49,28.62
			c3.29,4.24,7.53,7.45,11.49,10.98c1.71,1.53,3.74,3.4,2.77,5.89c-1.2,3.05-4.31,2.93-6.88,2.42c-4.5-0.89-9.11-1.67-13.03-4.35
			c-1.67-0.49-3.05-1.54-4.5-2.42c-0.83,0.04-0.83-1.21-1.11-1.14c-0.64,0.14-0.44,0.59,0.48,0.77c1.62,1.14,3.13,2.45,5.12,2.93
			c4.31,3.36,10.36,2.66,14.55,6.27c0.64,1.26,0.7,2.54,0.2,3.85c-0.42,0.63-0.98,1.14-1.55,1.48c2.42,1.55,3.8-1.33,5.82-1.28
			c3.41-0.69,6.9-2.71,10.03,0.67c2.28,8.06,3.49,16.03-2.02,23.4c-11.98,11.48-10.18,19.17,6.37,27.03
			c3.51,2.95,4.45,7.32,6.18,11.23c9.91,22.38,26.02,35.59,51.5,35.16c3.64-0.06,7.35-0.25,10.74,1.57
			c3.45,2.73,4.19,6.97,5.96,10.64c1.75,5.25,5.06,10.19,3.32,16.16c-6.96,6.57-17.13,7.58-24.2,13.97
			c-7.64,2.53-12.87,7.74-16.48,14.78c-1.5,2.92-2.76,6.03-5.57,8.07c-15.42,6.75-31.67,10.58-48.29,11.98
			c-67.99,5.74-135.95,11.69-203.88,18.04c-9.23,0.86-18.79-0.24-27.02,5.41c-2.52,1.36-5.2,1.09-7.71,0.22
			c-17.2-5.95-34.99-10.02-52.03-16.5c-2.81-1.78-5.55-3.67-8.12-5.78c-18.79-15.42-22.28-32.17-11.71-54.02
			c5.3-10.95,12.97-20.1,20.64-29.31c14.94-17.93,28.84-36.46,39.91-57.2c28.54-53.47,10.99-106.14-31.5-140.89
			C3102.76,367.04,3098.16,365.92,3098.56,360.8z"/>
		<path class="st0" d="M70.61,1422.62c-3.04-2.78-6.27-2.46-8.77,0.36c-2.43,2.74-3.89,5.94-2.37,10.06
			c2.76,7.47,5.05,15.12,7.55,22.69c0.6,1.83,2.02,3.56,0.33,6.03c-6.49-4.02-9.4-11.1-13.24-16.88
			c-17.81-26.88-34.56-54.41-44.46-85.46c-4.57-14.32-6.68-29-7.15-43.95c-0.19-5.99-0.04-11.98-0.05-17.98
			c-0.02-30.37,5.41-59.96,13.31-89.13c7.4-27.34,18.05-53.43,31.15-78.56c17.86-34.25,41.16-64.3,69.86-90.02
			c14.37-12.87,30.85-23,47.47-32.71c14.05-8.21,28.5-15.72,42.81-23.48c2.32-1.26,4.62-2.72,7.41-2.75
			c16.15,3.82,29.24,12.4,39.25,25.57c3.94,5.19,5.48,11.3,5.42,17.85c-0.04,4.99,0.02,9.97,0.79,14.94
			c1.9,12.23,8.32,20.48,19.92,25.32c17.3,7.22,35.65,7.76,53.82,9.58c20.25,2.02,40.81,3.39,58.79,13.95
			c21.11,12.4,36.08,30.52,43.25,54.08c3.93,12.92,0.71,24.94-8.83,35.09c-9.37,9.96-20.65,16.63-33.45,21.08
			c-21.73,7.57-44.12,12.79-66.32,18.7c-17.41,4.63-34.43,10.24-49.42,20.85c-10.18,7.21-17.76,16.38-21.29,28.17
			c-4.31,14.4-6.65,29.33-4.46,44.36c1.28,8.81,1.04,17.21-1.38,25.65c-3.56,7.11-10.86,9.41-17.09,12.94
			c-24.54,13.92-49.24,27.54-73.63,41.73c-4.45,2.59-8.46,5.34-9.13,10.98c-2,6.29-6.63,9.39-12.82,10.64
			c-20.29-1.79-39.21,5.41-58.69,8.92C76.34,1421.75,73.76,1423.94,70.61,1422.62z"/>
		<path class="st1" d="M248.57,1337.08c-0.41-7.31,3.73-14.43,1.51-21.68c-1.92-6.25-2.27-12.61-1.42-18.76
			c1.57-11.41,1.38-23.08,5.82-34.11c7.66-19.02,22.77-29.69,40.54-37.58c16.77-7.44,34.63-11.39,52.28-16
			c16.05-4.19,32.09-8.39,47.74-13.98c13.19-4.71,24.42-12.27,33.13-23.1c6.91-8.59,7.99-18.85,5.1-29.3
			c-3.06-11.03-8.85-20.78-15.98-29.63c-13.59-16.86-30.51-28.61-52.32-31.99c-12.08-1.87-24.21-3.35-36.41-4.51
			c-17-1.61-34.22-2.61-50.5-9.57c-15.01-6.42-20.29-18.05-21.55-32.87c-0.14-1.65-0.21-3.35,0-4.99
			c2.07-15.68-6.57-25.58-17.98-34.26c-7.46-5.67-16.84-7.9-24.05-13.93c9.66-7.15,20.79-11.77,31.27-17.38
			c22.51-12.04,43.01-26.54,60.21-45.33c11.89-12.99,22.04-27.41,31.08-42.55c15.94-26.69,27.12-55.49,37.1-84.78
			c3.61-10.6,5.85-21.66,10.25-32.03c0.4,4.64,3.37,5.56,7.51,6.13c29.32,4.07,58.14,10.17,84.64,24.03
			c14.76,7.72,28.54,16.8,38.46,30.78c14.37,20.25,9.95,37.54-4.46,53.96c-10.57,12.05-23.79,21.1-36.11,31.15
			c-7.23,5.89-13.6,12.48-19.31,19.95c-14.43,18.9-9.53,42,2.31,58.17c12.87,17.58,30.37,29.25,48.34,40.71
			c10.42,6.65,22.32,10.14,32.62,16.85c1.95,3.83-1,6.35-2.74,8.89c-39.5,57.75-74.42,118.29-108.95,179.05
			c-5.96,10.49-13.84,18.4-24.05,24.61c-38.11,23.18-77.17,44.68-116.1,66.41c-9.3,5.19-18.59,10.39-27.92,15.51
			C255.54,1336.68,252.57,1339.47,248.57,1337.08z"/>
		<path class="st2" d="M3782.4,1530.8c-15.41-20.86-32.53-40.32-49.14-60.2c-27.49-32.91-55.16-65.67-82.87-98.39
			c-31.05-36.67-53.91-78.11-71.89-122.44c-7.98-19.66-15.91-39.34-23.86-59.01c-7.17-8.3-8.57-19.17-12.64-28.84
			c-3.45-8.2-6.22-16.72-9.39-25.06c-13.42-37.55-27.18-74.98-40.55-112.55c-2.07-5.83-6.88-11.72-2.69-18.65
			c3.42-1.53,6.68-1.43,9.75,0.86c2.65,5.19,6.94,6.79,12.7,7.71c18.74,2.97,37.65,0.31,56.36,2.41c6.22,1.96,9.25,7.28,12.64,12.19
			c11.51,16.71,22.03,34.09,34.12,50.41c2.78,3.75,5.8,7.27,9.09,10.59c13.88,13.98,22.14,15.67,40.26,8.3
			c3.53-1.44,7.05-4.37,11.09-1.03c2.97,9.28,3.42,18.86,3.84,28.52c1.6,36.54,4.63,72.97,8.57,109.34
			c1.84,16.95,8.08,32.1,16.18,46.81c34.2,62.11,68.2,124.34,102.4,186.45c2.61,4.74,4.46,9.61,5.75,14.77
			c7.81,16.89,17.76,32.62,26.41,49.06c2.92,5.55,6.77,10.65,8.35,16.86c-4.85,14.1-18.68,20.57-37.28,17.44
			C3799.53,1555.3,3789.18,1544.42,3782.4,1530.8z"/>
		<path class="st3" d="M3674.09,1096.65c-4.25,1.82-8.46,3.71-12.74,5.44c-13.72,5.54-25.86,3.42-36.42-7.3
			c-6.32-6.41-11.89-13.38-16.92-20.8c-10.43-15.36-20.74-30.8-31.16-46.17c-2.04-3.01-4.38-5.81-6.57-8.71
			c-2.55-2.34-5.32-4.54-5.04-8.55c0.57-3.6,3.1-5.75,5.86-7.63c21.84-14.94,43.33-30.39,65.07-45.47c2.43-1.68,4.84-3.52,7.98-3.74
			c5.83,4.56,10.65,3.2,16.55-1.02c21.78-15.59,43.66-31.04,65.88-46c4.68-3.15,6.97-6.79,5.95-12.37c0.37-4.5,3.67-6.77,6.92-9.1
			c17.41-12.52,35.16-24.56,52.68-36.94c3.49-2.47,7.04-6.6,12.32-3.44c17.8,23.59,35.42,47.31,51.19,72.33
			c3.72,5.9,6.71,12.19,8.88,18.88c3.52,10.85,0.99,20.26-6.24,28.73c-3.92,4.59-8.54,8.33-13.55,11.67
			c-40.11,26.73-79.15,54.96-118.08,83.36c-2.12,1.55-4.08,3.34-6.11,5.01C3707.21,1078.58,3691.77,1089.25,3674.09,1096.65z"/>
		<path class="st0" d="M3674.09,1096.65c15.48-10.61,30.96-21.21,46.44-31.82c-0.92,5.12,1.11,9.95,2.24,14.65
			c8.98,37.31,17.27,74.78,25.04,112.36c1.43,6.92,4.07,13.34,7.03,19.61c14.6,30.92,29.73,61.6,41.71,93.67
			c10.33,27.68,18.27,55.93,22.27,85.37c2.26,16.63,1.66,33.16,1.4,49.7c-0.18,11.55-3.51,22.86-6.62,34.01
			c-0.82,2.93-1.09,5.86-1.47,8.81c-10.46-16.21-19.04-33.47-28.32-50.33c-28.71-52.12-56.87-104.54-85.86-156.5
			c-7.85-14.06-11.6-28.87-13.27-44.45c-4.03-37.66-7.04-75.41-8.57-113.27C3675.81,1111.17,3674.78,1103.92,3674.09,1096.65z"/>
		<path class="st4" d="M3644.27,954.89c-23.93,16.64-47.84,33.31-71.81,49.89c-2.51,1.74-4.87,3.45-6.1,6.34
			c-6,3.11-10.99,1.19-15.28-3.28c-12.97-13.53-22.5-29.61-32.88-45.02c-4.17-6.19-1.84-12.82,2.59-18.51
			c5.47-6.06,12.5-10.2,18.78-15.27c33.43-24.61,68.83-46.35,102.76-70.25c12.21-8.6,24.54-17.04,36.62-25.82
			c20.5-14.27,41.45-27.93,60.54-44.13c5.13-1.55,8.95-5.19,13.08-8.32c1.53,0.49,2.99,1.33,4.71,0.5c7.9-3.8,13.51,0.11,17.83,6.06
			c9.29,12.8,18.05,25.98,27.28,38.82c4.38,6.09,1.89,12.59,2.05,18.96c-3.81,0.3-6.72,2.42-9.71,4.54
			c-18.55,13.1-37.09,26.2-55.78,39.1c-2.67,1.84-4.5,3.74-4.86,6.95c-7.55-6.42-13.55-4.08-21.08,1.51
			c-19.66,14.6-39.94,28.4-60.18,42.2C3646.87,943.21,3643.01,947.39,3644.27,954.89z"/>
		<path class="st5" d="M156.98,1538.86c-0.34,5.27-0.67,10.54-1.01,15.82c-1.09,3.46-2.15,6.93-3.28,10.38
			c-2.27,6.89-6.45,12.44-12.48,16.38c-9.88,6.46-18.9,3.38-22.67-7.86c-9.73-29.02-19.29-58.09-28.89-87.16
			c-5.64-17.06-11.18-34.15-16.88-51.19c-1.39-4.16-2.78-8.22-1.16-12.61c3.6-3.19,7.99-4.55,12.58-5.49
			c12.99-2.64,25.96-5.38,38.97-7.9c5.54-1.07,11.2-2.1,16.31,1.62c3.35,2.14,4.38,5.72,5.54,9.16
			c5.42,16.02,10.64,32.11,16.12,48.11c2.12,6.2,1.61,12.34,0.65,18.56c-0.53,1.34-0.37,3.11-2.2,3.67
			c-6.93-1.37-11.55-7.61-18.98-8.66c7.69,2.48,14.31,6.18,17.96,13.32c1.83,3.58,4.64,7.6,0.51,11.65l-0.76-0.15l-0.77,0.01
			c-6.41-0.8-10.7-6.41-17.35-7.38c6.91,2.36,12.98,5.57,16.67,11.85c2.2,3.75,4.07,7.71,0.67,11.86l-0.03,0.01
			c-0.77,0.63-1.64,0.81-2.61,0.55c-4.96-3.21-9.9-6.46-18.1-8.77c7.46,2.74,12.34,5.13,16.03,9.29
			C155.57,1528.18,159,1532.59,156.98,1538.86z"/>
		<path class="st6" d="M3752.57,780.5c-2.69,6.68-5.36,8.55-11.89,8.36c-5.47,0.47-6.82-4.43-9.25-7.51
			c-23.14-29.38-45.63-59.26-68.6-88.77c-1.32-2.02-2.91-3.84-4.36-5.76c-6.03-14.21-11.35-28.67-15.16-43.66
			c0.43-1.6,1.18-2.81,3.14-2.47c5.94,7.36,11.89,14.71,17.83,22.07c9.5,14.41,20.56,27.65,30.92,41.42
			c17.36,23.07,34.96,45.96,52.42,68.96C3749.4,775.49,3750.92,778.04,3752.57,780.5z"/>
		<path class="st7" d="M3809.18,1564.82c4.24-0.08,8.52,0.17,12.73-0.3c10.76-1.18,18.71-7.08,24.97-15.59
			c3.32,7.16,6.94,14.19,9.87,21.5c3.31,8.24,2.65,9.25-5.25,12.65c-16.96,7.3-33.92,14.61-50.88,21.92
			c-2.85-0.6-4.85,1.5-7.15,2.46c-3.3,1.38-6.22,1.28-9.16-0.64c-0.4-0.53-0.98-1.2-0.83-1.72
			C3788.13,1589.17,3796.69,1575.74,3809.18,1564.82z"/>
		<path class="st8" d="M1120.69,788.61c-0.98-19.62-3.1-39.2-2.31-58.9c0.37-9.16,0.29-9.2,9.74-9.06
			c17.36,0.27,34.49,2.99,51.67,4.99c30.74,3.58,61.44,7.46,92.15,11.32c35.03,4.41,70.21,7.21,105.45,9.11
			c14.26,0.77,28.62,1.98,42.86-0.72c11.32-2.15,15.73-6.77,18.41-18.01c3.34-14.04,1.17-27.94-1.28-41.65
			c-3.39-18.99-8.57-37.66-11.74-56.67c-5.76-34.46-1.77-67.45,20.72-95.62c24.16-30.26,56.14-47.4,95.04-47.55
			c53.67-0.21,103.1,40.75,109.44,98.26c3.28,29.76-0.72,58.41-8.65,86.83c-2.06,7.4-3.89,14.73-4.33,22.48
			c-1.49,26.16,14.66,40.31,30.38,46.99c15.62,6.64,32.23,8.4,48.97,7.5c55.24-2.97,109.85-11.69,164.65-18.62
			c26.74-3.38,53.45-7.24,80.42-8.53c3.33-0.16,6.68,0.04,9.99-0.22c4.87-0.38,6.33,2,6.36,6.52c0.09,14.67,0.36,29.35-0.96,43.97
			c-2.26,25.19-4.69,50.38-7.35,75.53c-2.76,26.15-6.06,52.24-8.76,78.39c-2.46,23.84-5.28,47.69-4.73,71.72
			c0.23,9.98,1.17,19.94,3.55,29.69c5.32,21.8,18.14,31.96,40.7,32.25c11.75,0.15,23.17-2.31,34.56-4.71
			c20.89-4.4,41.97-7.58,63.27-8.4c92.31-3.57,130.94,71.96,125.13,130.15c-5.09,51-37.35,82.09-83.08,95.08
			c-34.84,9.9-69.25,6.38-103.21-4.6c-10.79-3.49-21.54-6.81-32.99-7.48c-29.54-1.72-43.82,14.7-48.07,39.96
			c-1.87,11.15-2.14,22.39-0.96,33.83c1.87,18.2,1.96,36.57,4.47,54.74c3.1,22.41,6.11,44.84,9.13,67.26
			c3.33,24.74,6.83,49.48,7.41,74.49c0.18,7.76,0.06,7.68-7.33,8.14c-28.25,1.79-56.34,5.11-84.39,8.88
			c-28.69,3.85-57.42,7.49-86.16,10.94c-22.14,2.66-44.29,5.25-66.5,7.17c-18.62,1.61-37.34,1.93-55.53-3.59
			c-17.4-5.28-31.54-14.58-37.11-33.07c-3.14-10.43-2.78-21.14,0.2-31.56c5.42-18.92,9.84-38,11.56-57.66
			c2.16-24.62,0.23-48.83-10.33-71.36c-15.57-33.23-42.34-53.42-77.76-61.77c-55.05-12.98-127.69,26.47-138.28,93.99
			c-3.39,21.59-1.58,43.21,4.05,64.41c4.79,18.04,8.32,36.33,10.48,54.86c1,8.62,1.09,17.25-0.98,25.83
			c-3.05,12.64-8.41,17.82-21.21,18.57c-19.65,1.15-39.33,0.6-58.95-0.71c-19.26-1.28-38.49-3.1-57.69-5.1
			c-26.15-2.72-52.31-5.49-78.38-8.86c-31.69-4.1-63.35-8.33-95.21-10.92c-7.32-0.6-7.37-0.54-7.25-8.31
			c0.39-25.37,3.85-50.44,7.38-75.49c5.25-37.23,11.91-74.25,13.32-111.97c0.51-13.64,2.31-27.16,0.01-40.81
			c-1.06-6.3-2.54-12.38-5.18-18.17c-6.88-15.14-18.84-22.76-35.29-23.67c-12.17-0.67-23.82,1.78-35.29,5.59
			c-12.63,4.2-25.34,8.22-38.69,9.54c-2.13-5.57,1.81-9.56,3.92-13.84c11.49-23.34,22.67-46.67,28.25-72.41
			c3.96-18.22-0.5-33.85-12.02-47.51c-11.85-14.05-25.46-26.15-41.63-35.45c-20.77-11.95-40.18-26.22-61.73-36.92
			c-3.28-1.63-6.4-3.93-5.18-8.58c2.96-4.57,7.92-5.86,12.57-7.59c37.77-14.04,75.68-12.61,113.63-0.82
			c7.31,2.27,14.52,4.82,22.11,6.14c22.32,3.9,37.9-4.74,45.1-26.34c6.29-18.86,7.66-38.5,5.7-58.23
			c-1.38-13.9-1.81-27.87-3.55-41.74c-2.59-21.12-4.64-42.29-7.22-63.4c-0.53-4.36-0.64-8.67,2.54-12.25
			c8.84-4.73,18.83-2.52,28.18-4.48c5.79-1.22,11.81-1.5,18.52-3.25c-2.54-2.66-5.69-2.54-8.06-3.83c-2.35-1.28-5.17-2.45-4.83-5.62
			c0.32-3.07,3.22-4.04,5.75-4.77c4.47-1.29,9.06-2.08,14.03-3.28c-4.88-0.51-9.42,0.26-13.82-0.76c-2.29-0.54-4.72-1.26-4.7-4.25
			c0.02-2.36,1.99-3.29,3.85-4.05c5.27-2.13,11.03-2.37,18.5-4.93c-7.46-0.29-12.89,0.08-18.26-0.3c-3.39-0.25-8.69,0.9-9.01-3.72
			c-0.28-4.1,4.88-4.66,8.29-5.69c5.89-1.76,11.95-2.88,17.82-4.81c-12.78,2.29-25.79,1.95-38.61,3.65
			c-10.46,1.39-12.81-1.96-9.07-11.72c1.52-3.96,3.98-7.63,4.1-12.83c-4.73,0.56-7.55,4.02-11.13,5.95
			C1127.35,787.8,1124.84,791.61,1120.69,788.61z"/>
		<path class="st9" d="M3098.56,360.8c12.53,9.38,24.43,19.38,33.57,32.32c12.55,17.79,20.39,37.4,21.72,59.12
			c1.07,17.51-3.1,34.3-10.19,50.33c-8.95,20.23-21.4,38.25-35.24,55.37c-6.06,7.5-12.23,14.9-18.35,22.35
			c-5.31,6.46-9.6,13.55-13.16,21.1c-7.2,15.29-4.86,29.1,6.67,41.28c4.07,4.31,8.67,8.12,13.03,12.16
			c0.75,6.14,6.71,7.85,10.1,11.74c5.89,6.75,5.72,10.39-2.23,13.53c-10.78,4.26-21.87,7.75-30.3,12.46
			c4.66-1.42,11.43-3.17,18.4-3.7c2.25-0.17,5.08-0.07,5.72,2.77c0.5,2.24-1.71,3.42-3.36,4.41c-5.37,3.23-11.04,5.87-16.97,8.59
			c5.68-1.08,11.03-2.65,16.59-2.9c1.32-0.06,2.76,0.02,3.54,1.32c1.09,1.8-0.06,3.24-1.23,4.34c-3.61,3.42-8.23,5.36-12.44,8.08
			c4.42-1.43,8.77-2.69,13.17-3.75c2.6-0.63,5.57-1.11,7.13,1.76c1.66,3.07-1.03,4.85-2.84,6.69c-1.63,1.65-3.41,3.16-6.43,6.05
			c16.85-6.04,31.69-12.59,46.82-18.37c3.95-1.51,7.87-4.02,12.35-1.41c4.32,5.27,10.09,6.9,16.67,7.63
			c27.08,3.02,54.15,6.11,81.28,8.55c34.29,12.65,67.67,27.34,99.92,44.59c6.19,4.28,4.87,9.2,1.57,14.68
			c-14.28,23.7-30.55,46.03-46.75,68.4c-6.25,8.62-12.33,17.37-18.78,25.85c-24.35,33.43-49.09,66.6-70.79,101.87
			c-9.18,15.13-17.46,30.57-18.97,48.72c-2.12,25.48,8.64,42.12,33.36,49.46c18.12,5.38,36.7,9.03,54.25,16.51
			c25.21,10.74,47.48,25.12,63.73,47.71c25.46,40,25.62,87.64-0.47,124.15c-17.91,25.07-42.63,40.78-72.32,48.7
			c-2.84,0.76-5.83,1.79-8.63-0.32c-15.3,0.32-30.55,1.02-45.55-3.62c-21.46-6.64-39.87-18.19-56.27-33.23
			c-15.24-13.97-30.73-27.59-48.29-38.66c-6.52-4.11-13.39-7.29-20.92-9.19c-8.42-2.12-15.12,0.16-20.26,7
			c-3.6,4.79-6.88,9.77-9.69,15.11c-23.62,44.86-42.85,91.65-61.54,138.69c-13.27,33.4-25.25,67.34-40.09,100.09
			c-8.25,18.21-4.67,17.56-22.74,7.57c-36.78-20.35-70.62-45.26-105.15-69.08c-33.15-22.87-65.21-47.43-100.73-66.7
			c-14.67-7.96-29.94-14.51-47.25-14.28c-13.98,0.18-24.08,6.53-31.02,18.4c-6.54,11.18-8.24,23.77-10.72,36.16
			c-6.58,32.78-20.31,61.86-44.76,85.27c-16.59,15.89-35.99,27.47-57.17,35.94c-14.63,5.85-30.06,6.38-45.17,2.29
			c-41.24-11.15-71.39-35.58-85.25-76.71c-9.18-27.24-5.11-54.62,5.37-80.98c10.27-25.84,26.38-47.67,46.99-66.21
			c8.75-7.86,16.34-16.62,21.97-26.97c9.58-17.57,7.41-34.06-6.59-48.47c-10.87-11.18-24.65-17.83-38.46-24.62
			c-47.02-23.12-97.42-37.66-145.56-57.91c-10.43-4.39-20.61-9.35-30.93-13.98c-3.58-1.61-4.96-3.29-2.96-7.59
			c19.69-42.28,34.85-86.41,52.49-129.53c16.52-40.37,33.17-80.68,53.91-119.13c2.52-4.67,5.24-9.24,7.86-13.85
			c5.17-10.33,11.61-13.61,22.56-10.94c13.55,3.31,24.87,11,35.98,18.99c15.17,10.91,28.21,24.35,42.64,36.13
			c36.22,29.56,76.01,38.81,120.14,20.16c52.82-22.32,78.11-77.05,61.43-131.67c-1.05-3.43-3.01-6.79-1.46-10.61
			c-7.71-20.1-22.33-34.34-39.56-46.26c-21.36-14.78-45.27-23.62-70.33-29.7c-5.16-1.25-10.38-2.29-15.48-3.75
			c-27.76-7.95-40.34-29.1-34.76-59.37c3.01-16.3,10.88-30.66,19.58-44.5c23.03-36.65,49.1-71.18,74.33-106.3
			c21.34-29.71,43.84-58.63,62.25-90.34c2.72-4.69,5.28-3.9,8.75-1.59c13.28,8.86,26.58,17.68,39.89,26.51
			c1.37,0.91,2.81,1.72,4.21,2.58c4.84-0.34,7.83,3.13,11.2,5.61c14.66,10.77,29.35,21.49,44.07,32.18
			c23.1,18.11,48.14,33.27,73.28,48.26c9.81,5.85,20.52,9.34,32.07,10.13c13.99,0.96,24.41-4.8,32.16-16.17
			c9.1-13.35,11.56-28.85,14.58-44.19c2.46-12.99,6.71-25.42,11.66-37.64c1.5-3.71,3.02-7.32,6.72-9.42
			c5.43-8.31,10.16-17.04,16.16-25.03c11.55-15.38,26.42-26.79,42.48-36.89c14.19-5.67,28.37-10.72,44.11-10.62
			c17.98,0.11,34.84,3.85,50.75,12.11C3092.58,357.96,3095.59,359.35,3098.56,360.8z"/>
		<path class="st9" d="M937.29,1060.71c1.84,2.6,4.83,3.44,7.43,4.85c17.59,9.52,34.78,19.68,51.22,31.11
			c3.27,2.27,6.82,4.16,10.3,6.09c18.35,10.18,33.88,23.51,45.99,40.73c9.31,13.24,12.36,27.46,8.91,43.56
			c-5.14,24.02-14.79,46.22-25.48,68.08c-3.07,6.27-6.25,12.48-9.39,18.72c-6.83,10.97-13.43,22.11-20.53,32.91
			c-32.14,48.83-66.38,96.2-100.18,143.87c-11.33,15.98-23.03,31.7-34.1,47.87c-4.47,6.53-9.12,10.14-17.1,6.58
			c-1.15-0.51-2.62-0.32-3.94-0.46c-23.78-0.75-44.53-11.56-66.02-19.92c-7.03-3.19-7.54-8.31-4.7-14.8
			c7.48-17.06,15.76-33.77,23.91-50.5c30.32-62.19,61.28-124.07,92.58-185.78c3.41-7.15,7.38-14.01,11.4-20.83
			c2.77-4.69,1.65-7.28-3.88-8.11c-9.13-1.37-18.32-2.28-27.48-3.6c-41.87-5.99-83.77-11.71-125.66-17.44
			c-6.19-0.85-12.72-0.72-18.09-4.8c-7.26-1.62-14.34-5.05-22.03-2.05c-26.54-4.07-51.24-13.18-74.22-27.04
			c-15.25-9.2-28.19-20.92-38.74-35.28c-2.59-3.52-4.72-7.21-5.71-11.51c-4.74-14.38-10.34-28.5-13.45-43.39
			c-4.18-28.92-0.28-56.67,11.98-83.22c1.5-2.45,3-4.89,4.49-7.34c2.97-0.79,5.2,0.82,7.16,2.56
			c13.49,11.95,30.15,16.51,47.18,19.68c38.26,7.12,76.99,8.79,115.81,8.64c7.97-0.03,15.73-2.46,23.73-2.42
			c10.63,1.52,20.28,6.17,30.22,9.83c36.8,13.52,73.16,28.09,108.07,46.05C930.75,1055.27,935.17,1056.42,937.29,1060.71z"/>
		<path class="st2" d="M789.5,998.9c-7.36,3.48-15.4,3.1-23.17,3.61c-23.54,1.54-47.05-0.79-70.5-2.14
			c-19.71-1.13-39.4-3.86-58.69-8.91c-16.01-4.19-30.73-10.26-42.34-22.47c5.12-31.12,10.21-62.24,15.37-93.35
			c6.68-40.31,14.4-80.41,24.26-120.08c6.34-25.51,14.03-50.59,24.41-74.79c16.17-37.73,43.73-62,84.09-71.04
			c14.47-3.24,29.04-2.73,43.61-0.65c3.91,1.97,5.22,5.61,6.47,9.47c6.94,21.43,21.86,34.74,42.87,41.76
			c5.58,1.87,11.69,2.46,16.35,6.62c3.16,5.04,6.23,10.12,8.06,15.84c4.05,15.74,7.27,31.58,6.87,47.99
			c-0.23,9.36-2.05,18.51-2.97,27.78c-0.41,4.13-0.79,8.29,2.44,11.24c12.92,11.81,24.21,25.92,42.24,30.71
			c3.26,3.48,7.75,3.59,11.95,3.95c17.5,1.49,35,2.94,52.53,4.04c36.39,2.3,72.79,4.37,109.19,6.54c5.47,2.63,6.35,7.96,7.63,13.03
			c2.67,10.55,3.97,21.22,2.76,32.12c-0.98,5.77-5.2,7.21-10.17,7.53c-29.1,1.91-58.16,4.74-87.38,4
			c-7.76,0.13-15.6-1.08-23.25,1.26c-32.74,0.55-65.46,4.39-98.23,0.6c-8.72-1.01-16.63-4.36-24.49-7.9
			c-15.26-7.63-15.29-7.64-20.5,9.35c-11.21,36.61-22.13,73.32-32.97,110.04C794.53,989.89,794.91,995.84,789.5,998.9z"/>
		<path class="st10" d="M590.32,976.33c0.02,7.43-3.75,13.94-5.14,21.04c-2.09,10.66-3.47,21.41-5.14,32.1
			c-1.68,10.73,0.5,20.92,0.43,31.34c2.88,14.63,6.7,28.95,13.97,42.13c1.03,7.42,6.5,12.32,10.89,17.47
			c15.82,18.56,35.96,31.12,58.31,40.54c13.81,5.82,28.33,9.18,42.57,13.52c1.6,0.49,3.22,0.82,4.25,2.31
			c-12.79,11.63-25.33,23.57-38.43,34.85c-36.11,31.1-70.76,63.71-104.46,97.44c-42.35,42.39-30.6,34.74-89.43,63.75
			c-66.63,32.86-135.74,59.93-205.37,85.67c-25.89,9.58-51.97,18.67-77.99,27.9c-8.16,2.89-8.24,2.79-12.23-4.46
			c-1.6-2.91-3.01-5.94-4.5-8.91c-3.28-2.43-5.25-5.79-7.06-9.37c-8.05-15.94-13.9-32.79-20.47-49.34
			c-1.79-4.51-0.76-9.06-1.69-13.5c-1.98-5.57,1.88-7.67,5.76-9.88c14.98-8.53,29.97-17.07,44.88-25.71
			c16.32-9.46,33.3-17.77,49.1-28.14c11.95-5.1,22.89-12.1,34.2-18.4c38.36-21.35,76.78-42.59,114.49-65.1
			c11.95-7.13,21.49-15.73,28.51-28.23c25.56-45.54,51.65-90.8,79.87-134.78c10.77-16.78,21.83-33.38,32.75-50.07
			c13.57-17.2,25.86-35.4,40.28-51.94C582.37,984.32,585.74,979.75,590.32,976.33z"/>
		<path class="st11" d="M3268.69,1312.94c14.61-3.39,28.71-8.18,41.57-16c38.35-23.34,58.56-56.96,55.79-102.42
			c-1.05-17.25-6.04-33.9-15.55-48.79c-1.06-1.66-1.8-3.52-2.68-5.29c-1.4-4.13,1.31-6.99,3.29-9.93
			c24.79-36.81,49.99-73.34,75.4-109.74c2.41-3.45,4.45-7.48,8.8-9.18c5.63-0.8,10.29,2.29,15.3,3.91
			c6.95,2.26,13.29,3.79,14.23-6.69c0.15-1.68,1.52-2.91,3.12-3.68c7.06-1.43,14.14-3.18,20.52,2.05
			c6.77,18.64,13.54,37.29,20.31,55.93c8.25,22.69,16.53,45.37,24.72,68.08c0.66,1.83,0.71,3.87,1.04,5.82
			c0.59,3.33-2.13,4.61-4.07,6.17c-16.45,13.22-33.26,25.98-49.64,39.28c-1.85,1.5-3.93,2.38-6.28,2.66
			c-27.65,21.33-54.44,43.66-79.42,68.11c-4.83,4.73-8.25,10.33-11.18,16.37c-42.54,87.61-85.12,175.21-127.77,262.76
			c-3.77,7.73-6.66,15.93-11.86,22.92c-15.14,4.83-32.24-5.53-34.48-20.89c8.93-27.85,16.33-56.14,23.82-84.38
			c11.85-44.62,23.13-89.4,34.64-134.11C3268.56,1314.95,3268.57,1313.93,3268.69,1312.94z"/>
		<path class="st12" d="M1005.52,362.8c-86.27,0-172.53,0-258.8,0c-13.54,0-13.46-0.38-10.85-13.42
			c3.27-16.4,14.83-25.63,28.01-33.08c22.14-12.52,45.99-16.1,71.16-11.89c5.89,0.99,11.87,1.6,17.48,3.56
			c4.83,1.69,7.31-0.2,9.86-3.95c14.42-21.24,36.11-31.75,59.59-38.98c12.95-3.99,26.34-5.8,40.08-6.6
			c30.79-1.78,59.93,3.17,87.47,16.98c7.12,3.57,14.34,7.55,19.64,13.45c5.52,6.14,11.86,6.76,18.95,5.6
			c31.14-5.09,60.03,1.64,87.07,16.99c5.07,2.88,10.23,6.37,13.95,11.15c4.12,5.29,9.34,6.49,15.78,6.37
			c8.58-0.15,17.11-0.33,25.79,1.25c12.85,2.33,23.71,8.27,34.45,14.97c4.72,2.94,7.42,7.6,10.18,12.11
			c1.82,2.98,0.6,5.16-3.04,5.39c-2.65,0.17-5.33,0.09-7.99,0.09C1178.06,362.8,1091.79,362.8,1005.52,362.8z"/>
		<path class="st1" d="M2661.52,780.81c19.81,44.86,8.51,99.63-35.98,131.33c-23.27,16.58-48.82,25.38-77.72,22.86
			c-22.19-1.93-41.66-10.73-59.61-23.41c-14.18-10.02-26.07-22.74-39.51-33.64c-7.77-6.29-15.59-12.5-24.12-17.71
			c-4.81-2.94-9.85-5.61-15.05-7.75c-13.51-5.55-19.35-4.16-29.29,6.24c0.37-12.28,8.03-20.44,16.37-27.9
			c18.79-16.82,42.35-23,66.13-27.79c19.72-3.97,39.66-6.83,59.8-8.51c18.41-1.53,36.68-4.48,55.14-6.03
			c23.71-1.99,47.29-5.54,71.15-5.68C2653.19,782.81,2657.07,780.12,2661.52,780.81z"/>
		<path class="st13" d="M815.8,519.06c-1.22-6.6-1.06-13.27-1.11-19.93c-0.03-3.74,1.14-7.62-4.65-9.04
			c-2.93-0.72-1.67-4.76-0.81-7.12c2.25-6.25,4.83-12.39,7.41-18.52c1.01-2.41,2.6-4.21-0.92-6.49c-2.79-1.81-0.66-4.87,0.8-7.07
			c3.4-5.13,8.42-8.48,13.44-11.76c3.61-2.36,7.42-4.41,11.37-6.74c-0.7-1.94-2.62-1.29-3.69-2.04c-3.4-2.37-3.5-4.37-0.32-6.92
			c2.12-1.7,4.58-2.64,7.29-3.04c2.61-0.39,5.2-0.95,8.83-1.63c-2.42-3.07-4.81-5.54-6.51-8.41c-2.39-4.04-0.6-7.11,4.09-7.67
			c6.58-0.79,11.1,2.84,13.82,7.97c2.87,5.42,6.16,5.39,11.23,3.71c16.14-5.34,32.52-9.81,49.7-10.14
			c9.59-0.18,11.32,0.42,17.27,5.27c-1.02,3.81-5.38,3.55-7.95,6.72c2.79,0.98,5.36,1.9,7.95,2.77
			c17.45,5.88,33.98,13.58,48.7,24.81c5.05,3.85,9.79,8.09,13.4,13.36c4.26,6.2,3.69,7.75-3.36,10.79c-0.6,0.26-1.24,0.46-1.81,0.79
			c-0.26,0.15-0.41,0.52-0.7,0.91c3.12,5.73,7.41,10.9,9.43,17.33c2.8,8.92,1.29,12.34-7.86,14.24c-3.96,0.82-4.42,2.42-4.74,5.91
			c-0.9,9.74-4.48,12.41-14.31,12.35c-7.49-0.05-14.13-3.61-21.36-4.63c-7.89,0.62-13.55-4.8-20.23-7.48c-3-1.2-5.83-4.38-9.2-2.7
			c-9.3,4.63-16.8-0.17-24.29-4.28c-7.85-4.32-15.77-8.66-22.99-13.93c-7.05-5.14-10.94-3.22-14.75,3.82
			c-7.43,13.74-14.93,27.38-19.47,42.46c-3.14,10.44-5.56,11.09-12.78,2.72C830.74,528.49,822.46,524.91,815.8,519.06z"/>
		<path class="st14" d="M815.8,519.06c12.92,2.16,20.88,10.91,27.5,21.2c2.87-1.45,2.53-4,3.1-6.13
			c5.15-19.22,14.99-36.17,25.3-52.93c2.2-3.57,4.24-3.14,7.24-1.03c9.26,6.52,18.78,12.65,28.8,17.95
			c4.4,2.32,9.03,4.23,13.65,6.11c2.15,0.88,5.59,1.75,6.62,0.04c3.94-6.5,7.44-1.96,11.1-0.14c7.12,3.54,14.22,7.13,21.33,10.71
			c0,10.53,0.27,20.97-1.58,31.54c-1.81,10.36-0.97,21.06,2.24,31.34c1.08,3.45,2.19,6.93,2.82,10.48c0.79,4.44-2.66,9.01-6.44,7.64
			c-11.51-4.18-16.03,3.56-21.04,11c-4.96,1.59-7.95-2.43-11.77-4.1c-1.49-0.65-3.06-1.85-4.55-0.4c-1.34,1.31-0.75,3.06-0.39,4.69
			c1.02,4.7,6.06,7.14,6.7,12.04c-5.78,11.07-14.71,19.51-25,25.79c-9.12,5.57-18.5,0.19-27.21-3.62c-3.26-1.43-5.9-4.24-9.75-4.42
			c-17.52-13.59-29.38-31.11-36.14-52.15c-0.33-4.11-2.93-7.31-4.39-10.97c-1.19-2.97-3.37-4.18-6.54-5.18
			c-11.94-3.78-16.93-11.04-17.08-23.55c-0.04-2.97-0.19-5.98,0.14-8.92C801.48,526.75,806.62,521.04,815.8,519.06z"/>
		<path class="st12" d="M2763.77,467.05c-14.82-9.22-28.12-20.55-42.37-30.57c-3.76-2.65-7.33-5.58-10.99-8.38
			c0.52-1.7,1.46-2.78,3.36-3.18c12.84-2.65,25.69-2.76,38.28,0.89c6.89,1.99,10.81,0.07,15.05-5.66
			c7.92-10.73,19.74-16.59,31.93-21.15c32.55-12.18,64.95-11.22,96.74,2.74c6.29,2.76,12.63,6.08,17.58,11.1
			c3.68,3.74,7.01,6.51,12.89,4.26c2.9-1.11,6.58-0.22,9.9-0.23c-6.92,15.58-12.65,31.57-16.4,48.23
			c-2.78,4.89-7.64,4.84-12.24,4.86c-43.76,0.17-87.51,0.12-131.27,0.08C2771.8,470.03,2767.78,468.66,2763.77,467.05z"/>
		<path class="st5" d="M836.22,1515.02c5.21,1.77,11.41,1.75,14.25,7.83c-3.52,6.27-12.31,6.25-15.29,12.82
			c11.08-10.28,21.03-11.93,29.23-4.72c-0.07,0.54-0.18,1.08-0.33,1.61c-3.57,5.76-11.76,6.01-14.05,11.77
			c12.64-10.89,20.35-12.5,28.58-5.47c-0.01,0.61-0.14,1.19-0.39,1.74c-3.88,5.53-11.87,6.22-14.2,12.05
			c11.55-10.74,19.01-12.57,28.79-6.56c8.58,4.37,16.7,9.42,23.19,16.65c9.03,10.05,10.24,19.63,4.21,31.65
			c-3.69,5.78-9.56,5.72-15.17,4.98c-48.46-6.42-96.92-12.8-145.29-19.84c-4.11-0.6-7.68-2.09-10.12-5.66
			c-2.18-3.98-2.2-8.29-1.38-12.52c2.98-15.55,7.72-30.66,12.02-45.87c1.96-6.93,6.96-11.04,14.63-11.03
			c17.13,2,34.2,4.41,51.24,7.06C829.69,1512.05,833.51,1511.98,836.22,1515.02z"/>
		<path class="st15" d="M3809.18,1564.82c-5.84,8.69-11.75,17.32-17.48,26.08c-3.22,4.92-6.22,10.01-7.39,15.92
			c-43.27-0.04-86.53-0.07-129.8-0.13c-3.99-0.01-7.98-0.17-11.97-0.26c1.63-3.08,4.7-3.11,7.61-3.92
			c23.41-6.46,46.52-13.84,68.33-24.72c21.27-10.61,40.98-23.41,57.24-41.04c2.01-2.18,4.45-3.97,6.69-5.94
			C3792.04,1541.58,3801.61,1552.41,3809.18,1564.82z"/>
		<path class="st14" d="M1090.63,858.84c0.04-15.1-1.36-29.94-8.08-43.79c1.6-0.28,3.63-0.03,4.74-0.92
			c10.93-8.78,23.14-15.88,33.4-25.52c5.99-1.59,9.89-6.55,15.09-9.4c3.08-1.69,5.46-5.06,10.22-4.23
			c0.33,9.94-7.41,17.27-9.47,27.42c18.68-0.41,36.53-3.93,54.6-1.97c-9.49,6.94-21.77,5.59-33.15,12.14
			c12.14,2.19,22.77-0.99,34.67,1.87c-8.97,7.41-19.35,5.56-28.21,10.12c4.34,3.37,9.11,1.59,13.37,2.26
			c4.45,0.7,9.27-0.59,14.28,2.54c-9.7,4.54-19.97,3.88-29.53,8.1c5.69,5.75,14.12,4.12,19.69,8.71c-5.64,5.04-26.53,8.63-51.52,8.9
			c-6.57,4.62-14.01,5.04-21.65,4.54C1102.94,859.09,1096.7,860.9,1090.63,858.84z"/>
		<path class="st14" d="M852.24,666.94c-12.51-2.14-24.46-5.66-35.24-12.77c-13.63-9-22.68-21.1-26.9-36.91
			c-0.76-2.84-2.35-5.46-3.56-8.18c5.71,1.58,11.56,1.48,17.4,1.84c5.27,0.32,8.62-1.23,10.79-6.22c1.27-2.91,3.68-5.32,5.57-7.95
			c2.28,1.08,3.34,3.23,4.33,5.31c8.18,17.21,20.6,30.87,35.39,42.58c-2.37,3.83-4.69,7.68-7.11,11.48
			C850.68,659.63,849.75,663.16,852.24,666.94z"/>
		<path class="st11" d="M908.88,800.51c-1.6,2.32-3.66,2.44-6.1,1.46c-4.97-1.99-9.61-4.72-13.63-8.08
			c-8.37-6.98-16.22-14.59-24.42-21.78c-3.97-3.48-4.57-7.41-3.71-12.48c2.81-16.59,5.1-33.12,1.89-50.12
			c-1.4-7.39-1.62-15.04-4-22.31c-0.57-1.73-0.05-3.24,1.38-4.41c13.19,25.38,23.47,52.04,34.02,78.56
			C899.47,774.28,905.01,787.09,908.88,800.51z"/>
		<path class="st1" d="M3474.56,1185.12c19.29-16.92,39.97-32.1,59.99-48.11c6.48,11.27,9.31,23.97,14.04,35.93
			c2.3,5.81,5.27,11.46,6.04,17.82c-21.01-0.7-41.97-2.44-63.04-2.27C3486.09,1188.53,3479.91,1187.86,3474.56,1185.12z"/>
		<path class="st7" d="M3209.86,1534.4c2.52,3.9,5.04,7.77,8.33,11.13c7.22,7.37,16,10.35,26.15,9.76
			c-4.02,8.01-8.22,15.91-13.51,23.16c-2.65,3.63-5.53,4.96-10.08,2.08c-16.82-10.67-33.94-20.87-50.78-31.5
			c-3.7-2.34-10-4.56-8.42-9.61c1.43-4.57,7.98-3.99,12.44-4.21C3185.92,1534.62,3197.9,1534.63,3209.86,1534.4z"/>
		<path class="st16" d="M750.7,1572.62c2.47,2.32,5.18,3.76,8.74,4.23c45.19,5.97,90.35,12.1,135.52,18.2
			c4.29,0.58,8.57,1.18,12.84,1.85c4.46,0.7,8.6-0.09,12.41-2.52c3.58,4.63,1.43,8.51-1.6,12.28c-3.26,2.22-6.82,2.13-10.54,1.54
			c-4.58-0.72-9.2-1.21-13.8-1.8c-43.82-1.37-86.88-9.37-130.24-14.78c-5.6-0.7-11.29-1.43-15.81-5.28
			c-3.28-2.79-4.64-6.46-3.43-10.72C745.64,1572.69,747.41,1571.01,750.7,1572.62z"/>
		<path class="st17" d="M836.22,1515.02c-20.81-1.83-41.47-4.7-62.01-8.48c-1.04-9.93,4.88-16.83,10.43-23.88
			c13.71,4.96,27.36,10.11,41.17,14.81c8.08,2.75,16.41,4.79,24.63,7.14C842.39,1503.57,839.02,1508.91,836.22,1515.02z"/>
		<path class="st18" d="M860.03,644.64c-2.4,0.32-4.57-0.05-6.45-1.79c-14.19-13.14-27.11-27.17-33.27-46.1
			c2.21-4.34,4.69-8.5,8.02-12.1c6.17,7.78,8.75,17.65,14.86,25.49c6.24,8.01,11.4,16.91,19.68,23.21c0.89,0.68,1.08,2.28,1.59,3.46
			C862.99,639.42,861.51,642.03,860.03,644.64z"/>
		<path class="st19" d="M926.43,619.06c-6.16-4.05-10.19-9.34-9.93-17.1c0.15-4.55,1.32-5.45,5.33-3.43c5,2.52,9.76,5.51,14.62,8.3
			C933.3,611.08,931.45,616.37,926.43,619.06z"/>
		<path class="st20" d="M864.4,1530.95c-10.45-4.68-19.33-1.99-27.08,5.82c-1.16,1.17-2.11,2.56-3.26,3.75
			c-1.25,1.29-2.28,3.9-4.59,1.87c-1.6-1.4-0.09-3.04,0.76-4.36c4.85-7.56,11.66-12.55,20.23-15.18c2.85,0.15,5.77-0.03,8.53,0.54
			C862.91,1524.17,865.07,1526.66,864.4,1530.95z"/>
		<path class="st21" d="M878.61,1538.85c-15.01-5.83-24.06,3.25-32.65,13.92c-1.61-8.57,5.33-15.94,18.12-20.21
			c4.48-0.64,8.87-2.22,13.43,0.23C880.8,1534.56,880.97,1536.33,878.61,1538.85z"/>
		<path class="st22" d="M892.81,1546.08c-14.55-3.89-24.61,2.92-32.66,15.5c-1.64-9.39,5.65-17.06,18.07-20.99
			c4.76-1.17,9.51-2.07,14.15,0.51C895.02,1542.58,893.44,1544.35,892.81,1546.08z"/>
		<path class="st8" d="M3254.07,724.99c-19.2-0.27-38.16-3.36-57.24-5.03c-10.53-0.92-21-2.52-31.52-3.47
			c-6.45-0.58-11.33-2.61-12.54-9.7c-5.55-11.63-5.12-23.05,1.26-34.24c0.88-4.1,3.16-5.97,7.59-6.29
			c10.28-0.72,20.5-2.15,30.77-3.04c33.8-2.93,67.62-5.66,101.42-8.65c34.12-3.02,68.25-6.06,102.33-9.49
			c13.93-1.4,27.17-6.13,40.43-10.46c3.59-4.09,8.85-4.45,13.53-6.12c8.15-2.23,16.25-4.67,24.61-6.05
			c0.95-0.14,1.91-0.22,2.87-0.28c1.92-0.08,3.7-0.72,5.44-1.48c6.29-2.66,13.06-3.61,19.53-5.61c6.1-1.26,12.05-3.14,18.16-4.34
			c4.23-0.23,7.79-1.66,9.97-5.56c0.74-1.07,1.57-2.06,2.45-3.01c0.55-0.65,1.14-1.25,1.75-1.85c0.29-0.31,0.6-0.6,0.89-0.9
			c0.57-0.63,1.17-1.23,1.78-1.82c0.3-0.31,0.61-0.6,0.91-0.91c0.6-0.62,1.26-1.19,1.93-1.73c5.01-3.53,9.93-7.25,16.02-8.81
			c1.29-0.35,2.61-0.28,3.93-0.25c5.92,1.61,11.67-1.13,17.73-0.31c20.66,2.8,36.28,13.59,49.06,29.28c3.34,4.1,6.2,8.58,9.29,12.88
			c0.33,1.29,1.14,2.24,2.11,3.08l-0.06-0.12c1.49,2.51,3.47,4.7,4.6,7.43c0.99,1.38,0.16,3.31,1.4,4.62
			c6.3,14.04,10.5,28.85,15.99,43.19c1.52,3.08,2.11,6.56,4.04,9.47c6.8,21.98,9.61,44.74,12.44,67.42
			c2.62,21.04,4.54,42.19,5.07,63.42c0.07,3,0.54,6-1.91,8.38c-17.07,13.74-35.6,25.42-53.61,37.83
			c-24.59,16.93-49.46,33.45-74.18,50.21c-4.11,2.79-8.01,5.89-12,8.84c-3.07,0.75-5.16-0.74-6.59-3.18
			c-13.22-22.47-26.63-44.83-37.01-68.82c-0.79-1.82-0.88-3.85-0.95-5.86c-0.94-35.63-0.27-71.25-0.43-106.87
			c-0.02-4.31-0.22-8.68,1.59-12.77c6.06-5.77,14.28-2.58,21.24-4.97c3.21-1.1,7.07-1.02,10.62-1.51c4.1-1.34,8.43-1.44,12.62-2.26
			c5.4-1.18,10.64-3.07,16.2-3.5c2.6-1.48,5.52-1.96,8.38-2.6c7.75-1.49,14.86-4.8,22.13-7.64c1.13-0.76-0.61-1.64,0.23-0.61
			c0.16,0.2-0.06,0.45-0.68,0.71c-7.57,3.09-15.14,6.2-23.2,7.84c-2.51,0.11-4.74,1.09-6.93,2.21c-6.05,0.66-11.89,2.24-17.7,3.96
			c-4.35-0.02-8.48,1.21-12.67,2.1c-9.6,0.74-18.96,3.58-28.67,3.21c-10.16,3.19-20.62,2.9-31.08,2.67
			c-4.68-0.28-9.1,1.43-13.7,1.79c-6.02,0.63-12.05,0.22-18.09,0.28c-40.24,1.07-80.4-0.58-120.52-3.43
			c-8.63-0.61-17.27-0.04-25.9-1.06C3277.34,729.84,3265.42,729.11,3254.07,724.99z"/>
		<path class="st23" d="M3548.32,430.98c-0.46,0.41-1.36,0.9-1.3,1.22c3.21,18.82-2.21,36.53-6.94,54.32
			c-5.94,4.23-13.5,4.9-19.45,9.51c-4.46,3.46-6.39-1.34-7.47-4.78c-1.99-6.38-1.75-13.16-2.93-19.71c-0.9-5-2.84-6.97-8.06-5.54
			c-7.83,2.16-16.16-0.33-23.66,0.82c-16.29,2.5-32.43,2.7-48.77,3.26c-10.1,0.35-20.69,3.75-31.27,4.57
			c-3.25,0.5-6.02,2.78-9.47,2.54c-2.36-0.04-5.63,2.61-6.41-2.15c0.58-0.2,1.15-0.39,1.73-0.58c0.89-0.74,2.49-1.01,2.65-2.02
			c0.09-0.62-1.9-0.49-2.63-1.36c-5.8-0.82-11.27-2.47-15.86-6.32c-0.58-0.53-0.76-1.06-0.56-1.59c0.2-0.52,0.39-0.79,0.59-0.79
			c6.92,1.39,13.44,5.2,22.28,3.83c-4.45-3.73-7.99-6.59-11.41-9.61c-3.26-2.87-6.14-6.12-8.44-9.83
			c-6.52-10.51-5.27-19.34,4.07-27.57c2.71-2.39,5.14-4.25,5.99-8.48c4.22-20.97,12.42-26.94,34.19-26.06
			c1.33,0.05,2.66,0.01,4.34,0.01c0.56-4-3.62-6.22-3.68-9.84c0.89-0.81,1.8-0.84,2.74-0.1c1.25,1.55,2.56,3.07,3.75,4.66
			c2.96,3.93,5.38,3.31,8.8,0.01c18.68-18.05,41.25-18.98,64.28-5.94c7.7,4.36,14.38,10.2,23.93,11.26
			c6.95,0.77,11.26,6.7,14.62,12.66c3.29,5.84,5.39,12.12,6.77,18.7c1.64,7.8,2.55,8.42,10.73,8.64c2.33,0.06,4.66-0.19,6.99-0.29
			c0.47,0.52,0.6,1.02,0.42,1.51c-0.18,0.48-0.36,0.72-0.53,0.72c-0.59,0.16-1.19,0.31-1.78,0.45c-1.81,0.81-3.59,1.07-5.67,1.05
			c-2.43-0.03,1.15,0.93,0.09,1.58C3550.54,431.1,3549.81,431.86,3548.32,430.98z"/>
		<path class="st14" d="M3398.47,474.66c2.57-2.98,5.82-4.17,9.73-3.85c7.85,0.64,15.19-1.23,22.06-4.92
			c2.89-1.55,5.5-1.61,8.48-0.14c10.1,5,20.13,3.05,29.85-1.1c4.15-1.77,7.41-2.27,12.05-0.51c6.88,2.61,14.37,1.46,21.53-0.75
			c9.41-2.91,9.02-2.72,10.65,6.45c1.5,8.47,0.97,17.27,4.2,26.24c6.83-5.75,13.7-10.96,23.06-9.57c7.75,7.37,8.08,16.06,4.34,25.34
			c-3.82,9.49-9.64,12-22.81,9.97c-2.51,7.73-5.03,15.51-7.56,23.3c-6.11,16.98-25.78,30.95-41.97,29.82c-4.64,0-9.3-0.33-13.9,0.05
			c-19.7,1.65-44.06-17.38-49.76-34.93c-1.51-4.64-2.93-9.43-6.05-13.39c-5.63-8.5-5.03-18.76-7.93-28.03c2.7-2.11,4.2-4.61,4-8.31
			C3398.15,485.13,3398.43,479.89,3398.47,474.66z"/>
		<path class="st14" d="M3154.03,672.56c-1.93,11.36-1.98,22.78-1.26,34.24c-15.83,5.08-30.88,12.17-46.39,18.08
			c-4.89,1.86-9.7,3.91-16.15,4.99c3.54-7.08,9.93-10.07,14.49-16.28c-10.07-0.11-17.91,5.44-29.1,4.6
			c8.39-5.21,14.98-9.31,22.66-14.08c-9.62-0.57-17.44,4.28-27.76,1.86c9.71-4.98,17.86-9.16,26-13.34
			c-10.41-1.49-20.06,2.69-30.3,3.15c-0.13-3.18,2.78-3.27,4.5-4.19c9.38-5.06,19.16-9.26,29.36-12.38
			c3.48-1.06,6.99-1.97,9.85-4.98c-2.87-4.97-7.13-8.1-11.36-11.22c-1.89-1.39-4.02-2.6-5.01-4.75c-1.39-3.02,1.01-3.16,3.02-3.42
			C3115.98,659.96,3135.18,665.71,3154.03,672.56z"/>
		<path class="st14" d="M3534.32,603.76c-0.49,0.14-0.77,0.46-0.83,0.96c-3.58,3.36-6.71,7.37-12.03,8.17
			c-5.85,1.9-11.82,3.27-17.93,4c-14.96,2.31-17.76,0.9-22.61-11.31c-0.53-1.53-0.54-3.12-0.58-4.72
			c0.66-5.82-3.41-10.46-4.02-15.96c1.38-2.55,3.88-3.45,6.42-4.15c14.85-4.14,25.53-13.03,31.48-27.38
			c0.51-1.24,1.39-2.2,2.62-2.81c5.57,8.2,11.13,16.41,16.23,24.93c2.12,3.55,3.63,7.99,8.14,9.68c1.9,2.81,1.77,5.74,0.5,8.73
			c-1.12,1.63-2.27,3.25-3.37,4.9l0.08-0.09c-0.61,0.79-1.35,1.45-2.01,2.19l0.04-0.16
			C3535.58,601.64,3534.77,602.57,3534.32,603.76z"/>
		<path class="st18" d="M3516.85,550.56c-3.29,17.42-15.59,26.21-30.89,31.98c-3.07,1.16-6.41,1.59-9.63,2.36
			c-2.44-2.88-3.2-6.48-4.24-9.96c10.07-3.04,19.79-6.63,27.97-13.74c2.76-2.4,5.15-4.84,7.35-7.75c2.13-2.82,3.08-6.67,6.65-8.34
			C3514.99,546.94,3515.92,548.75,3516.85,550.56z"/>
		<path class="st24" d="M3480.35,600.86c0.47,0.56,0.94,1.12,1.42,1.67c-0.16,7.66-1.41,15.07-4.9,21.99
			c-8.75,2.12-17.49,4.23-26.24,6.35c-1.7-7.07-0.45-13.16,5.83-17.59C3463.09,606.57,3471.46,603.21,3480.35,600.86z"/>
		<path class="st18" d="M3394.44,498.64c1.63,0.4,3.52,0.85,3.69,2.76c0.74,8.54,4.46,16.58,4.24,25.27
			c-8.71-0.29-12.5-6.04-14.63-13.42C3385.82,506.58,3388.66,501.89,3394.44,498.64z"/>
		<path class="st25" d="M3456.46,613.28c-1.95,5.86-3.89,11.73-5.84,17.59c-4.68,1.26-9.37,2.51-14.05,3.77
			C3439.44,624.01,3444.8,615.71,3456.46,613.28z"/>
		<path class="st26" d="M3540.2,594.4c0.34-3.08,0.68-6.15,1.01-9.23c4.25-0.03,8.5-0.05,12.75-0.08c1.3,0.58,2.74,0.79,4,1.49
			c-5.8,3.54-11.6,7.08-17.4,10.62C3539.62,596.37,3539.49,595.44,3540.2,594.4z"/>
		<path class="st27" d="M3382.59,475.05c1.57,2.4,4.3,1.37,6.41,2.15c-4.47,2.94-9.02,1.27-15.16,1.25
			C3377.04,474.3,3379.93,475.01,3382.59,475.05z"/>
		<path class="st28" d="M3418.6,374.73c-0.91,0.03-1.83,0.07-2.74,0.1c-2.69-3.18-1.88-6.62-0.66-11.25
			C3416.55,367.99,3417.57,371.36,3418.6,374.73z"/>
		<path class="st29" d="M3384.34,471.09c2.27-0.41,4.53-0.76,6.89,0.41c-1.8,2.32-4.14,3.14-6.91,2.97
			C3384.33,473.35,3384.33,472.22,3384.34,471.09z"/>
		<path class="st30" d="M3642.16,638.87c-1.98-2.37-3.69-4.86-3.69-8.13c3.01,1.02,4.33,3.59,5.65,6.16
			C3643.72,637.81,3643.53,638.92,3642.16,638.87z"/>
		<path class="st31" d="M3548.32,430.98c0.62-0.61,1.23-1.22,1.85-1.83c2.23-1.83,3.28,0.25,4.62,1.39c0.6,0.21,1.46,0.24,1.75,0.66
			c0.75,1.07-0.06,1.6-1.03,1.64C3552.94,432.97,3550.32,433.11,3548.32,430.98z"/>
		<path class="st32" d="M3554.79,430.54c-1.54-0.46-3.08-0.93-4.62-1.39c-0.76-0.53-3.06-1.15-1-1.97c2.14-0.85,4.91-0.11,7.41-0.06
			C3555.99,428.26,3555.39,429.4,3554.79,430.54z"/>
		<path class="st33" d="M3558.37,426.67c0.04-0.74,0.07-1.49,0.11-2.23c0.49-0.42,0.93-1.02,1.5-1.23c1.23-0.46,2.96-1.01,3.54,0.43
			c0.57,1.42-1.24,1.98-2.28,2.51C3560.4,426.56,3559.33,426.51,3558.37,426.67z"/>
		<path class="st34" d="M3642.16,638.87c0.65-0.66,1.31-1.32,1.96-1.97c0.77,1.26,1.55,2.53,2.32,3.79c-0.66,0.7-1.32,1.4-1.98,2.1
			C3643.07,641.84,3642.45,640.45,3642.16,638.87z"/>
		<path class="st35" d="M3368.51,462.4c-0.01,0.79-0.02,1.58-0.02,2.38c-2.09-0.55-3.68-1.62-4.02-3.95v0
			C3366.11,460.59,3367.64,460.64,3368.51,462.4z"/>
		<path class="st14" d="M3557.96,586.58c-1.33-0.5-2.67-0.99-4-1.49c2.19-0.22,4.4-0.62,6.37,0.82
			C3559.55,586.14,3558.75,586.36,3557.96,586.58z"/>
		<path class="st36" d="M3638.53,630.86c-1.5-0.48-1.97-1.66-2.11-3.08C3637.65,628.44,3638.46,629.39,3638.53,630.86z"/>
		<path class="st37" d="M3364.46,460.82c-0.45-0.25-0.89-0.5-1.34-0.75C3364.35,458.93,3364.28,460.11,3364.46,460.82
			L3364.46,460.82z"/>
		<path class="st38" d="M148.83,1400.82c8,24.77,17.94,48.76,29.22,72.2c-1.97,0.09-4.01-0.1-5.91,0.33
			c-5.74,1.31-10.94,3.24-9.86,10.9c0.1,0.73-0.97,1.63-1.5,2.45c0.44-6.07-1.12-11.76-3.02-17.45
			c-6.5-19.44-12.87-38.92-19.29-58.38C142.1,1407.69,147.96,1406.83,148.83,1400.82z"/>
		<path class="st0" d="M784.64,1482.66c-2.2,8.52-8.01,15.46-10.43,23.88c-6.75,0.03-10.13,3.92-11.71,10.03
			c-3.81,14.74-7.68,29.47-11.54,44.2c-1.03,3.94-0.79,7.89-0.25,11.85c-4.09,0.49-4.43,3.39-4.15,6.59
			c0.32,3.74,2.59,6.18,5.94,7.24c3.45,1.09,7.06,1.83,10.65,2.27c18.66,2.26,37.22,5.35,55.86,7.52
			c17.37,2.02,34.61,4.98,51.99,6.96c7.72,0.88,15.84,0.07,23.3,3.2c-7.32,0.1-14.65,0.28-21.97,0.28
			c-205.29,0.02-410.57,0.01-615.86,0c-3.99,0-7.98-0.2-11.98-0.31c0.11-3.41,2.44-5.62,4.86-7.19c6.21-4.04,10.93-9.67,16.39-14.5
			c15.12-13.4,30.35-26.68,45.7-39.82c11.17-9.56,18.75-21.29,23.16-35.29c4.59-14.56,9.87-28.87,15.6-43.04
			c9.35-23.11,24.93-40.14,46.81-52.07c23.28-12.69,48.42-20.18,73.66-27.17c36.17-10.02,71.74-21.61,106.48-35.81
			c38.84-15.88,75.84-35.35,111.2-57.86c14.07-8.96,27.12-19.55,35.98-33.88c10.22-16.52,14.22-34.66,10.8-54.25
			c-1.53-8.76-1.79-17.75-2.62-26.63c13.69,0.2,27.06,3.18,40.57,4.86c27.05,3.36,54.02,7.3,80.99,11.25
			c8.21,1.2,16.59,1.42,24.57,4.04c6.97,11.79,13.07,24.05,19.47,36.15c-11.03,21.96-21.94,43.97-33.1,65.86
			c-27.62,54.15-53.97,108.91-80.26,163.71c-1.15,2.39-1.78,5.12-3.29,7.24C777.77,1477.09,779.64,1480.26,784.64,1482.66z"/>
		<path class="st13" d="M3488.48,1007.18c-7.35-0.11-14.7-0.22-22.04-0.33c-4.28-4.02-4.86-9.46-4.9-14.72
			c-0.45-52.5-0.42-105-0.06-157.49c0.01-1.66,0.35-3.3,0.83-4.88c4.67-7.51,6.25-0.45,7.47,2.09c5,10.42,9.09,21.26,13.74,31.86
			c4.66,10.61,10.06,20.84,14.92,31.33c1.54,3.32,2.67,6.77,2.74,10.5c0.96,29.06,0.33,58.11,0.4,87.16
			c0.01,4.82,0.84,10.05-3.47,13.88C3494.9,1006.79,3491.69,1006.99,3488.48,1007.18z"/>
		<path class="st8" d="M3498.12,1006.6c0.09-15.84,0.21-31.68,0.26-47.51c0.06-18.82,0.06-37.64,0.09-56.46
			c1.41-0.3,2.8,0.04,3.42,1.25c6.91,13.63,16.74,25.78,20.63,40.93c-6.15,8.82-3.7,16.49,2.42,24.35
			c6.92,8.88,13.16,18.29,19.6,27.54c5.38,7.72,10.92,15.09,21.81,14.42c1.31,2.66,2.61,5.33,3.92,8
			c-21.81,0.4-43.56-0.83-65.33-2.06C3496.51,1016.58,3499.51,1010.6,3498.12,1006.6z"/>
		<path class="st39" d="M158.06,1506.67c-0.57-16.93-12.85-21.65-26.31-24.59c0.25-3.48,2.41-3.52,4.4-3.26
			c8.84,1.15,16.7,4.3,22.43,11.54c1.27,3.31,3.6,6.02,4.64,9.56C164.72,1505.06,162.41,1506.43,158.06,1506.67z"/>
		<path class="st40" d="M156.98,1538.86c-4.59-13.6-4.59-13.6-26.92-24.14c7.52-3.78,15.3-1.4,24.59,7.51
			c0.5,0.92,1.12,1.74,1.8,2.53c3.38,2.53,3.79,6.55,4.94,10.14C162.77,1539.17,159.38,1538.57,156.98,1538.86z"/>
		<path class="st41" d="M156.52,1522.86c-0.39-16.55-13.12-20.18-26.37-23.78c8.58-4.32,15.93-2.03,26.38,7.44
			c1.75,3.04,3.84,5.93,5.15,9.15C163.62,1520.4,161.91,1523.1,156.52,1522.86z"/>
		<path class="st41" d="M156.46,1524.77c-1.07-0.51-1.64-1.37-1.8-2.52c0.65,0.1,1.26,0.31,1.84,0.62
			C156.47,1523.5,156.46,1524.13,156.46,1524.77z"/>
		<path class="st42" d="M3644.27,954.89c-0.09-0.32-0.1-0.69-0.28-0.95c-4.63-6.69-6.73-6.81,3.15-13.63
			c21.27-14.7,42.39-29.63,63.58-44.45c4.86-3.4,9.76-6.76,14.49-10.04c4.69,2.01,5.23,7.23,8.88,9.62
			c3.45,4.85,1.75,7.74-2.93,10.94c-24.29,16.61-48.32,33.6-72.46,50.44C3650.69,962.4,3650.68,962.38,3644.27,954.89z"/>
		<path class="st15" d="M3680.09,834.67c-1.53-19.48-2.88-38.97-4.64-58.42c-2.48-27.39-7.32-54.42-13.2-81.27
			c-0.76-2.1-1.64-4.25,2.07-4.06c22.71,29.35,45.41,58.71,68.15,88.04c2.62,3.39,5.47,6.6,8.21,9.9c0.07,1.6,0.44,3.11-1.33,4.34
			C3719.52,806.92,3700.63,821.97,3680.09,834.67z"/>
		<path class="st3" d="M3522.52,944.81c-7.16-10.41-12.43-21.88-18.5-32.9c-1.73-3.15-2.61-6.84-5.55-9.28
			c-6.31-13.86-12.31-27.86-19.01-41.52c-5.53-11.28-8.69-23.58-15.17-34.43c-5.82-4.8-6.38-12.21-8.89-18.55
			c-8.44-21.33-13.98-43.56-19.29-65.83c-0.73-3.07-2.35-6.43,0.73-9.3c5.83-0.59,11.65-1.14,17.49-0.13
			c6.94,10.38,7.02,22.94,10.91,34.29c7.39,24.71,17.23,48.5,27.43,72.14c2.38,5.5,4.6,10.91,5.1,16.91
			c11.07,24.04,23.87,47.15,37.13,70.03c1.29,2.23,2.23,4.93,5.39,5.32C3534.37,935.97,3528.44,940.39,3522.52,944.81z"/>
		<path class="st43" d="M3664.32,690.92c-1.69,0.84-1.61,2.59-2.07,4.06c-2.4-2.64-2-5.84-1.79-9
			C3662.3,687.19,3663.79,688.68,3664.32,690.92z"/>
		<path class="st0" d="M789.5,998.9c7.87-27.01,15.65-54.05,23.63-81.02c5.64-19.04,11.53-38.01,17.37-56.99
			c2.15-6.99,2.32-7.08,8.69-3.76c3.21,1.67,6.18,3.79,9.26,5.71c4.76,3.28,8.17,7.76,11.17,12.6
			c7.05,11.37,15.89,21.33,24.65,31.35c13.62,15.57,32.18,19.01,51.34,20.88c29.11,2.84,58.22,5.33,87.47,6.57
			c28.87,1.23,57.71,3.22,86.61,3.36c8.57-2.88,17.22-5.43,26.22-6.62c2.57,21.16,4.92,42.37,4.23,63.72
			c-0.44,13.65-1.9,27.22-7.18,40.08c-8.17,19.91-24.25,28.93-45.51,25.32c-7.57-1.28-14.94-3.33-22.17-5.87
			c-24.25-8.49-49.22-11.67-74.77-9.39c-18.75,1.67-36.57,6.92-53.22,15.86c-19.1-8.5-37.66-18.14-56.92-26.32
			c-27.83-11.83-56.03-22.64-84.52-32.73C793.68,1000.89,791.62,999.83,789.5,998.9z"/>
		<path class="st44" d="M1135.91,930.98c-4.3,3.84-9.44,5.83-15.09,5.74c-3.66-0.06-5.99,1.8-8.5,3.76
			c-4.36-14.43-6.11-29.32-7.68-44.24c1.37-8.74,0.52-17.55,0.8-26.32c0.15-4.52-0.41-9.2,2.88-13.03
			c7.56,0.47,14.97-0.84,22.41-1.83c-4.15,3.51-2.08,8.02-1.64,12.04c2.19,20.32,4.64,40.61,6.97,60.91
			C1136.17,928.99,1135.97,930,1135.91,930.98z"/>
		<path class="st1" d="M3435.24,1012.37c-28.44,41.17-57.22,82.1-84.82,123.84c-0.91,1.38-1.74,2.82-2.6,4.23
			c-12.89-15.46-28.01-28.21-45.88-37.59c-19.82-10.4-40.86-17.33-62.71-21.92c-7.83-1.65-15.4-3.97-22.25-8.27
			c-15.95-10-22.44-24.7-21.22-43.08c1.31-19.8,9.26-37.09,20.52-53.07c13.68-2.42,27.19,0.67,40.68,1.82
			c37.72,3.22,75.45,6.73,112.69,13.81c21.17,4.03,42.63,7.18,62.62,15.98C3433.77,1009.17,3434.95,1010.46,3435.24,1012.37z"/>
		<path class="st0" d="M3432.87,1010.64c-25.14-8.67-51.08-13.85-77.3-17.81c-17.96-2.71-35.88-5.93-53.95-7.49
			c-9.88-0.85-19.76-2.03-29.66-2.77c-11.17-0.84-22.44-1.07-33.53-3.28c-4.18-0.83-8.63-0.28-12.94-0.5
			c-3.2-0.17-6.78,1.02-9.22-2.29c6.45-13.1,15.38-24.63,23.61-36.57c15.2-22.04,30.61-43.94,47.08-65.07
			c7.85-2.89,15.74-0.86,23.58-0.05c34.47,3.55,68.97,4.79,103.49,1.03c12.31-1.34,12.27-1.72,13.52-13.86
			c0.68-6.66,0.68-6.66,5.83-8.41c2.72,4.17,2.3,8.91,2.3,13.51c0.06,43.09,0.07,86.17-0.01,129.26
			C3435.65,1001.24,3436.37,1006.38,3432.87,1010.64z"/>
		<path class="st45" d="M3432.87,1010.64c-0.27-3.98-0.72-7.95-0.77-11.93c-0.52-42.64-0.12-85.27,0.43-127.9
			c0.08-5.98-0.14-11.97-0.22-17.96c-5.31-8.64-3.25-18.13-2.21-27.1c1.69-14.59,0.79-29.15,1.29-43.71
			c0.28-8.16-3.37-10.34-11-9.11c-20.22,3.26-40.33-1.34-60.51-1.35c-3.01,0-5.65-1.82-8.5-2.67c-0.96-0.28-2.01-0.39-2.86-0.85
			c-30.49-16.52-62.68-29.29-94.42-43.06c12,2.79,24.5,0.41,36.48,3.45c0.96,0.24,1.99,0.35,2.97,0.29
			c17.64-1.1,35.14,1.55,52.67,2.46c30.22,1.56,60.43,1.25,90.65,1.81c5.69,27.74,13.72,54.79,23.61,81.32
			c1.5,4.04,2.57,8.24,3.84,12.36c-0.12,15.6-0.41,31.2-0.34,46.8c0.16,35.2,0.5,70.4,0.75,105.59c0.06,9.3,0.17,18.59,1.74,27.79
			c-0.13,1.98-0.32,3.96-0.36,5.94c-0.18,8.25-0.92,8.74-9.38,7.26c-7.61-1.34-14.29-5.18-21.46-7.68
			C3434.45,1011.79,3433.66,1011.22,3432.87,1010.64z"/>
		<path class="st1" d="M3351.36,768.9c8.6,0.15,17.23-0.06,25.8,0.52c16.55,1.11,33.06,1.68,49.61-0.05
			c7.83-0.82,8.09-0.47,7.89,7.01c-0.69,25.49-1.56,50.98-2.36,76.47c-3.7,5.12-1.45,10.94-1.71,16.42
			c-0.22,4.59-1.07,7.26-6.32,8.07c-8.47,1.3-16.85,3.36-25.45,3.44c-18.94,0.16-37.92,0.7-56.82-0.21
			c-11.13-0.53-22.39-1.08-33.44-3.3c-7.1-1.43-14.65,0.7-21.61-2.41c15.93-22.5,31.98-44.92,47.73-67.55
			c6.45-9.27,12.12-19.08,18.41-28.47C3355.86,774.69,3355.52,771.6,3351.36,768.9z"/>
		<path class="st0" d="M2763.77,467.05c48.12-0.08,96.24-0.15,144.37-0.26c3.94-0.01,8.01,0.68,11.62-1.7
			c-1.24,10.24-3.38,20.25-6.95,29.95c-1.61,4.39-3.55,8.59-6.03,12.54c-10.39,16.56-25.28,22.66-44.44,18.38
			c-10.5-2.35-20.32-6.44-29.33-12.13c-21.06-13.3-42.56-25.94-62.49-40.96C2768.13,471.08,2765.54,469.55,2763.77,467.05z"/>
		<path class="st46" d="M898.09,1235.12c-9.5-10.43-16.08-22.43-19.47-36.15c11.54,1.41,23.07,2.83,36.06,4.42
			C909.45,1214.57,904,1224.96,898.09,1235.12z"/>
		<path class="st47" d="M594.44,1102.95c-5.48-3.2-5.72-9.52-7.8-14.43c-3.69-8.7-6.37-17.97-6.17-27.7c3.63,5,3.53,11.2,5.2,16.81
			C588.21,1086.22,592.81,1094.07,594.44,1102.95z"/>
		<path class="st11" d="M1106.53,896.76c0.78,8.18,3.54,15.96,4.63,24.12c0.88,6.57,1.37,13.04,1.16,19.61
			c-26,0.65-51.9-1.83-77.86-2.56c-16.63-0.46-33.22-2.02-49.84-3.03c-21.6-1.31-43.11-3.54-64.57-6.36
			c-14.03-1.84-26.1-7.49-35.91-17.81c-13.83-14.53-25.95-30.32-35.69-47.89c2.78,0,5,1.62,7.43,2.61
			c8.64,3.49,17.39,6.39,26.93,5.43c8.32-0.84,16.28,2.96,24.63,1.88c21.72-2.81,43.58-1.45,65.37-2.16
			c3.78-1.92,7.46,0.79,11.21,0.23c29.77,2.9,58.81,10.08,88.26,14.89c8.5,1.39,17.08,2.58,25.43,4.73
			C1101.31,891.38,1105.93,891.42,1106.53,896.76z"/>
		<path class="st48" d="M1106.53,896.76c-4.58-4.11-10.54-3.66-15.99-4.67c-35.89-6.63-71.81-13.1-107.71-19.62
			c2.67-5.67,8.37-0.68,11.88-3.39c30.08-0.26,60.05-2.85,90.08-4.18c4.41-0.2,5.77-2.23,5.85-6.06c5.62-3.21,11.77-1.54,17.7-1.94
			c0.05,10.18,0.19,20.35,0.09,30.53C1108.38,890.59,1109.25,894.08,1106.53,896.76z"/>
		<path class="st49" d="M790.47,690.82c10.45,8.2,19.3,17.99,27.84,28.08c-0.54,0.79-0.7,1.93-1.93,2.07
			c-9.09-8.49-16.87-18.2-25.22-27.37c-0.57-0.62-0.48-1.83-0.7-2.77L790.47,690.82z"/>
		<path class="st50" d="M816.38,720.97c0.64-0.69,1.29-1.38,1.93-2.07c6.07,6.62,12.14,13.25,18.21,19.87
			c0.64,1.95-0.21,2.42-1.97,1.99C828.49,734.16,822.43,727.57,816.38,720.97z"/>
		<path class="st51" d="M834.54,740.76c0.66-0.66,1.31-1.32,1.97-1.99c5.49,6.54,12.92,11.56,15.89,20.1l0.1-0.1
			C845.44,753.84,839.83,747.46,834.54,740.76z"/>
		<path class="st52" d="M994.71,869.08c-3.38,3.15-8.64-0.26-11.88,3.39c-3.6,0.78-6.52-2.14-10.02-1.87
			C979.9,867.05,987.38,869.22,994.71,869.08z"/>
		<path class="st53" d="M738.42,788.83c-4.06-0.15-6.27-2.73-7.94-6.03l-0.03,0.03c3.95,0.26,6.37,2.6,8.03,5.95L738.42,788.83z"/>
		<path class="st54" d="M740.47,790.82c3.99,0.07,6.15,2.82,8.27,5.63l-0.64,0.67C744.56,796.23,741.93,794.23,740.47,790.82
			L740.47,790.82z"/>
		<path class="st55" d="M756.05,803.22c-3.62-0.77-5.96-3.2-7.95-6.09c0,0,0.63-0.66,0.63-0.67c3.47,0.94,6.01,3.13,8.03,6
			C756.53,802.71,756.29,802.97,756.05,803.22z"/>
		<path class="st56" d="M772.1,815.21c-3.56-0.79-6-3.12-8.07-5.94c0.24-0.27,0.47-0.53,0.71-0.8c3.51,0.88,6,3.13,8.07,5.96
			C772.58,814.69,772.34,814.95,772.1,815.21z"/>
		<path class="st57" d="M772.81,814.43c3.47,0.9,6.02,3.06,8.02,5.95l-0.63,0.73c-3.58-0.76-6.05-3.04-8.09-5.9
			C772.34,814.96,772.58,814.7,772.81,814.43z"/>
		<path class="st58" d="M756.77,802.46c3.44,0.97,5.98,3.13,7.97,6.02c-0.22,0.27-0.45,0.53-0.7,0.79
			c-3.52-0.88-5.97-3.18-7.98-6.06C756.31,802.98,756.55,802.73,756.77,802.46z"/>
		<path class="st59" d="M728.41,780.83c-3.28-0.02-5.3-1.89-7.27-5.42c4.12,0.33,5.89,2.6,7.33,5.36L728.41,780.83z"/>
		<path class="st60" d="M792.2,829.15c-2.7-0.28-4.69-1.64-6.05-3.97l0.61-0.68c2.65,0.37,4.66,1.7,5.96,4.06L792.2,829.15z"/>
		<path class="st61" d="M798.21,833.14c-2.72-0.26-4.74-1.57-6.01-4c0,0,0.51-0.58,0.52-0.58c2.63,0.4,4.67,1.68,5.98,4.03
			L798.21,833.14z"/>
		<path class="st62" d="M804.65,836.62c2.7,0.29,4.77,1.53,6.02,4l-0.36,0.41c-2.74-0.2-4.81-1.45-6.09-3.93L804.65,836.62z"/>
		<path class="st63" d="M810.67,840.62c2.7,0.29,4.87,1.36,5.91,4.06l-0.2,0.23c-2.77-0.13-4.83-1.38-6.08-3.88
			C810.3,841.03,810.67,840.62,810.67,840.62z"/>
		<path class="st64" d="M820.53,846.76c2.79,0.15,4.96,1.21,5.99,3.99l-0.1,0.11c-2.82-0.06-4.97-1.17-6.04-3.92L820.53,846.76z"/>
		<path class="st65" d="M804.22,837.11c-2.69-0.29-4.75-1.51-6-3.97c0,0,0.48-0.55,0.48-0.55c2.64,0.38,4.68,1.63,5.94,4.03
			C804.65,836.62,804.22,837.11,804.22,837.11z"/>
		<path class="st66" d="M780.83,820.38c2.58,0.5,4.63,1.76,5.92,4.12c0,0-0.6,0.67-0.61,0.67c-2.59-0.47-4.62-1.76-5.95-4.07
			C780.2,821.11,780.83,820.38,780.83,820.38z"/>
		<path class="st67" d="M816.58,844.68c1.67,0.02,3.19,0.32,3.95,2.08c0,0-0.15,0.18-0.15,0.18c-1.68,0-3.22-0.25-4-2.03
			C816.38,844.91,816.58,844.68,816.58,844.68z"/>
		<path class="st65" d="M826.52,850.75c0.88,0.22,1.76,0.43,2.63,0.65c-0.24,0.36-0.48,1.02-0.74,1.03
			c-1.03,0.05-1.67-0.61-1.99-1.57C826.42,850.87,826.52,850.75,826.52,850.75z"/>
		<path class="st68" d="M782.44,682.88c1.12,0.21,1.77,0.88,1.97,2l0.1-0.1c-1.1-0.21-1.76-0.88-2-1.97L782.44,682.88z"/>
		<path class="st69" d="M788.5,688.79c-1.22-0.12-1.84-0.82-1.97-2.01l-0.1,0.11c1.18,0.13,1.84,0.8,2.01,1.97L788.5,688.79z"/>
		<path class="st49" d="M790.45,690.83c-1.28-0.07-1.9-0.79-1.96-2.04c0,0-0.06,0.06-0.06,0.06c1.22,0.09,1.88,0.76,2.04,1.96
			C790.47,690.82,790.45,690.83,790.45,690.83z"/>
		<path class="st70" d="M740.46,790.83c-1.16-0.17-1.88-0.8-2.04-1.99c0,0,0.05-0.05,0.05-0.05
			C739.6,789.01,740.35,789.61,740.46,790.83C740.47,790.82,740.46,790.83,740.46,790.83z"/>
		<path class="st71" d="M782.52,682.8c-0.31-0.29-0.62-0.59-0.92-0.88c0.19,0.05,0.47,0.05,0.57,0.18c0.16,0.22,0.19,0.52,0.28,0.78
			C782.44,682.88,782.52,682.8,782.52,682.8z"/>
		<path class="st51" d="M852.4,758.87c1.14,0.16,1.76,0.86,1.97,1.95l0.09-0.09c-1.1-0.21-1.74-0.88-1.96-1.97
			C852.5,758.77,852.4,758.87,852.4,758.87z"/>
		<path class="st72" d="M854.38,760.83c0.31,0.28,0.63,0.56,0.94,0.84c-0.19-0.05-0.46-0.04-0.55-0.16
			c-0.16-0.21-0.21-0.5-0.31-0.76C854.46,760.74,854.38,760.83,854.38,760.83z"/>
		<path class="st58" d="M786.53,686.78c-1.18-0.16-1.83-0.85-2.01-2.01c0,0-0.1,0.1-0.1,0.1c1.17,0.17,1.83,0.84,2.01,2.01
			C786.42,686.89,786.53,686.78,786.53,686.78z"/>
		<path class="st73" d="M730.48,782.8c-1.08-0.25-1.77-0.91-2.07-1.98c0,0,0.06-0.05,0.06-0.06c1.04,0.32,1.76,0.96,1.98,2.06
			C730.44,782.84,730.48,782.8,730.48,782.8z"/>
		<path class="st74" d="M936.25,545.25c3.62,0.49,5.46,3.02,5.88,6.65c0.52,4.47-3.16,9.17-7.13,9.19
			c-4.21,0.02-5.77-2.84-6.18-6.42C928.33,550.37,932.25,545.4,936.25,545.25z"/>
		<path class="st75" d="M944.13,533.22c-5.81-0.87-11.62-0.94-17.43,0.05c-1.15,0.54-2.19,0.37-3.11-0.51
			c7.2-5.64,14.85-4.85,22.69-1.63C946.67,532.97,946.21,533.93,944.13,533.22z"/>
		<path class="st76" d="M944.13,533.22c0.72-0.7,1.43-1.39,2.15-2.09c2.24,0.74,4.21,1.82,5.4,4.75
			C948.4,536.68,946.33,534.73,944.13,533.22z"/>
		<path class="st77" d="M923.59,532.76c1.04,0.17,2.08,0.34,3.11,0.51c-1.04,0.67-2,1.59-3.14,1.94c-1.12,0.35-2.97,2.47-3.46-0.14
			C919.82,533.6,921.87,532.75,923.59,532.76z"/>
		<path class="st78" d="M3497.77,856.21c-13.76-28.36-25.34-57.58-34.72-87.67c0.87-8.22-2.15-16.19-1.51-24.42
			c0.39-4.98,0.47-9.93,5.31-13.04c10.49-0.52,20.97-1.04,31.46-1.57c1.36,1.09,1.33,2.37,0.52,3.76
			c-1.35,23.97-0.55,47.97-0.82,71.95C3497.82,822.22,3497.85,839.21,3497.77,856.21z"/>
		<path class="st79" d="M3466.85,731.08c-2.49,5.2-1.72,10.82-2.17,16.3c-0.58,7.05,1.33,14.3-1.63,21.16
			c-3.05-11.85-7.11-23.46-8.72-35.67C3458.49,732.15,3462.44,730.01,3466.85,731.08z"/>
		<path class="st80" d="M3476.87,624.52c-1.33-7.99,1.52-15.05,4.9-21.99c2.52,11.95,11.22,14.55,21.76,14.35
			c-6.65,3.35-14.21,3.59-21.08,6.18c-1.35,0.9-3.04,0.73-4.45,1.42l-0.57-0.06L3476.87,624.52z"/>
		<path class="st81" d="M3498.83,733.28c-0.17-1.26-0.35-2.51-0.52-3.77c9.85-0.95,19.57-3.11,29.53-3.07
			c2.18-0.8,2.85,0.14,2.56,2.21C3519.96,730.78,3509.53,732.96,3498.83,733.28z"/>
		<path class="st82" d="M3564.36,718.65c7.96-2.67,15.91-5.34,23.87-8.01c-6.67,5.11-13.89,8.59-21.94,10.04
			C3565.73,719.93,3564.36,719.94,3564.36,718.65z"/>
		<path class="st83" d="M3558.41,722.49c-5.36,1.29-10.73,2.59-16.09,3.88c-0.91-0.51-2.15-0.61-2.39-1.94
			c5.97-2.29,12.13-3.55,18.53-3.62c0.59,0.39,0.78,0.77,0.57,1.13C3558.82,722.31,3558.62,722.49,3558.41,722.49z"/>
		<path class="st84" d="M3539.93,724.44c0.8,0.65,1.59,1.29,2.39,1.94c-3.97,0.76-7.95,1.51-11.92,2.27
			c-0.85-0.74-1.71-1.47-2.56-2.21C3531.61,724.18,3535.83,724.67,3539.93,724.44z"/>
		<path class="st85" d="M3521.47,612.89c4.01-2.72,8.02-5.44,12.03-8.17C3531.12,609.85,3527.86,613.68,3521.47,612.89z"/>
		<path class="st86" d="M3558.41,722.49c0.02-0.56,0.03-1.11,0.05-1.67c1.45-2.13,3.75-1.93,5.9-2.17c0.65,0.68,1.29,1.36,1.94,2.03
			C3563.67,721.29,3561.04,721.89,3558.41,722.49z"/>
		<path class="st24" d="M3478.01,624.48c1.2-1.35,2.74-1.68,4.45-1.42C3481.32,624.62,3479.77,624.89,3478.01,624.48z"/>
		<path class="st87" d="M3540.2,594.4c0.12,0.93,0.24,1.86,0.36,2.79c-0.33,1.1-1.07,1.65-2.22,1.61
			C3537.95,596.91,3538.55,595.43,3540.2,594.4z"/>
		<path class="st88" d="M3536.41,600.9c0.08-1.27,0.54-2.2,2.01-2.19C3538.41,600.04,3537.7,600.74,3536.41,600.9z"/>
		<path class="st89" d="M3534.32,603.76c0-1.51,0.61-2.59,2.13-3.02C3536.31,602.15,3535.36,602.98,3534.32,603.76z"/>
		<path class="st19" d="M3477.6,533.41c-3.03,12.37-9.62,18.45-20.26,19.19c-7.83,0.55-15.9-4.65-19.55-13.01
			C3450.99,536.91,3464.08,534.62,3477.6,533.41z"/>
		<path class="st90" d="M3450.91,521.93c-8.57-2.07-8.78-2.32-8.47-9.31c0.31-7.01,4.54-13.06,4.47-20.4
			c4.56,1.47,3.7,4.88,3.3,7.49c-0.49,3.23-1.66,6.41-2.94,9.45C3445.1,514.33,3444.94,518.76,3450.91,521.93z"/>
		<path class="st91" d="M3432.1,500.06c-0.83,3.3-2.81,5.26-6.34,4.78c-3.05-0.42-4.69-2.7-4.48-5.56c0.26-3.52,2.73-5.17,6.19-4.71
			C3430.51,494.97,3431.92,497.07,3432.1,500.06z"/>
		<path class="st92" d="M3488.52,485.26c-8.95-3.1-16.67-6.1-24.98-3.03C3472.29,474.23,3479.86,474.97,3488.52,485.26z"/>
		<path class="st93" d="M3412.4,484.73c8.78-5.79,13.93-6.04,22.98-0.51c-7.45,0.46-14.21,0.2-20.44,2.95
			C3412.61,487.9,3412.07,486.77,3412.4,484.73z"/>
		<path class="st94" d="M3467.13,495.62c0.18-3,1.68-5.02,4.67-5.33c3.4-0.35,5.85,1.31,6.08,4.81c0.19,2.92-1.69,5.1-4.55,5.49
			C3469.85,501.06,3467.99,498.8,3467.13,495.62z"/>
		<path class="st95" d="M3412.4,484.73c0.85,0.81,1.69,1.62,2.54,2.44c-1.61,1.47-3.21,2.95-5.74,2.64
			C3408.45,486.89,3410.51,485.86,3412.4,484.73z"/>
		<path class="st1" d="M733,1177.85c-7.09-4.67-14.57-6.29-22.71-2.99c-9.23,6.64-17.22,14.72-25.62,22.3
			c-28.44,25.63-58.25,49.74-85.59,76.58c-19.74,19.38-39.17,39.07-58.71,58.65c-6.63,6.65-13.99,12.27-22.19,16.88
			c-49.79,27.98-102.34,50.03-155.04,71.67c-51.48,21.14-103.86,39.96-156.26,58.69c-16.94,6.06-16.84,6.32-28.29-7.56
			c-0.2-0.24-0.55-0.37-0.83-0.53c-12.38-0.99-15.49,1.25-18.73,13.54c-0.57,1.89-1.21,3.77-1.46,5.74
			c-1.02,4.76,7.34,9.41,0.2,14.25c-0.74,0.54-1.36,1.2-1.84,1.98c-1.21,4.88,7.29,9.07,1.04,14.32c-0.66,0.64-1.12,1.41-1.4,2.29
			c-0.08,0.92,0.01,1.82,0.28,2.71c3.06,5.17,2.75,10.03-1.29,14.53c-0.9,4.72-1.7,9.45,1.41,13.77
			c12.99,9.15,25.72,18.61,39.36,26.88c12.13,7.35,25.3,12.79,37.24,20.7c-0.01-0.01-0.04-0.03-0.04-0.03l13.24-7.4
			c0,0,2.76,6.12,1.17,9.52c25.55-20.74,49.43-43.36,73.85-65.37c5.74-5.18,9.45-11.93,12.4-19.14
			c6.81-16.66,11.81-33.96,18.57-50.66c9.83-24.27,26.11-41.96,49.36-53.98c23-11.89,47.59-19.06,72.3-25.88
			c75.58-20.85,147.72-49.64,213.87-92.26c20.99-13.52,40.08-28.95,47.59-54.39C741.32,1220.86,739.03,1199.29,733,1177.85z"/>
		<path class="st1" d="M232.57,1602.26c0.18,0.16,1.61,1.44,3.68,2.58c0.02,0,0.04,0,0.06,0
			C235.07,1603.94,233.83,1603.09,232.57,1602.26z"/>
		<path class="st1" d="M241.21,1606.57c1.07,0.13,2.17,0.1,3.27-0.2c1.25-0.34,2.02-1.08,2.46-2.02c-0.82,0.67-1.64,1.35-2.46,2.02
			C243.39,1606.42,242.3,1606.5,241.21,1606.57z"/>
		<path class="st1" d="M245.77,1594.82l-13.24,7.4c0,0,0.02,0.02,0.04,0.03c1.26,0.83,2.51,1.69,3.74,2.58c-0.02,0-0.04,0-0.06,0
			c1.43,0.79,3.15,1.51,4.96,1.73c1.09-0.07,2.18-0.15,3.27-0.2c0.83-0.67,1.64-1.35,2.46-2.02
			C248.53,1600.94,245.77,1594.82,245.77,1594.82z"/>
	</g>
</g>
<g id="Firma__x28_unir_a_object_x29_">
</g>
</svg>
